<?xml version="1.0" encoding="UTF-8"?>
<svg xmlns="http://www.w3.org/2000/svg" id="Layer_1" viewBox="0 0 360 360">
  <path d="m289.43,186.4c-13.39-42.33-26.77-84.66-58.85-122.48-4.48-6.45-9.81-12.29-15.63-17.38-6.11-5.36-12.76-9.86-19.52-13.36l-1.98-1.02c-2.6-1.37-4.6-2.41-6.35-3,0,0-4.4-2.34-7.1-.64s-5.14,11.42-5.14,11.42c-.55,2.45-5.22,22.22-4.22,33.56.79,8.81,3.21,17.35,7.72,24.76l21.25,27.67-8.82-10.64c3.04,3.84,6.16,7.58,9.31,11.29l4.07,5.3c.16-.16.38-.27.67-.27,1.07,0,1.24,1.37.53,1.84l.39.5c3.89,3.3,7.1,7.33,10.16,11.41,3.53,4.69,6.96,9.43,11.25,13.48,3.24,3.06,6.51,6.1,9.64,9.28,1.45,1.15,2.73,2.43,3.72,3.92,1.31,1.45,2.58,2.94,3.79,4.47.08-.05.17-.08.26-.1l-1.5-1.79c.51.59,1.01,1.19,1.52,1.78.35-.1.76-.05,1.03.2,3.85,3.62,6.4,8.3,9.8,12.29,2.51,2.94,5.55,5.83,6.95,9.49,2.83,3.78,5.59,7.63,8.27,11.61.57,1.11.99,2.15,1.26,3.12,0,0,0,0,0,0,1.2,1.46,1.98,3.18,2.87,4.83.34.54.67,1.09.99,1.63.12-.38.22-.77.3-1.19h0c2.96,4.76,5.79,9.69,8.48,14.81-.74-.13-1.48-.24-2.23-.35-.67-.11,15.8,6.48,23.42,9.52.28-.39.59-.75.94-1.07.41-.37.89-.71,1.42-.9-7.19-17.66-12.96-35.81-18.7-53.97Zm-63.08-30.49c4.5,4.93,9,9.88,13.45,14.92l-13.45-14.92Zm66.1,78.87c-6.12-12.28-59.61-81.09-64.51-86.45-14.86-16.25-29.57-32.34-42.28-50.34-.04-.06-.08-.12-.12-.18-5.19-7.13-7.89-15.81-8.7-24.86-.93-10.46.67-21.38,3.93-31.02,1.99-5.89,2.79-7.34,4.29-6.83,1.31.45,3.1,1.38,5.44,2.61,1.18.62,1.59.83,2,1.05,6.37,3.29,12.59,7.51,18.29,12.49,6.48,5.68,11.99,12.36,17.22,19.18,11.09,14.46,20.92,29.6,28.83,46.03,1.39,2.88,2.51,5.99,4.04,8.79,2.34,4.25,3.72,8.73,5.49,13.22,1.56,3.95,3.05,7.93,4.49,11.93,1.26,3.5,2.21,7.32,3.52,10.89,1.41,3.82,2.98,7.57,4.28,11.42,2.47,7.31,4.54,14.81,6.81,22.19.03.09.06.18.09.27,0-.01,0-.03.03-.04,4.55,14.33,9.21,28.63,14.76,42.79-2.56-1.43-5.2-2.41-7.89-3.14Z"></path>
  <path d="m251.23,186.68c.06.11.12.21.18.32.38.69.79,1.37,1.2,2.05.78.9,1.57,1.78,2.37,2.66.21.18.42.36.62.54.24.21.48.42.72.63-.93-1.04-1.87-2.07-2.73-3.11-.82-1-1.59-2.03-2.35-3.07Z"></path>
  <path d="m344.81,237.34c-1.57-1.45-3.37-2.76-5.36-3.88-.32-.18-.64-.35-.97-.52-.11-.16-5.51-2.74-10.07-3.32-.73-.12-1.47-.22-2.21-.3-.09,0-.19-.02-.28-.02-1.13-.11-2.24-.16-3.34-.16-6.2-.02-11.95,1.59-16.48,4.35-1.97,1.19-3.72,2.62-5.2,4.22-17.19-17.75-32.55-37.03-47.91-56.31-32.61-40.92-65.22-81.85-116.49-109.92-7.65-5.2-15.98-9.38-24.54-12.52-8.99-3.31-18.2-5.46-27.12-6.45l-2.61-.29c-3.44-.41-6.08-.71-8.25-.62-8.06.33-9.46,3.85-8.91,17.03.54,12.92,3.64,26.65,9.53,38.71,4.59,9.36,10.87,17.73,18.95,23.99-6.7-.99-13.4-1.2-20.13-.48-.24.03-1.24.13-2.17.22-2.87.28-5.07.5-6.91.99-6.98,1.84-7.56,5.1-4.64,16.18,1.88,7.14,4.79,14.35,8.65,21.01,3.62,6.23,8.07,11.97,13.3,16.7,13.86,12.53,45.27,21.1,80.29,30.65,20.59,5.62,42.45,11.58,62.48,18.81-28.8-2.4-57.37-4.24-86.01-5.39-36.79-1.47-73.74-1.78-111.5-.63-.18,0-.36.02-.54.05-7.23.96-12.42,3.73-15.62,7.28-2.16,2.4-3.44,5.14-3.84,7.96-.42,2.87.05,5.77,1.38,8.42,1.83,3.65,5.26,6.83,10.21,8.74,1.23.48,2.57.88,4,1.18,1.37.3,2.81.51,4.31.62h.12c53.84,2.28,105.09,1.89,159.58,1.47,21.28-.16,43.07-.33,64.31-.35,1.2,0,2.35.13,3.47.37l-11.31,6.63c-5.61,3.29-5.07,4.77-3.16,10.01l.17.49c2.09,5.79,3.82,13.55,3.65,21.26-.11,5.25-1.12,10.48-3.51,14.98.93.33,1.87.64,2.8.93.53.17,1.1.25,1.63.44,2.48-5,3.53-10.64,3.65-16.28.18-8.35-1.68-16.71-3.92-22.91l-.17-.49c-.88-2.44-1.13-3.12,1.15-4.46l14.78-8.67c.52.22,1.06.45,1.58.69,2.91,1.27,5.83,2.55,9.29,3.25,1.83.38,3.7.65,5.61.83l-11.16,24.81c-2.39,5.31-2.01,6.05.33,10.59l.41.81c2.84,5.56,4.37,10.61,5.2,15.24.46,2.61.7,5.09.82,7.46l4.71,2.7c-.06-3.4-.27-7.03-.97-10.97-.89-5.03-2.56-10.51-5.63-16.53l-.42-.83c-1.47-2.84-1.7-3.3-.23-6.58l11.9-26.46c1.69,0,3.41-.05,5.16-.19,1.99-.16,4.02-.42,6.1-.78h-.01s7.41,21.41,7.41,21.41c.27.77.46,1.34.61,1.84,1.1,3.43,1.35,4.24,5.27,6.47,4.37,2.5,8.85,6.45,12.64,11.13,2.58,3.19,4.81,6.69,6.45,10.28l3.21-4.09c-1.67-3.19-3.72-6.27-6-9.1-4.15-5.13-9.09-9.48-13.95-12.25-2.35-1.34-2.5-1.82-3.15-3.85-.19-.59-.4-1.27-.65-1.95l-7.22-20.87c2.22-.54,4.48-1.2,6.79-1.98.53-.18.99-.47,1.37-.83,4.35,3.14,9.95,5.31,16.15,5.93h0c7.5.75,14.59-.91,19.96-4.18,5.62-3.42,9.44-8.63,10.14-14.8.03-.15.04-.3.04-.45.55-6.19-2.16-12.03-7.01-16.51ZM81.17,104.11c-5.43-11.11-8.29-23.81-8.78-35.79-.3-7.32-.03-9.26,1.84-9.33,1.63-.06,3.99.21,7.09.57,1.56.18,2.1.25,2.64.31,8.4.93,17.02,2.94,25.4,6.02,6.1,2.23,12.09,5.06,17.79,8.45-.03.06-.06.12-.09.18.81.35,1.57.82,2.27,1.33.55.41,1.08.85,1.58,1.32.06-.12.11-.23.17-.35.43.28.85.57,1.28.84.1.06.2.12.31.18,16.4,8.96,31.69,19.83,45.79,32.1,4.3,3.74,8.62,7.47,12.66,11.49,3.53,3.52,6.72,7.35,10.19,10.92,3.72,3.84,7.57,7.56,11.09,11.58,2.78,3.17,63.28,77.4,74.36,89.54-3.42-.49-6.74-.45-10.01-.12-11.29-10.35-22.95-19.31-34.82-27.34-3.71-2.51-7.84-4.68-11.68-7.11-1.95-1.24-3.74-2.64-5.61-4s-4.15-2.29-6.23-3.45c-3.15-1.77-6.31-3.53-9.4-5.41-12.76-7.73-26.43-13.89-39.77-20.56-23.22-11.6-46.2-23.1-67.78-37.54-.06-.05-.14-.09-.21-.14-8.73-5.66-15.36-14.06-20.08-23.68Zm82.64,105.4c-34.11-9.31-64.7-17.65-77.26-29.01-4.66-4.21-8.63-9.34-11.88-14.92-3.53-6.08-6.19-12.68-7.9-19.21-1.43-5.42-1.61-6.88-.59-7.15,1.21-.32,3.19-.52,5.77-.78.44-.05.89-.1,2.2-.23,6.69-.7,13.38-.41,20.09.75,6.71,1.15,13.43,3.15,20.19,5.85,16.75,9.9,34.13,18.61,51.53,27.3,8.61,4.3,17.24,8.62,25.85,13.11-.04.01-.09.03-.13.04,2.35.91,4.56,2.14,6.71,3.44,5.89,3.15,11.76,6.4,17.6,9.81,4.55,2.65,9.18,5.17,13.59,8.06,2.78,1.83,5.86,3.38,8.46,5.44,2.94,2.33,6.12,4.33,9.2,6.46,7.05,4.87,13.74,10.77,20.17,16.43-.87.18-1.73.37-2.6.55-5.16,1.1-10.32,2.21-15.42,2.14-1.06-.01-2.83-1.28-3.82-1.71-1.28-.56-71.39-23.53-81.76-26.36Zm122.25,55.03c-4.83.38-9.38.08-13.66-.78-2.75-.55-5.28-1.66-7.78-2.75-4.19-1.83-8.33-3.64-13.82-3.63-23.01.01-43.93.18-64.38.33-54.44.42-105.66.82-159.18-1.44-1.16-.09-2.22-.25-3.2-.46-1.03-.22-1.99-.51-2.88-.85-3.13-1.21-5.22-3.06-6.26-5.14-.65-1.31-.89-2.71-.7-4.07.21-1.41.87-2.81,2-4.07,2.11-2.34,5.76-4.2,11.05-4.91,37.5-1.14,74.23-.83,110.83.63,36.68,1.46,73.17,4.08,110.13,7.53h.04s.11.01.16.02c6.31.22,12.14-1.03,17.96-2.28,9.77-2.1,19.55-4.19,30.3,2.09-.4,1.21-.66,2.46-.79,3.77-.48,4.8.99,9.39,3.9,13.31-4.82,1.49-9.4,2.37-13.72,2.71Zm51.7-1.73h0c-4.02,2.45-9.41,3.69-15.22,3.14-.11-.01-.23-.03-.34-.03-5.82-.61-10.85-2.89-14.32-6.09-3.22-2.98-5.02-6.74-4.63-10.58.39-3.83,2.89-7.15,6.63-9.43,3.03-1.85,6.86-3.01,11.04-3.23-.39,3.77.33,8.04,2.29,12.08,2.44,5.04,6.79,9.78,13.26,12.79.66.3,1.35.6,2.06.86-.25.17-.51.34-.77.5Z"></path>
</svg>
