<svg xmlns="http://www.w3.org/2000/svg" xmlns:xlink="http://www.w3.org/1999/xlink" width="500" zoomAndPan="magnify" viewBox="0 0 375 374.999991" height="500" preserveAspectRatio="xMidYMid meet" version="1.0"><defs><g/><clipPath id="1d3b5442d7"><path d="M 111.453125 110.039062 L 143.507812 110.039062 L 143.507812 142.09375 L 111.453125 142.09375 Z M 111.453125 110.039062 " clip-rule="nonzero"/></clipPath><clipPath id="6d81ec1b7d"><path d="M 127.480469 110.039062 C 118.628906 110.039062 111.453125 117.214844 111.453125 126.066406 C 111.453125 134.917969 118.628906 142.09375 127.480469 142.09375 C 136.332031 142.09375 143.507812 134.917969 143.507812 126.066406 C 143.507812 117.214844 136.332031 110.039062 127.480469 110.039062 Z M 127.480469 110.039062 " clip-rule="nonzero"/></clipPath><clipPath id="a8d9cce948"><path d="M 117.367188 115.886719 L 137.59375 115.886719 L 137.59375 136.113281 L 117.367188 136.113281 Z M 117.367188 115.886719 " clip-rule="nonzero"/></clipPath><clipPath id="c3e55d4e28"><path d="M 127.480469 115.886719 C 121.894531 115.886719 117.367188 120.414062 117.367188 126 C 117.367188 131.585938 121.894531 136.113281 127.480469 136.113281 C 133.066406 136.113281 137.59375 131.585938 137.59375 126 C 137.59375 120.414062 133.066406 115.886719 127.480469 115.886719 Z M 127.480469 115.886719 " clip-rule="nonzero"/></clipPath><clipPath id="c6aa0354b4"><path d="M 231.390625 173.476562 L 263.445312 173.476562 L 263.445312 205.53125 L 231.390625 205.53125 Z M 231.390625 173.476562 " clip-rule="nonzero"/></clipPath><clipPath id="3b66300582"><path d="M 247.417969 173.476562 C 238.566406 173.476562 231.390625 180.652344 231.390625 189.503906 C 231.390625 198.355469 238.566406 205.53125 247.417969 205.53125 C 256.269531 205.53125 263.445312 198.355469 263.445312 189.503906 C 263.445312 180.652344 256.269531 173.476562 247.417969 173.476562 Z M 247.417969 173.476562 " clip-rule="nonzero"/></clipPath><clipPath id="e263c61fbe"><path d="M 231.390625 173.476562 L 263.4375 173.476562 L 263.4375 205.523438 L 231.390625 205.523438 Z M 231.390625 173.476562 " clip-rule="nonzero"/></clipPath><clipPath id="c221d5fe4b"><path d="M 247.414062 173.476562 C 238.566406 173.476562 231.390625 180.652344 231.390625 189.5 C 231.390625 198.351562 238.566406 205.523438 247.414062 205.523438 C 256.261719 205.523438 263.4375 198.351562 263.4375 189.5 C 263.4375 180.652344 256.261719 173.476562 247.414062 173.476562 Z M 247.414062 173.476562 " clip-rule="nonzero"/></clipPath><clipPath id="b31b3fe307"><path d="M 237.304688 179.324219 L 257.53125 179.324219 L 257.53125 199.550781 L 237.304688 199.550781 Z M 237.304688 179.324219 " clip-rule="nonzero"/></clipPath><clipPath id="0effb983de"><path d="M 247.417969 179.324219 C 241.832031 179.324219 237.304688 183.851562 237.304688 189.4375 C 237.304688 195.023438 241.832031 199.550781 247.417969 199.550781 C 253.003906 199.550781 257.53125 195.023438 257.53125 189.4375 C 257.53125 183.851562 253.003906 179.324219 247.417969 179.324219 Z M 247.417969 179.324219 " clip-rule="nonzero"/></clipPath><clipPath id="8e2e430b69"><path d="M 171.472656 54.648438 L 203.527344 54.648438 L 203.527344 86.703125 L 171.472656 86.703125 Z M 171.472656 54.648438 " clip-rule="nonzero"/></clipPath><clipPath id="fd2ec8fbe1"><path d="M 187.5 54.648438 C 178.648438 54.648438 171.472656 61.824219 171.472656 70.675781 C 171.472656 79.527344 178.648438 86.703125 187.5 86.703125 C 196.351562 86.703125 203.527344 79.527344 203.527344 70.675781 C 203.527344 61.824219 196.351562 54.648438 187.5 54.648438 Z M 187.5 54.648438 " clip-rule="nonzero"/></clipPath><clipPath id="69c8b186ac"><path d="M 177.386719 60.492188 L 197.613281 60.492188 L 197.613281 80.722656 L 177.386719 80.722656 Z M 177.386719 60.492188 " clip-rule="nonzero"/></clipPath><clipPath id="da4a03706b"><path d="M 187.5 60.492188 C 181.914062 60.492188 177.386719 65.023438 177.386719 70.609375 C 177.386719 76.195312 181.914062 80.722656 187.5 80.722656 C 193.085938 80.722656 197.613281 76.195312 197.613281 70.609375 C 197.613281 65.023438 193.085938 60.492188 187.5 60.492188 Z M 187.5 60.492188 " clip-rule="nonzero"/></clipPath><clipPath id="155bee8419"><path d="M 170.609375 229.828125 L 202.664062 229.828125 L 202.664062 261.882812 L 170.609375 261.882812 Z M 170.609375 229.828125 " clip-rule="nonzero"/></clipPath><clipPath id="d8a90b9436"><path d="M 186.636719 229.828125 C 177.785156 229.828125 170.609375 237.003906 170.609375 245.855469 C 170.609375 254.707031 177.785156 261.882812 186.636719 261.882812 C 195.488281 261.882812 202.664062 254.707031 202.664062 245.855469 C 202.664062 237.003906 195.488281 229.828125 186.636719 229.828125 Z M 186.636719 229.828125 " clip-rule="nonzero"/></clipPath><clipPath id="fda56b3016"><path d="M 176.523438 235.671875 L 196.753906 235.671875 L 196.753906 255.902344 L 176.523438 255.902344 Z M 176.523438 235.671875 " clip-rule="nonzero"/></clipPath><clipPath id="828cfe4d61"><path d="M 186.636719 235.671875 C 181.050781 235.671875 176.523438 240.199219 176.523438 245.785156 C 176.523438 251.371094 181.050781 255.902344 186.636719 255.902344 C 192.222656 255.902344 196.753906 251.371094 196.753906 245.785156 C 196.753906 240.199219 192.222656 235.671875 186.636719 235.671875 Z M 186.636719 235.671875 " clip-rule="nonzero"/></clipPath><clipPath id="a082a4b5f4"><path d="M 111.554688 173.476562 L 143.609375 173.476562 L 143.609375 205.53125 L 111.554688 205.53125 Z M 111.554688 173.476562 " clip-rule="nonzero"/></clipPath><clipPath id="40c24b71aa"><path d="M 127.582031 173.476562 C 118.730469 173.476562 111.554688 180.652344 111.554688 189.503906 C 111.554688 198.355469 118.730469 205.53125 127.582031 205.53125 C 136.433594 205.53125 143.609375 198.355469 143.609375 189.503906 C 143.609375 180.652344 136.433594 173.476562 127.582031 173.476562 Z M 127.582031 173.476562 " clip-rule="nonzero"/></clipPath><clipPath id="44239a114f"><path d="M 117.46875 179.324219 L 137.695312 179.324219 L 137.695312 199.550781 L 117.46875 199.550781 Z M 117.46875 179.324219 " clip-rule="nonzero"/></clipPath><clipPath id="c6379196e9"><path d="M 127.582031 179.324219 C 121.996094 179.324219 117.46875 183.851562 117.46875 189.4375 C 117.46875 195.023438 121.996094 199.550781 127.582031 199.550781 C 133.167969 199.550781 137.695312 195.023438 137.695312 189.4375 C 137.695312 183.851562 133.167969 179.324219 127.582031 179.324219 Z M 127.582031 179.324219 " clip-rule="nonzero"/></clipPath><clipPath id="ba61e1a920"><path d="M 171.472656 173.476562 L 203.527344 173.476562 L 203.527344 205.53125 L 171.472656 205.53125 Z M 171.472656 173.476562 " clip-rule="nonzero"/></clipPath><clipPath id="a0ed5602dd"><path d="M 187.5 173.476562 C 178.648438 173.476562 171.472656 180.652344 171.472656 189.503906 C 171.472656 198.355469 178.648438 205.53125 187.5 205.53125 C 196.351562 205.53125 203.527344 198.355469 203.527344 189.503906 C 203.527344 180.652344 196.351562 173.476562 187.5 173.476562 Z M 187.5 173.476562 " clip-rule="nonzero"/></clipPath><clipPath id="191572b6f8"><path d="M 177.386719 179.324219 L 197.613281 179.324219 L 197.613281 199.550781 L 177.386719 199.550781 Z M 177.386719 179.324219 " clip-rule="nonzero"/></clipPath><clipPath id="0b4e5e5022"><path d="M 187.5 179.324219 C 181.914062 179.324219 177.386719 183.851562 177.386719 189.4375 C 177.386719 195.023438 181.914062 199.550781 187.5 199.550781 C 193.085938 199.550781 197.613281 195.023438 197.613281 189.4375 C 197.613281 183.851562 193.085938 179.324219 187.5 179.324219 Z M 187.5 179.324219 " clip-rule="nonzero"/></clipPath><clipPath id="956c6e7050"><path d="M 231.390625 229.828125 L 263.445312 229.828125 L 263.445312 261.882812 L 231.390625 261.882812 Z M 231.390625 229.828125 " clip-rule="nonzero"/></clipPath><clipPath id="d3a3bee6a4"><path d="M 247.417969 229.828125 C 238.566406 229.828125 231.390625 237.003906 231.390625 245.855469 C 231.390625 254.707031 238.566406 261.882812 247.417969 261.882812 C 256.269531 261.882812 263.445312 254.707031 263.445312 245.855469 C 263.445312 237.003906 256.269531 229.828125 247.417969 229.828125 Z M 247.417969 229.828125 " clip-rule="nonzero"/></clipPath><clipPath id="c0e5919fa0"><path d="M 237.304688 235.671875 L 257.53125 235.671875 L 257.53125 255.902344 L 237.304688 255.902344 Z M 237.304688 235.671875 " clip-rule="nonzero"/></clipPath><clipPath id="6b18876a73"><path d="M 247.417969 235.671875 C 241.832031 235.671875 237.304688 240.199219 237.304688 245.785156 C 237.304688 251.371094 241.832031 255.902344 247.417969 255.902344 C 253.003906 255.902344 257.53125 251.371094 257.53125 245.785156 C 257.53125 240.199219 253.003906 235.671875 247.417969 235.671875 Z M 247.417969 235.671875 " clip-rule="nonzero"/></clipPath><clipPath id="51e4ccc465"><path d="M 231.390625 110.039062 L 263.445312 110.039062 L 263.445312 142.09375 L 231.390625 142.09375 Z M 231.390625 110.039062 " clip-rule="nonzero"/></clipPath><clipPath id="cacc110eb9"><path d="M 247.417969 110.039062 C 238.566406 110.039062 231.390625 117.214844 231.390625 126.066406 C 231.390625 134.917969 238.566406 142.09375 247.417969 142.09375 C 256.269531 142.09375 263.445312 134.917969 263.445312 126.066406 C 263.445312 117.214844 256.269531 110.039062 247.417969 110.039062 Z M 247.417969 110.039062 " clip-rule="nonzero"/></clipPath><clipPath id="d9e82451ab"><path d="M 237.304688 115.886719 L 257.53125 115.886719 L 257.53125 136.113281 L 237.304688 136.113281 Z M 237.304688 115.886719 " clip-rule="nonzero"/></clipPath><clipPath id="0f21c3a4f1"><path d="M 247.417969 115.886719 C 241.832031 115.886719 237.304688 120.414062 237.304688 126 C 237.304688 131.585938 241.832031 136.113281 247.417969 136.113281 C 253.003906 136.113281 257.53125 131.585938 257.53125 126 C 257.53125 120.414062 253.003906 115.886719 247.417969 115.886719 Z M 247.417969 115.886719 " clip-rule="nonzero"/></clipPath></defs><g clip-path="url(#1d3b5442d7)"><g clip-path="url(#6d81ec1b7d)"><path fill="#000000" d="M 111.453125 110.039062 L 143.507812 110.039062 L 143.507812 142.09375 L 111.453125 142.09375 Z M 111.453125 110.039062 " fill-opacity="1" fill-rule="nonzero"/></g></g><g clip-path="url(#a8d9cce948)"><g clip-path="url(#c3e55d4e28)"><path fill="#ffffff" d="M 117.367188 115.886719 L 137.59375 115.886719 L 137.59375 136.113281 L 117.367188 136.113281 Z M 117.367188 115.886719 " fill-opacity="1" fill-rule="nonzero"/></g></g><g clip-path="url(#c6aa0354b4)"><g clip-path="url(#3b66300582)"><path fill="#f68026" d="M 231.390625 173.476562 L 263.445312 173.476562 L 263.445312 205.53125 L 231.390625 205.53125 Z M 231.390625 173.476562 " fill-opacity="1" fill-rule="nonzero"/></g></g><g clip-path="url(#e263c61fbe)"><g clip-path="url(#c221d5fe4b)"><path stroke-linecap="butt" transform="matrix(0.95349, 0, 0, 0.95349, 231.391014, 173.47783)" fill="none" stroke-linejoin="miter" d="M 16.804636 -0.00132955 C 7.5254 -0.00132955 -0.000408085 7.524479 -0.000408085 16.803715 C -0.000408085 26.087048 7.5254 33.608759 16.804636 33.608759 C 26.083872 33.608759 33.609681 26.087048 33.609681 16.803715 C 33.609681 7.524479 26.083872 -0.00132955 16.804636 -0.00132955 Z M 16.804636 -0.00132955 " stroke="#000000" stroke-width="12.585347" stroke-opacity="1" stroke-miterlimit="4"/></g></g><g clip-path="url(#b31b3fe307)"><g clip-path="url(#0effb983de)"><path fill="#f68026" d="M 237.304688 179.324219 L 257.53125 179.324219 L 257.53125 199.550781 L 237.304688 199.550781 Z M 237.304688 179.324219 " fill-opacity="1" fill-rule="nonzero"/></g></g><g clip-path="url(#8e2e430b69)"><g clip-path="url(#fd2ec8fbe1)"><path fill="#000000" d="M 171.472656 54.648438 L 203.527344 54.648438 L 203.527344 86.703125 L 171.472656 86.703125 Z M 171.472656 54.648438 " fill-opacity="1" fill-rule="nonzero"/></g></g><g clip-path="url(#69c8b186ac)"><g clip-path="url(#da4a03706b)"><path fill="#ffffff" d="M 177.386719 60.492188 L 197.613281 60.492188 L 197.613281 80.722656 L 177.386719 80.722656 Z M 177.386719 60.492188 " fill-opacity="1" fill-rule="nonzero"/></g></g><g clip-path="url(#155bee8419)"><g clip-path="url(#d8a90b9436)"><path fill="#000000" d="M 170.609375 229.828125 L 202.664062 229.828125 L 202.664062 261.882812 L 170.609375 261.882812 Z M 170.609375 229.828125 " fill-opacity="1" fill-rule="nonzero"/></g></g><g clip-path="url(#fda56b3016)"><g clip-path="url(#828cfe4d61)"><path fill="#ffffff" d="M 176.523438 235.671875 L 196.753906 235.671875 L 196.753906 255.902344 L 176.523438 255.902344 Z M 176.523438 235.671875 " fill-opacity="1" fill-rule="nonzero"/></g></g><g clip-path="url(#a082a4b5f4)"><g clip-path="url(#40c24b71aa)"><path fill="#000000" d="M 111.554688 173.476562 L 143.609375 173.476562 L 143.609375 205.53125 L 111.554688 205.53125 Z M 111.554688 173.476562 " fill-opacity="1" fill-rule="nonzero"/></g></g><g clip-path="url(#44239a114f)"><g clip-path="url(#c6379196e9)"><path fill="#ffffff" d="M 117.46875 179.324219 L 137.695312 179.324219 L 137.695312 199.550781 L 117.46875 199.550781 Z M 117.46875 179.324219 " fill-opacity="1" fill-rule="nonzero"/></g></g><g clip-path="url(#ba61e1a920)"><g clip-path="url(#a0ed5602dd)"><path fill="#000000" d="M 171.472656 173.476562 L 203.527344 173.476562 L 203.527344 205.53125 L 171.472656 205.53125 Z M 171.472656 173.476562 " fill-opacity="1" fill-rule="nonzero"/></g></g><g clip-path="url(#191572b6f8)"><g clip-path="url(#0b4e5e5022)"><path fill="#ffffff" d="M 177.386719 179.324219 L 197.613281 179.324219 L 197.613281 199.550781 L 177.386719 199.550781 Z M 177.386719 179.324219 " fill-opacity="1" fill-rule="nonzero"/></g></g><g clip-path="url(#956c6e7050)"><g clip-path="url(#d3a3bee6a4)"><path fill="#000000" d="M 231.390625 229.828125 L 263.445312 229.828125 L 263.445312 261.882812 L 231.390625 261.882812 Z M 231.390625 229.828125 " fill-opacity="1" fill-rule="nonzero"/></g></g><g clip-path="url(#c0e5919fa0)"><g clip-path="url(#6b18876a73)"><path fill="#ffffff" d="M 237.304688 235.671875 L 257.53125 235.671875 L 257.53125 255.902344 L 237.304688 255.902344 Z M 237.304688 235.671875 " fill-opacity="1" fill-rule="nonzero"/></g></g><g clip-path="url(#51e4ccc465)"><g clip-path="url(#cacc110eb9)"><path fill="#000000" d="M 231.390625 110.039062 L 263.445312 110.039062 L 263.445312 142.09375 L 231.390625 142.09375 Z M 231.390625 110.039062 " fill-opacity="1" fill-rule="nonzero"/></g></g><g clip-path="url(#d9e82451ab)"><g clip-path="url(#0f21c3a4f1)"><path fill="#ffffff" d="M 237.304688 115.886719 L 257.53125 115.886719 L 257.53125 136.113281 L 237.304688 136.113281 Z M 237.304688 115.886719 " fill-opacity="1" fill-rule="nonzero"/></g></g><path stroke-linecap="butt" transform="matrix(-0.550727, -0.509116, 0.509116, -0.550727, 229.608784, 113.178948)" fill="none" stroke-linejoin="miter" d="M 0.00133306 3.501313 L 50.594746 3.501108 " stroke="#000000" stroke-width="7" stroke-opacity="1" stroke-miterlimit="4"/><path stroke-linecap="butt" transform="matrix(-0.551157, 0.508651, -0.508651, -0.551157, 173.249861, 87.398344)" fill="none" stroke-linejoin="miter" d="M 0.000321487 3.501286 L 50.739152 3.500888 " stroke="#000000" stroke-width="7" stroke-opacity="1" stroke-miterlimit="4"/><path stroke-linecap="butt" transform="matrix(0.00120023, 0.749999, -0.749999, 0.00120023, 130.124996, 142.096851)" fill="none" stroke-linejoin="miter" d="M 0.000681372 3.5 L 41.844486 3.499255 " stroke="#000000" stroke-width="7" stroke-opacity="1" stroke-miterlimit="4"/><path stroke-linecap="butt" transform="matrix(0.542618, 0.51775, -0.51775, 0.542618, 145.419883, 202.901924)" fill="none" stroke-linejoin="miter" d="M 0.00127919 3.498214 L 49.7628 3.50112 " stroke="#000000" stroke-width="7" stroke-opacity="1" stroke-miterlimit="4"/><path stroke-linecap="butt" transform="matrix(0.75, 0, 0, 0.75, 203.527374, 186.880212)" fill="none" stroke-linejoin="miter" d="M -0.0000397134 3.49826 L 37.151004 3.49826 " stroke="#000000" stroke-width="7" stroke-opacity="1" stroke-miterlimit="4"/><path stroke-linecap="butt" transform="matrix(0, 0.75, -0.75, 0, 250.042342, 205.533649)" fill="none" stroke-linejoin="miter" d="M 0.0020098 3.499164 L 32.392637 3.499164 " stroke="#000000" stroke-width="7" stroke-opacity="1" stroke-miterlimit="4"/><path stroke-linecap="butt" transform="matrix(-0.549997, 0.509905, -0.509905, -0.549997, 233.169145, 206.291823)" fill="none" stroke-linejoin="miter" d="M 0.00194969 3.501163 L 52.228768 3.497344 " stroke="#000000" stroke-width="7" stroke-opacity="1" stroke-miterlimit="4"/><g fill="#000000" fill-opacity="1"><g transform="translate(83.483401, 310.616492)"><g><path d="M 13.890625 0.1875 C 12.160156 0.1875 10.523438 -0.160156 8.984375 -0.859375 C 7.441406 -1.566406 6.082031 -2.539062 4.90625 -3.78125 C 3.738281 -5.03125 2.828125 -6.484375 2.171875 -8.140625 C 1.523438 -9.796875 1.203125 -11.585938 1.203125 -13.515625 C 1.203125 -15.347656 1.523438 -17.070312 2.171875 -18.6875 C 2.828125 -20.3125 3.742188 -21.738281 4.921875 -22.96875 C 6.109375 -24.195312 7.492188 -25.160156 9.078125 -25.859375 C 10.660156 -26.566406 12.378906 -26.921875 14.234375 -26.921875 C 16.742188 -26.921875 18.894531 -26.382812 20.6875 -25.3125 C 22.488281 -24.25 23.835938 -22.84375 24.734375 -21.09375 L 20.859375 -18.21875 C 20.179688 -19.550781 19.234375 -20.566406 18.015625 -21.265625 C 16.796875 -21.972656 15.472656 -22.328125 14.046875 -22.328125 C 12.910156 -22.328125 11.878906 -22.085938 10.953125 -21.609375 C 10.023438 -21.140625 9.222656 -20.488281 8.546875 -19.65625 C 7.867188 -18.820312 7.347656 -17.863281 6.984375 -16.78125 C 6.617188 -15.707031 6.4375 -14.570312 6.4375 -13.375 C 6.4375 -12.09375 6.628906 -10.910156 7.015625 -9.828125 C 7.410156 -8.742188 7.960938 -7.800781 8.671875 -7 C 9.390625 -6.195312 10.222656 -5.5625 11.171875 -5.09375 C 12.128906 -4.632812 13.1875 -4.40625 14.34375 -4.40625 C 15.695312 -4.40625 16.992188 -4.753906 18.234375 -5.453125 C 19.484375 -6.160156 20.648438 -7.191406 21.734375 -8.546875 L 21.734375 -3.421875 C 19.492188 -1.015625 16.878906 0.1875 13.890625 0.1875 Z M 21.34375 -9.9375 L 15.96875 -9.9375 L 15.96875 -13.75 L 25.640625 -13.75 L 25.640625 0 L 21.34375 0 Z M 21.34375 -9.9375 "/></g></g></g><g fill="#000000" fill-opacity="1"><g transform="translate(110.781323, 310.616492)"><g><path d="M 14.046875 -15.359375 C 12.515625 -15.359375 11.144531 -15.0625 9.9375 -14.46875 C 8.738281 -13.882812 7.875 -13.039062 7.34375 -11.9375 L 7.34375 0 L 2.296875 0 L 2.296875 -19.734375 L 6.921875 -19.734375 L 6.921875 -15.515625 C 7.628906 -16.867188 8.519531 -17.929688 9.59375 -18.703125 C 10.675781 -19.484375 11.820312 -19.914062 13.03125 -20 C 13.300781 -20 13.507812 -20 13.65625 -20 C 13.8125 -20 13.941406 -19.984375 14.046875 -19.953125 Z M 14.046875 -15.359375 "/></g></g></g><g fill="#000000" fill-opacity="1"><g transform="translate(125.352764, 310.616492)"><g><path d="M 0.9375 -5.84375 C 0.9375 -7.113281 1.296875 -8.234375 2.015625 -9.203125 C 2.734375 -10.171875 3.726562 -10.914062 5 -11.4375 C 6.28125 -11.96875 7.753906 -12.234375 9.421875 -12.234375 C 10.242188 -12.234375 11.082031 -12.171875 11.9375 -12.046875 C 12.789062 -11.921875 13.53125 -11.722656 14.15625 -11.453125 L 14.15625 -12.5 C 14.15625 -13.757812 13.785156 -14.726562 13.046875 -15.40625 C 12.304688 -16.082031 11.207031 -16.421875 9.75 -16.421875 C 8.675781 -16.421875 7.648438 -16.226562 6.671875 -15.84375 C 5.691406 -15.46875 4.660156 -14.921875 3.578125 -14.203125 L 1.953125 -17.515625 C 3.265625 -18.367188 4.601562 -19.007812 5.96875 -19.4375 C 7.332031 -19.863281 8.769531 -20.078125 10.28125 -20.078125 C 13.09375 -20.078125 15.28125 -19.375 16.84375 -17.96875 C 18.414062 -16.5625 19.203125 -14.550781 19.203125 -11.9375 L 19.203125 -5.65625 C 19.203125 -5.125 19.296875 -4.742188 19.484375 -4.515625 C 19.671875 -4.296875 19.976562 -4.160156 20.40625 -4.109375 L 20.40625 0 C 19.957031 0.0703125 19.550781 0.132812 19.1875 0.1875 C 18.820312 0.238281 18.515625 0.265625 18.265625 0.265625 C 17.253906 0.265625 16.492188 0.0390625 15.984375 -0.40625 C 15.472656 -0.863281 15.15625 -1.421875 15.03125 -2.078125 L 14.90625 -3.09375 C 14.050781 -1.988281 12.984375 -1.132812 11.703125 -0.53125 C 10.429688 0.0703125 9.128906 0.375 7.796875 0.375 C 6.492188 0.375 5.320312 0.101562 4.28125 -0.4375 C 3.238281 -0.976562 2.421875 -1.71875 1.828125 -2.65625 C 1.234375 -3.59375 0.9375 -4.65625 0.9375 -5.84375 Z M 13.21875 -4.8125 C 13.488281 -5.113281 13.710938 -5.414062 13.890625 -5.71875 C 14.066406 -6.019531 14.15625 -6.296875 14.15625 -6.546875 L 14.15625 -8.546875 C 13.550781 -8.796875 12.894531 -8.988281 12.1875 -9.125 C 11.488281 -9.269531 10.828125 -9.34375 10.203125 -9.34375 C 8.898438 -9.34375 7.828125 -9.054688 6.984375 -8.484375 C 6.140625 -7.921875 5.71875 -7.175781 5.71875 -6.25 C 5.71875 -5.75 5.851562 -5.269531 6.125 -4.8125 C 6.40625 -4.363281 6.8125 -4 7.34375 -3.71875 C 7.875 -3.445312 8.5 -3.3125 9.21875 -3.3125 C 9.976562 -3.3125 10.722656 -3.457031 11.453125 -3.75 C 12.179688 -4.039062 12.769531 -4.394531 13.21875 -4.8125 Z M 13.21875 -4.8125 "/></g></g></g><g fill="#000000" fill-opacity="1"><g transform="translate(146.965193, 310.616492)"><g><path d="M 14.125 0.375 C 12.59375 0.375 11.242188 0.03125 10.078125 -0.65625 C 8.910156 -1.34375 8 -2.28125 7.34375 -3.46875 L 7.34375 8.015625 L 2.296875 8.015625 L 2.296875 -19.734375 L 6.703125 -19.734375 L 6.703125 -16.34375 C 7.453125 -17.5 8.40625 -18.410156 9.5625 -19.078125 C 10.71875 -19.742188 12.035156 -20.078125 13.515625 -20.078125 C 14.847656 -20.078125 16.070312 -19.8125 17.1875 -19.28125 C 18.300781 -18.75 19.269531 -18.015625 20.09375 -17.078125 C 20.925781 -16.140625 21.578125 -15.0625 22.046875 -13.84375 C 22.515625 -12.625 22.75 -11.3125 22.75 -9.90625 C 22.75 -8 22.375 -6.265625 21.625 -4.703125 C 20.882812 -3.148438 19.867188 -1.914062 18.578125 -1 C 17.285156 -0.0820312 15.800781 0.375 14.125 0.375 Z M 12.421875 -3.921875 C 13.203125 -3.921875 13.90625 -4.082031 14.53125 -4.40625 C 15.164062 -4.726562 15.710938 -5.171875 16.171875 -5.734375 C 16.640625 -6.304688 16.988281 -6.945312 17.21875 -7.65625 C 17.457031 -8.375 17.578125 -9.125 17.578125 -9.90625 C 17.578125 -10.726562 17.445312 -11.488281 17.1875 -12.1875 C 16.925781 -12.894531 16.539062 -13.519531 16.03125 -14.0625 C 15.53125 -14.601562 14.945312 -15.023438 14.28125 -15.328125 C 13.625 -15.628906 12.90625 -15.78125 12.125 -15.78125 C 11.644531 -15.78125 11.160156 -15.695312 10.671875 -15.53125 C 10.179688 -15.363281 9.707031 -15.128906 9.25 -14.828125 C 8.800781 -14.535156 8.40625 -14.1875 8.0625 -13.78125 C 7.726562 -13.382812 7.488281 -12.945312 7.34375 -12.46875 L 7.34375 -7.828125 C 7.644531 -7.097656 8.050781 -6.429688 8.5625 -5.828125 C 9.082031 -5.234375 9.679688 -4.765625 10.359375 -4.421875 C 11.035156 -4.085938 11.722656 -3.921875 12.421875 -3.921875 Z M 12.421875 -3.921875 "/></g></g></g><g fill="#000000" fill-opacity="1"><g transform="translate(170.836755, 310.616492)"><g><path d="M 20.640625 0 L 15.59375 0 L 15.59375 -11.078125 C 15.59375 -12.609375 15.296875 -13.75 14.703125 -14.5 C 14.109375 -15.25 13.300781 -15.625 12.28125 -15.625 C 11.675781 -15.625 11.035156 -15.445312 10.359375 -15.09375 C 9.679688 -14.75 9.070312 -14.269531 8.53125 -13.65625 C 7.988281 -13.039062 7.59375 -12.328125 7.34375 -11.515625 L 7.34375 0 L 2.296875 0 L 2.296875 -27.484375 L 7.34375 -27.484375 L 7.34375 -16.078125 C 8.070312 -17.335938 9.0625 -18.316406 10.3125 -19.015625 C 11.570312 -19.722656 12.941406 -20.078125 14.421875 -20.078125 C 15.703125 -20.078125 16.742188 -19.851562 17.546875 -19.40625 C 18.347656 -18.96875 18.972656 -18.378906 19.421875 -17.640625 C 19.878906 -16.898438 20.195312 -16.070312 20.375 -15.15625 C 20.550781 -14.238281 20.640625 -13.289062 20.640625 -12.3125 Z M 20.640625 0 "/></g></g></g><g fill="#000000" fill-opacity="1"><g transform="translate(193.57875, 310.616492)"><g><path d="M 11.484375 0.375 C 9.878906 0.375 8.4375 0.101562 7.15625 -0.4375 C 5.875 -0.976562 4.78125 -1.726562 3.875 -2.6875 C 2.96875 -3.65625 2.269531 -4.753906 1.78125 -5.984375 C 1.289062 -7.210938 1.046875 -8.503906 1.046875 -9.859375 C 1.046875 -11.722656 1.46875 -13.425781 2.3125 -14.96875 C 3.15625 -16.507812 4.351562 -17.742188 5.90625 -18.671875 C 7.46875 -19.609375 9.316406 -20.078125 11.453125 -20.078125 C 13.578125 -20.078125 15.40625 -19.609375 16.9375 -18.671875 C 18.476562 -17.742188 19.625 -16.53125 20.375 -15.03125 L 15.4375 -13.515625 C 15.007812 -14.242188 14.441406 -14.800781 13.734375 -15.1875 C 13.035156 -15.582031 12.257812 -15.78125 11.40625 -15.78125 C 10.457031 -15.78125 9.585938 -15.535156 8.796875 -15.046875 C 8.003906 -14.554688 7.378906 -13.863281 6.921875 -12.96875 C 6.472656 -12.082031 6.25 -11.046875 6.25 -9.859375 C 6.25 -8.710938 6.476562 -7.691406 6.9375 -6.796875 C 7.40625 -5.898438 8.03125 -5.195312 8.8125 -4.6875 C 9.59375 -4.175781 10.457031 -3.921875 11.40625 -3.921875 C 12.007812 -3.921875 12.582031 -4.019531 13.125 -4.21875 C 13.664062 -4.414062 14.148438 -4.691406 14.578125 -5.046875 C 15.003906 -5.398438 15.316406 -5.800781 15.515625 -6.25 L 20.453125 -4.75 C 19.992188 -3.769531 19.332031 -2.890625 18.46875 -2.109375 C 17.601562 -1.328125 16.585938 -0.71875 15.421875 -0.28125 C 14.253906 0.15625 12.941406 0.375 11.484375 0.375 Z M 11.484375 0.375 "/></g></g></g><g fill="#000000" fill-opacity="1"><g transform="translate(214.814657, 310.616492)"><g><path d="M 20.640625 0 L 15.59375 0 L 15.59375 -11.078125 C 15.59375 -12.609375 15.296875 -13.75 14.703125 -14.5 C 14.109375 -15.25 13.300781 -15.625 12.28125 -15.625 C 11.675781 -15.625 11.035156 -15.445312 10.359375 -15.09375 C 9.679688 -14.75 9.070312 -14.269531 8.53125 -13.65625 C 7.988281 -13.039062 7.59375 -12.328125 7.34375 -11.515625 L 7.34375 0 L 2.296875 0 L 2.296875 -27.484375 L 7.34375 -27.484375 L 7.34375 -16.078125 C 8.070312 -17.335938 9.0625 -18.316406 10.3125 -19.015625 C 11.570312 -19.722656 12.941406 -20.078125 14.421875 -20.078125 C 15.703125 -20.078125 16.742188 -19.851562 17.546875 -19.40625 C 18.347656 -18.96875 18.972656 -18.378906 19.421875 -17.640625 C 19.878906 -16.898438 20.195312 -16.070312 20.375 -15.15625 C 20.550781 -14.238281 20.640625 -13.289062 20.640625 -12.3125 Z M 20.640625 0 "/></g></g></g><g fill="#000000" fill-opacity="1"><g transform="translate(237.556652, 310.616492)"><g><path d="M 0.9375 -5.84375 C 0.9375 -7.113281 1.296875 -8.234375 2.015625 -9.203125 C 2.734375 -10.171875 3.726562 -10.914062 5 -11.4375 C 6.28125 -11.96875 7.753906 -12.234375 9.421875 -12.234375 C 10.242188 -12.234375 11.082031 -12.171875 11.9375 -12.046875 C 12.789062 -11.921875 13.53125 -11.722656 14.15625 -11.453125 L 14.15625 -12.5 C 14.15625 -13.757812 13.785156 -14.726562 13.046875 -15.40625 C 12.304688 -16.082031 11.207031 -16.421875 9.75 -16.421875 C 8.675781 -16.421875 7.648438 -16.226562 6.671875 -15.84375 C 5.691406 -15.46875 4.660156 -14.921875 3.578125 -14.203125 L 1.953125 -17.515625 C 3.265625 -18.367188 4.601562 -19.007812 5.96875 -19.4375 C 7.332031 -19.863281 8.769531 -20.078125 10.28125 -20.078125 C 13.09375 -20.078125 15.28125 -19.375 16.84375 -17.96875 C 18.414062 -16.5625 19.203125 -14.550781 19.203125 -11.9375 L 19.203125 -5.65625 C 19.203125 -5.125 19.296875 -4.742188 19.484375 -4.515625 C 19.671875 -4.296875 19.976562 -4.160156 20.40625 -4.109375 L 20.40625 0 C 19.957031 0.0703125 19.550781 0.132812 19.1875 0.1875 C 18.820312 0.238281 18.515625 0.265625 18.265625 0.265625 C 17.253906 0.265625 16.492188 0.0390625 15.984375 -0.40625 C 15.472656 -0.863281 15.15625 -1.421875 15.03125 -2.078125 L 14.90625 -3.09375 C 14.050781 -1.988281 12.984375 -1.132812 11.703125 -0.53125 C 10.429688 0.0703125 9.128906 0.375 7.796875 0.375 C 6.492188 0.375 5.320312 0.101562 4.28125 -0.4375 C 3.238281 -0.976562 2.421875 -1.71875 1.828125 -2.65625 C 1.234375 -3.59375 0.9375 -4.65625 0.9375 -5.84375 Z M 13.21875 -4.8125 C 13.488281 -5.113281 13.710938 -5.414062 13.890625 -5.71875 C 14.066406 -6.019531 14.15625 -6.296875 14.15625 -6.546875 L 14.15625 -8.546875 C 13.550781 -8.796875 12.894531 -8.988281 12.1875 -9.125 C 11.488281 -9.269531 10.828125 -9.34375 10.203125 -9.34375 C 8.898438 -9.34375 7.828125 -9.054688 6.984375 -8.484375 C 6.140625 -7.921875 5.71875 -7.175781 5.71875 -6.25 C 5.71875 -5.75 5.851562 -5.269531 6.125 -4.8125 C 6.40625 -4.363281 6.8125 -4 7.34375 -3.71875 C 7.875 -3.445312 8.5 -3.3125 9.21875 -3.3125 C 9.976562 -3.3125 10.722656 -3.457031 11.453125 -3.75 C 12.179688 -4.039062 12.769531 -4.394531 13.21875 -4.8125 Z M 13.21875 -4.8125 "/></g></g></g><g fill="#000000" fill-opacity="1"><g transform="translate(259.169081, 310.616492)"><g><path d="M 2.296875 0 L 2.296875 -19.734375 L 7.34375 -19.734375 L 7.34375 0 Z M 2.296875 -22.484375 L 2.296875 -27.484375 L 7.34375 -27.484375 L 7.34375 -22.484375 Z M 2.296875 -22.484375 "/></g></g></g><g fill="#000000" fill-opacity="1"><g transform="translate(268.770422, 310.616492)"><g><path d="M 20.640625 0 L 15.59375 0 L 15.59375 -11.078125 C 15.59375 -12.648438 15.316406 -13.800781 14.765625 -14.53125 C 14.210938 -15.257812 13.445312 -15.625 12.46875 -15.625 C 11.789062 -15.625 11.101562 -15.445312 10.40625 -15.09375 C 9.71875 -14.75 9.097656 -14.269531 8.546875 -13.65625 C 7.992188 -13.039062 7.59375 -12.328125 7.34375 -11.515625 L 7.34375 0 L 2.296875 0 L 2.296875 -19.734375 L 6.859375 -19.734375 L 6.859375 -16.078125 C 7.359375 -16.929688 7.992188 -17.648438 8.765625 -18.234375 C 9.546875 -18.828125 10.441406 -19.28125 11.453125 -19.59375 C 12.472656 -19.914062 13.550781 -20.078125 14.6875 -20.078125 C 15.914062 -20.078125 16.925781 -19.851562 17.71875 -19.40625 C 18.507812 -18.96875 19.109375 -18.378906 19.515625 -17.640625 C 19.929688 -16.898438 20.222656 -16.066406 20.390625 -15.140625 C 20.554688 -14.210938 20.640625 -13.269531 20.640625 -12.3125 Z M 20.640625 0 "/></g></g></g></svg>