<svg xmlns="http://www.w3.org/2000/svg" xmlns:xlink="http://www.w3.org/1999/xlink" width="500" zoomAndPan="magnify" viewBox="0 0 375 149.999998" height="200" preserveAspectRatio="xMidYMid meet" version="1.0"><defs><g/><clipPath id="ee531d5faf"><path d="M 31.761719 46.996094 L 50.28125 46.996094 L 50.28125 65.515625 L 31.761719 65.515625 Z M 31.761719 46.996094 " clip-rule="nonzero"/></clipPath><clipPath id="a12b0023ed"><path d="M 41.023438 46.996094 C 35.910156 46.996094 31.761719 51.144531 31.761719 56.257812 C 31.761719 61.371094 35.910156 65.515625 41.023438 65.515625 C 46.136719 65.515625 50.28125 61.371094 50.28125 56.257812 C 50.28125 51.144531 46.136719 46.996094 41.023438 46.996094 Z M 41.023438 46.996094 " clip-rule="nonzero"/></clipPath><clipPath id="5989642c18"><path d="M 35.179688 50.375 L 46.863281 50.375 L 46.863281 62.058594 L 35.179688 62.058594 Z M 35.179688 50.375 " clip-rule="nonzero"/></clipPath><clipPath id="4416d100f6"><path d="M 41.023438 50.375 C 37.792969 50.375 35.179688 52.988281 35.179688 56.214844 C 35.179688 59.441406 37.792969 62.058594 41.023438 62.058594 C 44.25 62.058594 46.863281 59.441406 46.863281 56.214844 C 46.863281 52.988281 44.25 50.375 41.023438 50.375 Z M 41.023438 50.375 " clip-rule="nonzero"/></clipPath><clipPath id="b761f2e7f1"><path d="M 101.046875 83.644531 L 119.5625 83.644531 L 119.5625 102.160156 L 101.046875 102.160156 Z M 101.046875 83.644531 " clip-rule="nonzero"/></clipPath><clipPath id="53ed4ed933"><path d="M 110.304688 83.644531 C 105.191406 83.644531 101.046875 87.789062 101.046875 92.902344 C 101.046875 98.015625 105.191406 102.160156 110.304688 102.160156 C 115.417969 102.160156 119.5625 98.015625 119.5625 92.902344 C 119.5625 87.789062 115.417969 83.644531 110.304688 83.644531 Z M 110.304688 83.644531 " clip-rule="nonzero"/></clipPath><clipPath id="aa4b05c907"><path d="M 101.046875 83.644531 L 119.558594 83.644531 L 119.558594 102.15625 L 101.046875 102.15625 Z M 101.046875 83.644531 " clip-rule="nonzero"/></clipPath><clipPath id="d440fc8db8"><path d="M 110.304688 83.644531 C 105.191406 83.644531 101.046875 87.785156 101.046875 92.898438 C 101.046875 98.011719 105.191406 102.15625 110.304688 102.15625 C 115.414062 102.15625 119.558594 98.011719 119.558594 92.898438 C 119.558594 87.785156 115.414062 83.644531 110.304688 83.644531 Z M 110.304688 83.644531 " clip-rule="nonzero"/></clipPath><clipPath id="7caeb8dee8"><path d="M 104.464844 87.019531 L 116.148438 87.019531 L 116.148438 98.703125 L 104.464844 98.703125 Z M 104.464844 87.019531 " clip-rule="nonzero"/></clipPath><clipPath id="8f7dfce27c"><path d="M 110.304688 87.019531 C 107.078125 87.019531 104.464844 89.636719 104.464844 92.863281 C 104.464844 96.089844 107.078125 98.703125 110.304688 98.703125 C 113.53125 98.703125 116.148438 96.089844 116.148438 92.863281 C 116.148438 89.636719 113.53125 87.019531 110.304688 87.019531 Z M 110.304688 87.019531 " clip-rule="nonzero"/></clipPath><clipPath id="4832ac2347"><path d="M 66.433594 15 L 84.953125 15 L 84.953125 33.515625 L 66.433594 33.515625 Z M 66.433594 15 " clip-rule="nonzero"/></clipPath><clipPath id="ed0988583f"><path d="M 75.691406 15 C 70.578125 15 66.433594 19.144531 66.433594 24.257812 C 66.433594 29.371094 70.578125 33.515625 75.691406 33.515625 C 80.804688 33.515625 84.953125 29.371094 84.953125 24.257812 C 84.953125 19.144531 80.804688 15 75.691406 15 Z M 75.691406 15 " clip-rule="nonzero"/></clipPath><clipPath id="95ff814185"><path d="M 69.851562 18.375 L 81.535156 18.375 L 81.535156 30.0625 L 69.851562 30.0625 Z M 69.851562 18.375 " clip-rule="nonzero"/></clipPath><clipPath id="eadedb1256"><path d="M 75.691406 18.375 C 72.464844 18.375 69.851562 20.992188 69.851562 24.21875 C 69.851562 27.445312 72.464844 30.0625 75.691406 30.0625 C 78.917969 30.0625 81.535156 27.445312 81.535156 24.21875 C 81.535156 20.992188 78.917969 18.375 75.691406 18.375 Z M 75.691406 18.375 " clip-rule="nonzero"/></clipPath><clipPath id="716a8059af"><path d="M 65.9375 116.195312 L 84.453125 116.195312 L 84.453125 134.710938 L 65.9375 134.710938 Z M 65.9375 116.195312 " clip-rule="nonzero"/></clipPath><clipPath id="292fcee4e5"><path d="M 75.195312 116.195312 C 70.082031 116.195312 65.9375 120.339844 65.9375 125.453125 C 65.9375 130.566406 70.082031 134.710938 75.195312 134.710938 C 80.308594 134.710938 84.453125 130.566406 84.453125 125.453125 C 84.453125 120.339844 80.308594 116.195312 75.195312 116.195312 Z M 75.195312 116.195312 " clip-rule="nonzero"/></clipPath><clipPath id="d9a9d60f0b"><path d="M 69.351562 119.570312 L 81.039062 119.570312 L 81.039062 131.253906 L 69.351562 131.253906 Z M 69.351562 119.570312 " clip-rule="nonzero"/></clipPath><clipPath id="f738b3c734"><path d="M 75.195312 119.570312 C 71.96875 119.570312 69.351562 122.1875 69.351562 125.414062 C 69.351562 128.640625 71.96875 131.253906 75.195312 131.253906 C 78.421875 131.253906 81.039062 128.640625 81.039062 125.414062 C 81.039062 122.1875 78.421875 119.570312 75.195312 119.570312 Z M 75.195312 119.570312 " clip-rule="nonzero"/></clipPath><clipPath id="53f60aee7a"><path d="M 31.820312 83.644531 L 50.339844 83.644531 L 50.339844 102.160156 L 31.820312 102.160156 Z M 31.820312 83.644531 " clip-rule="nonzero"/></clipPath><clipPath id="e8b48b98c0"><path d="M 41.082031 83.644531 C 35.96875 83.644531 31.820312 87.789062 31.820312 92.902344 C 31.820312 98.015625 35.96875 102.160156 41.082031 102.160156 C 46.195312 102.160156 50.339844 98.015625 50.339844 92.902344 C 50.339844 87.789062 46.195312 83.644531 41.082031 83.644531 Z M 41.082031 83.644531 " clip-rule="nonzero"/></clipPath><clipPath id="422cc6f718"><path d="M 35.238281 87.019531 L 46.921875 87.019531 L 46.921875 98.703125 L 35.238281 98.703125 Z M 35.238281 87.019531 " clip-rule="nonzero"/></clipPath><clipPath id="0548854009"><path d="M 41.082031 87.019531 C 37.851562 87.019531 35.238281 89.636719 35.238281 92.863281 C 35.238281 96.089844 37.851562 98.703125 41.082031 98.703125 C 44.308594 98.703125 46.921875 96.089844 46.921875 92.863281 C 46.921875 89.636719 44.308594 87.019531 41.082031 87.019531 Z M 41.082031 87.019531 " clip-rule="nonzero"/></clipPath><clipPath id="213677392b"><path d="M 66.433594 83.644531 L 84.953125 83.644531 L 84.953125 102.160156 L 66.433594 102.160156 Z M 66.433594 83.644531 " clip-rule="nonzero"/></clipPath><clipPath id="a9efb70f2d"><path d="M 75.691406 83.644531 C 70.578125 83.644531 66.433594 87.789062 66.433594 92.902344 C 66.433594 98.015625 70.578125 102.160156 75.691406 102.160156 C 80.804688 102.160156 84.953125 98.015625 84.953125 92.902344 C 84.953125 87.789062 80.804688 83.644531 75.691406 83.644531 Z M 75.691406 83.644531 " clip-rule="nonzero"/></clipPath><clipPath id="d2191d06c4"><path d="M 69.851562 87.019531 L 81.535156 87.019531 L 81.535156 98.703125 L 69.851562 98.703125 Z M 69.851562 87.019531 " clip-rule="nonzero"/></clipPath><clipPath id="2b5241c8ce"><path d="M 75.691406 87.019531 C 72.464844 87.019531 69.851562 89.636719 69.851562 92.863281 C 69.851562 96.089844 72.464844 98.703125 75.691406 98.703125 C 78.917969 98.703125 81.535156 96.089844 81.535156 92.863281 C 81.535156 89.636719 78.917969 87.019531 75.691406 87.019531 Z M 75.691406 87.019531 " clip-rule="nonzero"/></clipPath><clipPath id="5bb18579b7"><path d="M 101.046875 116.195312 L 119.5625 116.195312 L 119.5625 134.710938 L 101.046875 134.710938 Z M 101.046875 116.195312 " clip-rule="nonzero"/></clipPath><clipPath id="274334a35e"><path d="M 110.304688 116.195312 C 105.191406 116.195312 101.046875 120.339844 101.046875 125.453125 C 101.046875 130.566406 105.191406 134.710938 110.304688 134.710938 C 115.417969 134.710938 119.5625 130.566406 119.5625 125.453125 C 119.5625 120.339844 115.417969 116.195312 110.304688 116.195312 Z M 110.304688 116.195312 " clip-rule="nonzero"/></clipPath><clipPath id="3154cd8d72"><path d="M 104.464844 119.570312 L 116.148438 119.570312 L 116.148438 131.253906 L 104.464844 131.253906 Z M 104.464844 119.570312 " clip-rule="nonzero"/></clipPath><clipPath id="e3c2b43ad0"><path d="M 110.304688 119.570312 C 107.078125 119.570312 104.464844 122.1875 104.464844 125.414062 C 104.464844 128.640625 107.078125 131.253906 110.304688 131.253906 C 113.53125 131.253906 116.148438 128.640625 116.148438 125.414062 C 116.148438 122.1875 113.53125 119.570312 110.304688 119.570312 Z M 110.304688 119.570312 " clip-rule="nonzero"/></clipPath><clipPath id="b559b015e6"><path d="M 101.046875 46.996094 L 119.5625 46.996094 L 119.5625 65.515625 L 101.046875 65.515625 Z M 101.046875 46.996094 " clip-rule="nonzero"/></clipPath><clipPath id="3362d296bb"><path d="M 110.304688 46.996094 C 105.191406 46.996094 101.046875 51.144531 101.046875 56.257812 C 101.046875 61.371094 105.191406 65.515625 110.304688 65.515625 C 115.417969 65.515625 119.5625 61.371094 119.5625 56.257812 C 119.5625 51.144531 115.417969 46.996094 110.304688 46.996094 Z M 110.304688 46.996094 " clip-rule="nonzero"/></clipPath><clipPath id="8d761dce8d"><path d="M 104.464844 50.375 L 116.148438 50.375 L 116.148438 62.058594 L 104.464844 62.058594 Z M 104.464844 50.375 " clip-rule="nonzero"/></clipPath><clipPath id="bac9b4060c"><path d="M 110.304688 50.375 C 107.078125 50.375 104.464844 52.988281 104.464844 56.214844 C 104.464844 59.441406 107.078125 62.058594 110.304688 62.058594 C 113.53125 62.058594 116.148438 59.441406 116.148438 56.214844 C 116.148438 52.988281 113.53125 50.375 110.304688 50.375 Z M 110.304688 50.375 " clip-rule="nonzero"/></clipPath></defs><g clip-path="url(#ee531d5faf)"><g clip-path="url(#a12b0023ed)"><path fill="#000000" d="M 31.761719 46.996094 L 50.28125 46.996094 L 50.28125 65.515625 L 31.761719 65.515625 Z M 31.761719 46.996094 " fill-opacity="1" fill-rule="nonzero"/></g></g><g clip-path="url(#5989642c18)"><g clip-path="url(#4416d100f6)"><path fill="#ffffff" d="M 35.179688 50.375 L 46.863281 50.375 L 46.863281 62.058594 L 35.179688 62.058594 Z M 35.179688 50.375 " fill-opacity="1" fill-rule="nonzero"/></g></g><g clip-path="url(#b761f2e7f1)"><g clip-path="url(#53ed4ed933)"><path fill="#f68026" d="M 101.046875 83.644531 L 119.5625 83.644531 L 119.5625 102.160156 L 101.046875 102.160156 Z M 101.046875 83.644531 " fill-opacity="1" fill-rule="nonzero"/></g></g><g clip-path="url(#aa4b05c907)"><g clip-path="url(#d440fc8db8)"><path stroke-linecap="butt" transform="matrix(0.550797, 0, 0, 0.550797, 101.047176, 83.642928)" fill="none" stroke-linejoin="miter" d="M 16.807489 0.00291165 C 7.524064 0.00291165 -0.00054581 7.520429 -0.00054581 16.803854 C -0.00054581 26.087279 7.524064 33.611889 16.807489 33.611889 C 26.083822 33.611889 33.608431 26.087279 33.608431 16.803854 C 33.608431 7.520429 26.083822 0.00291165 16.807489 0.00291165 Z M 16.807489 0.00291165 " stroke="#000000" stroke-width="21.786617" stroke-opacity="1" stroke-miterlimit="4"/></g></g><g clip-path="url(#7caeb8dee8)"><g clip-path="url(#8f7dfce27c)"><path fill="#f68026" d="M 104.464844 87.019531 L 116.148438 87.019531 L 116.148438 98.703125 L 104.464844 98.703125 Z M 104.464844 87.019531 " fill-opacity="1" fill-rule="nonzero"/></g></g><g clip-path="url(#4832ac2347)"><g clip-path="url(#ed0988583f)"><path fill="#000000" d="M 66.433594 15 L 84.953125 15 L 84.953125 33.515625 L 66.433594 33.515625 Z M 66.433594 15 " fill-opacity="1" fill-rule="nonzero"/></g></g><g clip-path="url(#95ff814185)"><g clip-path="url(#eadedb1256)"><path fill="#ffffff" d="M 69.851562 18.375 L 81.535156 18.375 L 81.535156 30.0625 L 69.851562 30.0625 Z M 69.851562 18.375 " fill-opacity="1" fill-rule="nonzero"/></g></g><g clip-path="url(#716a8059af)"><g clip-path="url(#292fcee4e5)"><path fill="#000000" d="M 65.9375 116.195312 L 84.453125 116.195312 L 84.453125 134.710938 L 65.9375 134.710938 Z M 65.9375 116.195312 " fill-opacity="1" fill-rule="nonzero"/></g></g><g clip-path="url(#d9a9d60f0b)"><g clip-path="url(#f738b3c734)"><path fill="#ffffff" d="M 69.351562 119.570312 L 81.039062 119.570312 L 81.039062 131.253906 L 69.351562 131.253906 Z M 69.351562 119.570312 " fill-opacity="1" fill-rule="nonzero"/></g></g><g clip-path="url(#53f60aee7a)"><g clip-path="url(#e8b48b98c0)"><path fill="#000000" d="M 31.820312 83.644531 L 50.339844 83.644531 L 50.339844 102.160156 L 31.820312 102.160156 Z M 31.820312 83.644531 " fill-opacity="1" fill-rule="nonzero"/></g></g><g clip-path="url(#422cc6f718)"><g clip-path="url(#0548854009)"><path fill="#ffffff" d="M 35.238281 87.019531 L 46.921875 87.019531 L 46.921875 98.703125 L 35.238281 98.703125 Z M 35.238281 87.019531 " fill-opacity="1" fill-rule="nonzero"/></g></g><g clip-path="url(#213677392b)"><g clip-path="url(#a9efb70f2d)"><path fill="#000000" d="M 66.433594 83.644531 L 84.953125 83.644531 L 84.953125 102.160156 L 66.433594 102.160156 Z M 66.433594 83.644531 " fill-opacity="1" fill-rule="nonzero"/></g></g><g clip-path="url(#d2191d06c4)"><g clip-path="url(#2b5241c8ce)"><path fill="#ffffff" d="M 69.851562 87.019531 L 81.535156 87.019531 L 81.535156 98.703125 L 69.851562 98.703125 Z M 69.851562 87.019531 " fill-opacity="1" fill-rule="nonzero"/></g></g><g clip-path="url(#5bb18579b7)"><g clip-path="url(#274334a35e)"><path fill="#000000" d="M 101.046875 116.195312 L 119.5625 116.195312 L 119.5625 134.710938 L 101.046875 134.710938 Z M 101.046875 116.195312 " fill-opacity="1" fill-rule="nonzero"/></g></g><g clip-path="url(#3154cd8d72)"><g clip-path="url(#e3c2b43ad0)"><path fill="#ffffff" d="M 104.464844 119.570312 L 116.148438 119.570312 L 116.148438 131.253906 L 104.464844 131.253906 Z M 104.464844 119.570312 " fill-opacity="1" fill-rule="nonzero"/></g></g><g clip-path="url(#b559b015e6)"><g clip-path="url(#3362d296bb)"><path fill="#000000" d="M 101.046875 46.996094 L 119.5625 46.996094 L 119.5625 65.515625 L 101.046875 65.515625 Z M 101.046875 46.996094 " fill-opacity="1" fill-rule="nonzero"/></g></g><g clip-path="url(#8d761dce8d)"><g clip-path="url(#bac9b4060c)"><path fill="#ffffff" d="M 104.464844 50.375 L 116.148438 50.375 L 116.148438 62.058594 L 104.464844 62.058594 Z M 104.464844 50.375 " fill-opacity="1" fill-rule="nonzero"/></g></g><path stroke-linecap="butt" transform="matrix(-0.550727, -0.509116, 0.509116, -0.550727, 100.023902, 48.796509)" fill="none" stroke-linejoin="miter" d="M -0.00105076 2.000502 L 29.22653 1.99809 " stroke="#000000" stroke-width="4" stroke-opacity="1" stroke-miterlimit="4"/><path stroke-linecap="butt" transform="matrix(-0.551157, 0.508651, -0.508651, -0.551157, 67.443148, 33.908551)" fill="none" stroke-linejoin="miter" d="M -0.00133891 2.001577 L 29.311905 2.001693 " stroke="#000000" stroke-width="4" stroke-opacity="1" stroke-miterlimit="4"/><path stroke-linecap="butt" transform="matrix(0.00120023, 0.749999, -0.749999, 0.00120023, 42.530674, 65.51767)" fill="none" stroke-linejoin="miter" d="M -0.000717957 1.999234 L 24.171184 2.001458 " stroke="#000000" stroke-width="4" stroke-opacity="1" stroke-miterlimit="4"/><path stroke-linecap="butt" transform="matrix(0.542618, 0.51775, -0.51775, 0.542618, 51.372979, 100.653152)" fill="none" stroke-linejoin="miter" d="M -0.00158515 2.001315 L 28.743579 2.001299 " stroke="#000000" stroke-width="4" stroke-opacity="1" stroke-miterlimit="4"/><path stroke-linecap="butt" transform="matrix(0.75, 0, 0, 0.75, 84.951349, 91.401369)" fill="none" stroke-linejoin="miter" d="M 0.00236857 2.0013 L 21.460703 2.0013 " stroke="#000000" stroke-width="4" stroke-opacity="1" stroke-miterlimit="4"/><path stroke-linecap="butt" transform="matrix(0, 0.75, -0.75, 0, 111.802079, 102.16334)" fill="none" stroke-linejoin="miter" d="M 0.000963279 2.00173 L 18.714506 2.00173 " stroke="#000000" stroke-width="4" stroke-opacity="1" stroke-miterlimit="4"/><path stroke-linecap="butt" transform="matrix(-0.549997, 0.509905, -0.509905, -0.549997, 102.05758, 102.588584)" fill="none" stroke-linejoin="miter" d="M -0.00154282 1.99913 L 30.167861 2.00043 " stroke="#000000" stroke-width="4" stroke-opacity="1" stroke-miterlimit="4"/><g fill="#000000" fill-opacity="1"><g transform="translate(130.953701, 92.425734)"><g><path d="M 13.890625 0.1875 C 12.160156 0.1875 10.523438 -0.160156 8.984375 -0.859375 C 7.441406 -1.566406 6.082031 -2.539062 4.90625 -3.78125 C 3.738281 -5.03125 2.828125 -6.484375 2.171875 -8.140625 C 1.523438 -9.796875 1.203125 -11.585938 1.203125 -13.515625 C 1.203125 -15.347656 1.523438 -17.070312 2.171875 -18.6875 C 2.828125 -20.3125 3.742188 -21.738281 4.921875 -22.96875 C 6.109375 -24.195312 7.492188 -25.160156 9.078125 -25.859375 C 10.660156 -26.566406 12.378906 -26.921875 14.234375 -26.921875 C 16.742188 -26.921875 18.894531 -26.382812 20.6875 -25.3125 C 22.488281 -24.25 23.835938 -22.84375 24.734375 -21.09375 L 20.859375 -18.21875 C 20.179688 -19.550781 19.234375 -20.566406 18.015625 -21.265625 C 16.796875 -21.972656 15.472656 -22.328125 14.046875 -22.328125 C 12.910156 -22.328125 11.878906 -22.085938 10.953125 -21.609375 C 10.023438 -21.140625 9.222656 -20.488281 8.546875 -19.65625 C 7.867188 -18.820312 7.347656 -17.863281 6.984375 -16.78125 C 6.617188 -15.707031 6.4375 -14.570312 6.4375 -13.375 C 6.4375 -12.09375 6.628906 -10.910156 7.015625 -9.828125 C 7.410156 -8.742188 7.960938 -7.800781 8.671875 -7 C 9.390625 -6.195312 10.222656 -5.5625 11.171875 -5.09375 C 12.128906 -4.632812 13.1875 -4.40625 14.34375 -4.40625 C 15.695312 -4.40625 16.992188 -4.753906 18.234375 -5.453125 C 19.484375 -6.160156 20.648438 -7.191406 21.734375 -8.546875 L 21.734375 -3.421875 C 19.492188 -1.015625 16.878906 0.1875 13.890625 0.1875 Z M 21.34375 -9.9375 L 15.96875 -9.9375 L 15.96875 -13.75 L 25.640625 -13.75 L 25.640625 0 L 21.34375 0 Z M 21.34375 -9.9375 "/></g></g></g><g fill="#000000" fill-opacity="1"><g transform="translate(158.251623, 92.425734)"><g><path d="M 14.046875 -15.359375 C 12.515625 -15.359375 11.144531 -15.0625 9.9375 -14.46875 C 8.738281 -13.882812 7.875 -13.039062 7.34375 -11.9375 L 7.34375 0 L 2.296875 0 L 2.296875 -19.734375 L 6.921875 -19.734375 L 6.921875 -15.515625 C 7.628906 -16.867188 8.519531 -17.929688 9.59375 -18.703125 C 10.675781 -19.484375 11.820312 -19.914062 13.03125 -20 C 13.300781 -20 13.507812 -20 13.65625 -20 C 13.8125 -20 13.941406 -19.984375 14.046875 -19.953125 Z M 14.046875 -15.359375 "/></g></g></g><g fill="#000000" fill-opacity="1"><g transform="translate(172.823064, 92.425734)"><g><path d="M 0.9375 -5.84375 C 0.9375 -7.113281 1.296875 -8.234375 2.015625 -9.203125 C 2.734375 -10.171875 3.726562 -10.914062 5 -11.4375 C 6.28125 -11.96875 7.753906 -12.234375 9.421875 -12.234375 C 10.242188 -12.234375 11.082031 -12.171875 11.9375 -12.046875 C 12.789062 -11.921875 13.53125 -11.722656 14.15625 -11.453125 L 14.15625 -12.5 C 14.15625 -13.757812 13.785156 -14.726562 13.046875 -15.40625 C 12.304688 -16.082031 11.207031 -16.421875 9.75 -16.421875 C 8.675781 -16.421875 7.648438 -16.226562 6.671875 -15.84375 C 5.691406 -15.46875 4.660156 -14.921875 3.578125 -14.203125 L 1.953125 -17.515625 C 3.265625 -18.367188 4.601562 -19.007812 5.96875 -19.4375 C 7.332031 -19.863281 8.769531 -20.078125 10.28125 -20.078125 C 13.09375 -20.078125 15.28125 -19.375 16.84375 -17.96875 C 18.414062 -16.5625 19.203125 -14.550781 19.203125 -11.9375 L 19.203125 -5.65625 C 19.203125 -5.125 19.296875 -4.742188 19.484375 -4.515625 C 19.671875 -4.296875 19.976562 -4.160156 20.40625 -4.109375 L 20.40625 0 C 19.957031 0.0703125 19.550781 0.132812 19.1875 0.1875 C 18.820312 0.238281 18.515625 0.265625 18.265625 0.265625 C 17.253906 0.265625 16.492188 0.0390625 15.984375 -0.40625 C 15.472656 -0.863281 15.15625 -1.421875 15.03125 -2.078125 L 14.90625 -3.09375 C 14.050781 -1.988281 12.984375 -1.132812 11.703125 -0.53125 C 10.429688 0.0703125 9.128906 0.375 7.796875 0.375 C 6.492188 0.375 5.320312 0.101562 4.28125 -0.4375 C 3.238281 -0.976562 2.421875 -1.71875 1.828125 -2.65625 C 1.234375 -3.59375 0.9375 -4.65625 0.9375 -5.84375 Z M 13.21875 -4.8125 C 13.488281 -5.113281 13.710938 -5.414062 13.890625 -5.71875 C 14.066406 -6.019531 14.15625 -6.296875 14.15625 -6.546875 L 14.15625 -8.546875 C 13.550781 -8.796875 12.894531 -8.988281 12.1875 -9.125 C 11.488281 -9.269531 10.828125 -9.34375 10.203125 -9.34375 C 8.898438 -9.34375 7.828125 -9.054688 6.984375 -8.484375 C 6.140625 -7.921875 5.71875 -7.175781 5.71875 -6.25 C 5.71875 -5.75 5.851562 -5.269531 6.125 -4.8125 C 6.40625 -4.363281 6.8125 -4 7.34375 -3.71875 C 7.875 -3.445312 8.5 -3.3125 9.21875 -3.3125 C 9.976562 -3.3125 10.722656 -3.457031 11.453125 -3.75 C 12.179688 -4.039062 12.769531 -4.394531 13.21875 -4.8125 Z M 13.21875 -4.8125 "/></g></g></g><g fill="#000000" fill-opacity="1"><g transform="translate(194.435493, 92.425734)"><g><path d="M 14.125 0.375 C 12.59375 0.375 11.242188 0.03125 10.078125 -0.65625 C 8.910156 -1.34375 8 -2.28125 7.34375 -3.46875 L 7.34375 8.015625 L 2.296875 8.015625 L 2.296875 -19.734375 L 6.703125 -19.734375 L 6.703125 -16.34375 C 7.453125 -17.5 8.40625 -18.410156 9.5625 -19.078125 C 10.71875 -19.742188 12.035156 -20.078125 13.515625 -20.078125 C 14.847656 -20.078125 16.070312 -19.8125 17.1875 -19.28125 C 18.300781 -18.75 19.269531 -18.015625 20.09375 -17.078125 C 20.925781 -16.140625 21.578125 -15.0625 22.046875 -13.84375 C 22.515625 -12.625 22.75 -11.3125 22.75 -9.90625 C 22.75 -8 22.375 -6.265625 21.625 -4.703125 C 20.882812 -3.148438 19.867188 -1.914062 18.578125 -1 C 17.285156 -0.0820312 15.800781 0.375 14.125 0.375 Z M 12.421875 -3.921875 C 13.203125 -3.921875 13.90625 -4.082031 14.53125 -4.40625 C 15.164062 -4.726562 15.710938 -5.171875 16.171875 -5.734375 C 16.640625 -6.304688 16.988281 -6.945312 17.21875 -7.65625 C 17.457031 -8.375 17.578125 -9.125 17.578125 -9.90625 C 17.578125 -10.726562 17.445312 -11.488281 17.1875 -12.1875 C 16.925781 -12.894531 16.539062 -13.519531 16.03125 -14.0625 C 15.53125 -14.601562 14.945312 -15.023438 14.28125 -15.328125 C 13.625 -15.628906 12.90625 -15.78125 12.125 -15.78125 C 11.644531 -15.78125 11.160156 -15.695312 10.671875 -15.53125 C 10.179688 -15.363281 9.707031 -15.128906 9.25 -14.828125 C 8.800781 -14.535156 8.40625 -14.1875 8.0625 -13.78125 C 7.726562 -13.382812 7.488281 -12.945312 7.34375 -12.46875 L 7.34375 -7.828125 C 7.644531 -7.097656 8.050781 -6.429688 8.5625 -5.828125 C 9.082031 -5.234375 9.679688 -4.765625 10.359375 -4.421875 C 11.035156 -4.085938 11.722656 -3.921875 12.421875 -3.921875 Z M 12.421875 -3.921875 "/></g></g></g><g fill="#000000" fill-opacity="1"><g transform="translate(218.307055, 92.425734)"><g><path d="M 20.640625 0 L 15.59375 0 L 15.59375 -11.078125 C 15.59375 -12.609375 15.296875 -13.75 14.703125 -14.5 C 14.109375 -15.25 13.300781 -15.625 12.28125 -15.625 C 11.675781 -15.625 11.035156 -15.445312 10.359375 -15.09375 C 9.679688 -14.75 9.070312 -14.269531 8.53125 -13.65625 C 7.988281 -13.039062 7.59375 -12.328125 7.34375 -11.515625 L 7.34375 0 L 2.296875 0 L 2.296875 -27.484375 L 7.34375 -27.484375 L 7.34375 -16.078125 C 8.070312 -17.335938 9.0625 -18.316406 10.3125 -19.015625 C 11.570312 -19.722656 12.941406 -20.078125 14.421875 -20.078125 C 15.703125 -20.078125 16.742188 -19.851562 17.546875 -19.40625 C 18.347656 -18.96875 18.972656 -18.378906 19.421875 -17.640625 C 19.878906 -16.898438 20.195312 -16.070312 20.375 -15.15625 C 20.550781 -14.238281 20.640625 -13.289062 20.640625 -12.3125 Z M 20.640625 0 "/></g></g></g><g fill="#000000" fill-opacity="1"><g transform="translate(241.04905, 92.425734)"><g><path d="M 11.484375 0.375 C 9.878906 0.375 8.4375 0.101562 7.15625 -0.4375 C 5.875 -0.976562 4.78125 -1.726562 3.875 -2.6875 C 2.96875 -3.65625 2.269531 -4.753906 1.78125 -5.984375 C 1.289062 -7.210938 1.046875 -8.503906 1.046875 -9.859375 C 1.046875 -11.722656 1.46875 -13.425781 2.3125 -14.96875 C 3.15625 -16.507812 4.351562 -17.742188 5.90625 -18.671875 C 7.46875 -19.609375 9.316406 -20.078125 11.453125 -20.078125 C 13.578125 -20.078125 15.40625 -19.609375 16.9375 -18.671875 C 18.476562 -17.742188 19.625 -16.53125 20.375 -15.03125 L 15.4375 -13.515625 C 15.007812 -14.242188 14.441406 -14.800781 13.734375 -15.1875 C 13.035156 -15.582031 12.257812 -15.78125 11.40625 -15.78125 C 10.457031 -15.78125 9.585938 -15.535156 8.796875 -15.046875 C 8.003906 -14.554688 7.378906 -13.863281 6.921875 -12.96875 C 6.472656 -12.082031 6.25 -11.046875 6.25 -9.859375 C 6.25 -8.710938 6.476562 -7.691406 6.9375 -6.796875 C 7.40625 -5.898438 8.03125 -5.195312 8.8125 -4.6875 C 9.59375 -4.175781 10.457031 -3.921875 11.40625 -3.921875 C 12.007812 -3.921875 12.582031 -4.019531 13.125 -4.21875 C 13.664062 -4.414062 14.148438 -4.691406 14.578125 -5.046875 C 15.003906 -5.398438 15.316406 -5.800781 15.515625 -6.25 L 20.453125 -4.75 C 19.992188 -3.769531 19.332031 -2.890625 18.46875 -2.109375 C 17.601562 -1.328125 16.585938 -0.71875 15.421875 -0.28125 C 14.253906 0.15625 12.941406 0.375 11.484375 0.375 Z M 11.484375 0.375 "/></g></g></g><g fill="#000000" fill-opacity="1"><g transform="translate(262.284958, 92.425734)"><g><path d="M 20.640625 0 L 15.59375 0 L 15.59375 -11.078125 C 15.59375 -12.609375 15.296875 -13.75 14.703125 -14.5 C 14.109375 -15.25 13.300781 -15.625 12.28125 -15.625 C 11.675781 -15.625 11.035156 -15.445312 10.359375 -15.09375 C 9.679688 -14.75 9.070312 -14.269531 8.53125 -13.65625 C 7.988281 -13.039062 7.59375 -12.328125 7.34375 -11.515625 L 7.34375 0 L 2.296875 0 L 2.296875 -27.484375 L 7.34375 -27.484375 L 7.34375 -16.078125 C 8.070312 -17.335938 9.0625 -18.316406 10.3125 -19.015625 C 11.570312 -19.722656 12.941406 -20.078125 14.421875 -20.078125 C 15.703125 -20.078125 16.742188 -19.851562 17.546875 -19.40625 C 18.347656 -18.96875 18.972656 -18.378906 19.421875 -17.640625 C 19.878906 -16.898438 20.195312 -16.070312 20.375 -15.15625 C 20.550781 -14.238281 20.640625 -13.289062 20.640625 -12.3125 Z M 20.640625 0 "/></g></g></g><g fill="#000000" fill-opacity="1"><g transform="translate(285.026953, 92.425734)"><g><path d="M 0.9375 -5.84375 C 0.9375 -7.113281 1.296875 -8.234375 2.015625 -9.203125 C 2.734375 -10.171875 3.726562 -10.914062 5 -11.4375 C 6.28125 -11.96875 7.753906 -12.234375 9.421875 -12.234375 C 10.242188 -12.234375 11.082031 -12.171875 11.9375 -12.046875 C 12.789062 -11.921875 13.53125 -11.722656 14.15625 -11.453125 L 14.15625 -12.5 C 14.15625 -13.757812 13.785156 -14.726562 13.046875 -15.40625 C 12.304688 -16.082031 11.207031 -16.421875 9.75 -16.421875 C 8.675781 -16.421875 7.648438 -16.226562 6.671875 -15.84375 C 5.691406 -15.46875 4.660156 -14.921875 3.578125 -14.203125 L 1.953125 -17.515625 C 3.265625 -18.367188 4.601562 -19.007812 5.96875 -19.4375 C 7.332031 -19.863281 8.769531 -20.078125 10.28125 -20.078125 C 13.09375 -20.078125 15.28125 -19.375 16.84375 -17.96875 C 18.414062 -16.5625 19.203125 -14.550781 19.203125 -11.9375 L 19.203125 -5.65625 C 19.203125 -5.125 19.296875 -4.742188 19.484375 -4.515625 C 19.671875 -4.296875 19.976562 -4.160156 20.40625 -4.109375 L 20.40625 0 C 19.957031 0.0703125 19.550781 0.132812 19.1875 0.1875 C 18.820312 0.238281 18.515625 0.265625 18.265625 0.265625 C 17.253906 0.265625 16.492188 0.0390625 15.984375 -0.40625 C 15.472656 -0.863281 15.15625 -1.421875 15.03125 -2.078125 L 14.90625 -3.09375 C 14.050781 -1.988281 12.984375 -1.132812 11.703125 -0.53125 C 10.429688 0.0703125 9.128906 0.375 7.796875 0.375 C 6.492188 0.375 5.320312 0.101562 4.28125 -0.4375 C 3.238281 -0.976562 2.421875 -1.71875 1.828125 -2.65625 C 1.234375 -3.59375 0.9375 -4.65625 0.9375 -5.84375 Z M 13.21875 -4.8125 C 13.488281 -5.113281 13.710938 -5.414062 13.890625 -5.71875 C 14.066406 -6.019531 14.15625 -6.296875 14.15625 -6.546875 L 14.15625 -8.546875 C 13.550781 -8.796875 12.894531 -8.988281 12.1875 -9.125 C 11.488281 -9.269531 10.828125 -9.34375 10.203125 -9.34375 C 8.898438 -9.34375 7.828125 -9.054688 6.984375 -8.484375 C 6.140625 -7.921875 5.71875 -7.175781 5.71875 -6.25 C 5.71875 -5.75 5.851562 -5.269531 6.125 -4.8125 C 6.40625 -4.363281 6.8125 -4 7.34375 -3.71875 C 7.875 -3.445312 8.5 -3.3125 9.21875 -3.3125 C 9.976562 -3.3125 10.722656 -3.457031 11.453125 -3.75 C 12.179688 -4.039062 12.769531 -4.394531 13.21875 -4.8125 Z M 13.21875 -4.8125 "/></g></g></g><g fill="#000000" fill-opacity="1"><g transform="translate(306.639382, 92.425734)"><g><path d="M 2.296875 0 L 2.296875 -19.734375 L 7.34375 -19.734375 L 7.34375 0 Z M 2.296875 -22.484375 L 2.296875 -27.484375 L 7.34375 -27.484375 L 7.34375 -22.484375 Z M 2.296875 -22.484375 "/></g></g></g><g fill="#000000" fill-opacity="1"><g transform="translate(316.240723, 92.425734)"><g><path d="M 20.640625 0 L 15.59375 0 L 15.59375 -11.078125 C 15.59375 -12.648438 15.316406 -13.800781 14.765625 -14.53125 C 14.210938 -15.257812 13.445312 -15.625 12.46875 -15.625 C 11.789062 -15.625 11.101562 -15.445312 10.40625 -15.09375 C 9.71875 -14.75 9.097656 -14.269531 8.546875 -13.65625 C 7.992188 -13.039062 7.59375 -12.328125 7.34375 -11.515625 L 7.34375 0 L 2.296875 0 L 2.296875 -19.734375 L 6.859375 -19.734375 L 6.859375 -16.078125 C 7.359375 -16.929688 7.992188 -17.648438 8.765625 -18.234375 C 9.546875 -18.828125 10.441406 -19.28125 11.453125 -19.59375 C 12.472656 -19.914062 13.550781 -20.078125 14.6875 -20.078125 C 15.914062 -20.078125 16.925781 -19.851562 17.71875 -19.40625 C 18.507812 -18.96875 19.109375 -18.378906 19.515625 -17.640625 C 19.929688 -16.898438 20.222656 -16.066406 20.390625 -15.140625 C 20.554688 -14.210938 20.640625 -13.269531 20.640625 -12.3125 Z M 20.640625 0 "/></g></g></g><g fill="#f68026" fill-opacity="1"><g transform="translate(338.984942, 92.425734)"><g><path d="M 2.1875 0 L 2.1875 -5.421875 L 6.328125 -5.421875 L 6.328125 0 Z M 2.1875 0 "/></g></g></g></svg>