<svg xmlns="http://www.w3.org/2000/svg" xmlns:xlink="http://www.w3.org/1999/xlink" width="500" zoomAndPan="magnify" viewBox="0 0 375 374.999991" height="500" preserveAspectRatio="xMidYMid meet" version="1.0"><defs><clipPath id="abdd689f54"><path d="M 69.539062 112.644531 L 119.292969 112.644531 L 119.292969 162.398438 L 69.539062 162.398438 Z M 69.539062 112.644531 " clip-rule="nonzero"/></clipPath><clipPath id="d12a46d861"><path d="M 94.417969 112.644531 C 80.675781 112.644531 69.539062 123.785156 69.539062 137.523438 C 69.539062 151.261719 80.675781 162.398438 94.417969 162.398438 C 108.15625 162.398438 119.292969 151.261719 119.292969 137.523438 C 119.292969 123.785156 108.15625 112.644531 94.417969 112.644531 Z M 94.417969 112.644531 " clip-rule="nonzero"/></clipPath><clipPath id="42d76472e1"><path d="M 78.71875 121.71875 L 110.117188 121.71875 L 110.117188 153.113281 L 78.71875 153.113281 Z M 78.71875 121.71875 " clip-rule="nonzero"/></clipPath><clipPath id="c12f6ad2e6"><path d="M 94.417969 121.71875 C 85.746094 121.71875 78.71875 128.746094 78.71875 137.417969 C 78.71875 146.085938 85.746094 153.113281 94.417969 153.113281 C 103.085938 153.113281 110.117188 146.085938 110.117188 137.417969 C 110.117188 128.746094 103.085938 121.71875 94.417969 121.71875 Z M 94.417969 121.71875 " clip-rule="nonzero"/></clipPath><clipPath id="94ee7e8182"><path d="M 255.707031 211.113281 L 305.460938 211.113281 L 305.460938 260.867188 L 255.707031 260.867188 Z M 255.707031 211.113281 " clip-rule="nonzero"/></clipPath><clipPath id="58bf2768de"><path d="M 280.582031 211.113281 C 266.84375 211.113281 255.707031 222.25 255.707031 235.988281 C 255.707031 249.730469 266.84375 260.867188 280.582031 260.867188 C 294.324219 260.867188 305.460938 249.730469 305.460938 235.988281 C 305.460938 222.25 294.324219 211.113281 280.582031 211.113281 Z M 280.582031 211.113281 " clip-rule="nonzero"/></clipPath><clipPath id="0241939138"><path d="M 264.882812 220.183594 L 296.28125 220.183594 L 296.28125 251.582031 L 264.882812 251.582031 Z M 264.882812 220.183594 " clip-rule="nonzero"/></clipPath><clipPath id="0694dca7cb"><path d="M 280.582031 220.183594 C 271.914062 220.183594 264.882812 227.210938 264.882812 235.882812 C 264.882812 244.554688 271.914062 251.582031 280.582031 251.582031 C 289.253906 251.582031 296.28125 244.554688 296.28125 235.882812 C 296.28125 227.210938 289.253906 220.183594 280.582031 220.183594 Z M 280.582031 220.183594 " clip-rule="nonzero"/></clipPath><clipPath id="875b689783"><path d="M 162.703125 26.667969 L 212.457031 26.667969 L 212.457031 76.421875 L 162.703125 76.421875 Z M 162.703125 26.667969 " clip-rule="nonzero"/></clipPath><clipPath id="e9a2758e58"><path d="M 187.578125 26.667969 C 173.839844 26.667969 162.703125 37.804688 162.703125 51.546875 C 162.703125 65.285156 173.839844 76.421875 187.578125 76.421875 C 201.316406 76.421875 212.457031 65.285156 212.457031 51.546875 C 212.457031 37.804688 201.316406 26.667969 187.578125 26.667969 Z M 187.578125 26.667969 " clip-rule="nonzero"/></clipPath><clipPath id="532fd333b5"><path d="M 171.878906 35.738281 L 203.277344 35.738281 L 203.277344 67.136719 L 171.878906 67.136719 Z M 171.878906 35.738281 " clip-rule="nonzero"/></clipPath><clipPath id="2188041324"><path d="M 187.578125 35.738281 C 178.910156 35.738281 171.878906 42.769531 171.878906 51.4375 C 171.878906 60.109375 178.910156 67.136719 187.578125 67.136719 C 196.25 67.136719 203.277344 60.109375 203.277344 51.4375 C 203.277344 42.769531 196.25 35.738281 187.578125 35.738281 Z M 187.578125 35.738281 " clip-rule="nonzero"/></clipPath><clipPath id="976cd64991"><path d="M 161.363281 298.578125 L 211.117188 298.578125 L 211.117188 348.332031 L 161.363281 348.332031 Z M 161.363281 298.578125 " clip-rule="nonzero"/></clipPath><clipPath id="3d2253e82e"><path d="M 186.242188 298.578125 C 172.5 298.578125 161.363281 309.714844 161.363281 323.453125 C 161.363281 337.195312 172.5 348.332031 186.242188 348.332031 C 199.980469 348.332031 211.117188 337.195312 211.117188 323.453125 C 211.117188 309.714844 199.980469 298.578125 186.242188 298.578125 Z M 186.242188 298.578125 " clip-rule="nonzero"/></clipPath><clipPath id="e056a42e58"><path d="M 170.542969 307.648438 L 201.941406 307.648438 L 201.941406 339.046875 L 170.542969 339.046875 Z M 170.542969 307.648438 " clip-rule="nonzero"/></clipPath><clipPath id="39a0cfbb75"><path d="M 186.242188 307.648438 C 177.570312 307.648438 170.542969 314.675781 170.542969 323.347656 C 170.542969 332.019531 177.570312 339.046875 186.242188 339.046875 C 194.910156 339.046875 201.941406 332.019531 201.941406 323.347656 C 201.941406 314.675781 194.910156 307.648438 186.242188 307.648438 Z M 186.242188 307.648438 " clip-rule="nonzero"/></clipPath><clipPath id="e66e2bacd1"><path d="M 69.695312 211.113281 L 119.453125 211.113281 L 119.453125 260.867188 L 69.695312 260.867188 Z M 69.695312 211.113281 " clip-rule="nonzero"/></clipPath><clipPath id="4a28d1ed94"><path d="M 94.574219 211.113281 C 80.835938 211.113281 69.695312 222.25 69.695312 235.988281 C 69.695312 249.730469 80.835938 260.867188 94.574219 260.867188 C 108.3125 260.867188 119.453125 249.730469 119.453125 235.988281 C 119.453125 222.25 108.3125 211.113281 94.574219 211.113281 Z M 94.574219 211.113281 " clip-rule="nonzero"/></clipPath><clipPath id="291671d840"><path d="M 78.875 220.183594 L 110.273438 220.183594 L 110.273438 251.582031 L 78.875 251.582031 Z M 78.875 220.183594 " clip-rule="nonzero"/></clipPath><clipPath id="5e45371735"><path d="M 94.574219 220.183594 C 85.902344 220.183594 78.875 227.210938 78.875 235.882812 C 78.875 244.554688 85.902344 251.582031 94.574219 251.582031 C 103.246094 251.582031 110.273438 244.554688 110.273438 235.882812 C 110.273438 227.210938 103.246094 220.183594 94.574219 220.183594 Z M 94.574219 220.183594 " clip-rule="nonzero"/></clipPath><clipPath id="951a31a9bb"><path d="M 162.703125 211.113281 L 212.457031 211.113281 L 212.457031 260.867188 L 162.703125 260.867188 Z M 162.703125 211.113281 " clip-rule="nonzero"/></clipPath><clipPath id="83af14cc1c"><path d="M 187.578125 211.113281 C 173.839844 211.113281 162.703125 222.25 162.703125 235.988281 C 162.703125 249.730469 173.839844 260.867188 187.578125 260.867188 C 201.316406 260.867188 212.457031 249.730469 212.457031 235.988281 C 212.457031 222.25 201.316406 211.113281 187.578125 211.113281 Z M 187.578125 211.113281 " clip-rule="nonzero"/></clipPath><clipPath id="17f9a15287"><path d="M 171.878906 220.183594 L 203.277344 220.183594 L 203.277344 251.582031 L 171.878906 251.582031 Z M 171.878906 220.183594 " clip-rule="nonzero"/></clipPath><clipPath id="681c2a3d8a"><path d="M 187.578125 220.183594 C 178.910156 220.183594 171.878906 227.210938 171.878906 235.882812 C 171.878906 244.554688 178.910156 251.582031 187.578125 251.582031 C 196.25 251.582031 203.277344 244.554688 203.277344 235.882812 C 203.277344 227.210938 196.25 220.183594 187.578125 220.183594 Z M 187.578125 220.183594 " clip-rule="nonzero"/></clipPath><clipPath id="4099706bea"><path d="M 255.707031 298.578125 L 305.460938 298.578125 L 305.460938 348.332031 L 255.707031 348.332031 Z M 255.707031 298.578125 " clip-rule="nonzero"/></clipPath><clipPath id="942b66f48b"><path d="M 280.582031 298.578125 C 266.84375 298.578125 255.707031 309.714844 255.707031 323.453125 C 255.707031 337.195312 266.84375 348.332031 280.582031 348.332031 C 294.324219 348.332031 305.460938 337.195312 305.460938 323.453125 C 305.460938 309.714844 294.324219 298.578125 280.582031 298.578125 Z M 280.582031 298.578125 " clip-rule="nonzero"/></clipPath><clipPath id="bda5c7267d"><path d="M 264.882812 307.648438 L 296.28125 307.648438 L 296.28125 339.046875 L 264.882812 339.046875 Z M 264.882812 307.648438 " clip-rule="nonzero"/></clipPath><clipPath id="14a0498286"><path d="M 280.582031 307.648438 C 271.914062 307.648438 264.882812 314.675781 264.882812 323.347656 C 264.882812 332.019531 271.914062 339.046875 280.582031 339.046875 C 289.253906 339.046875 296.28125 332.019531 296.28125 323.347656 C 296.28125 314.675781 289.253906 307.648438 280.582031 307.648438 Z M 280.582031 307.648438 " clip-rule="nonzero"/></clipPath><clipPath id="2b28430e89"><path d="M 255.707031 112.644531 L 305.460938 112.644531 L 305.460938 162.398438 L 255.707031 162.398438 Z M 255.707031 112.644531 " clip-rule="nonzero"/></clipPath><clipPath id="282fe93248"><path d="M 280.582031 112.644531 C 266.84375 112.644531 255.707031 123.785156 255.707031 137.523438 C 255.707031 151.261719 266.84375 162.398438 280.582031 162.398438 C 294.324219 162.398438 305.460938 151.261719 305.460938 137.523438 C 305.460938 123.785156 294.324219 112.644531 280.582031 112.644531 Z M 280.582031 112.644531 " clip-rule="nonzero"/></clipPath><clipPath id="e9916f1ca4"><path d="M 264.882812 121.71875 L 296.28125 121.71875 L 296.28125 153.113281 L 264.882812 153.113281 Z M 264.882812 121.71875 " clip-rule="nonzero"/></clipPath><clipPath id="a14acb8c75"><path d="M 280.582031 121.71875 C 271.914062 121.71875 264.882812 128.746094 264.882812 137.417969 C 264.882812 146.085938 271.914062 153.113281 280.582031 153.113281 C 289.253906 153.113281 296.28125 146.085938 296.28125 137.417969 C 296.28125 128.746094 289.253906 121.71875 280.582031 121.71875 Z M 280.582031 121.71875 " clip-rule="nonzero"/></clipPath></defs><g clip-path="url(#abdd689f54)"><g clip-path="url(#d12a46d861)"><path fill="#000000" d="M 69.539062 112.644531 L 119.292969 112.644531 L 119.292969 162.398438 L 69.539062 162.398438 Z M 69.539062 112.644531 " fill-opacity="1" fill-rule="nonzero"/></g></g><g clip-path="url(#42d76472e1)"><g clip-path="url(#c12f6ad2e6)"><path fill="#ffffff" d="M 78.71875 121.71875 L 110.117188 121.71875 L 110.117188 153.113281 L 78.71875 153.113281 Z M 78.71875 121.71875 " fill-opacity="1" fill-rule="nonzero"/></g></g><g clip-path="url(#94ee7e8182)"><g clip-path="url(#58bf2768de)"><path fill="#000000" d="M 255.707031 211.113281 L 305.460938 211.113281 L 305.460938 260.867188 L 255.707031 260.867188 Z M 255.707031 211.113281 " fill-opacity="1" fill-rule="nonzero"/></g></g><g clip-path="url(#0241939138)"><g clip-path="url(#0694dca7cb)"><path fill="#000000" d="M 264.882812 220.183594 L 296.28125 220.183594 L 296.28125 251.582031 L 264.882812 251.582031 Z M 264.882812 220.183594 " fill-opacity="1" fill-rule="nonzero"/></g></g><g clip-path="url(#875b689783)"><g clip-path="url(#e9a2758e58)"><path fill="#000000" d="M 162.703125 26.667969 L 212.457031 26.667969 L 212.457031 76.421875 L 162.703125 76.421875 Z M 162.703125 26.667969 " fill-opacity="1" fill-rule="nonzero"/></g></g><g clip-path="url(#532fd333b5)"><g clip-path="url(#2188041324)"><path fill="#ffffff" d="M 171.878906 35.738281 L 203.277344 35.738281 L 203.277344 67.136719 L 171.878906 67.136719 Z M 171.878906 35.738281 " fill-opacity="1" fill-rule="nonzero"/></g></g><g clip-path="url(#976cd64991)"><g clip-path="url(#3d2253e82e)"><path fill="#000000" d="M 161.363281 298.578125 L 211.117188 298.578125 L 211.117188 348.332031 L 161.363281 348.332031 Z M 161.363281 298.578125 " fill-opacity="1" fill-rule="nonzero"/></g></g><g clip-path="url(#e056a42e58)"><g clip-path="url(#39a0cfbb75)"><path fill="#ffffff" d="M 170.542969 307.648438 L 201.941406 307.648438 L 201.941406 339.046875 L 170.542969 339.046875 Z M 170.542969 307.648438 " fill-opacity="1" fill-rule="nonzero"/></g></g><g clip-path="url(#e66e2bacd1)"><g clip-path="url(#4a28d1ed94)"><path fill="#000000" d="M 69.695312 211.113281 L 119.453125 211.113281 L 119.453125 260.867188 L 69.695312 260.867188 Z M 69.695312 211.113281 " fill-opacity="1" fill-rule="nonzero"/></g></g><g clip-path="url(#291671d840)"><g clip-path="url(#5e45371735)"><path fill="#ffffff" d="M 78.875 220.183594 L 110.273438 220.183594 L 110.273438 251.582031 L 78.875 251.582031 Z M 78.875 220.183594 " fill-opacity="1" fill-rule="nonzero"/></g></g><g clip-path="url(#951a31a9bb)"><g clip-path="url(#83af14cc1c)"><path fill="#000000" d="M 162.703125 211.113281 L 212.457031 211.113281 L 212.457031 260.867188 L 162.703125 260.867188 Z M 162.703125 211.113281 " fill-opacity="1" fill-rule="nonzero"/></g></g><g clip-path="url(#17f9a15287)"><g clip-path="url(#681c2a3d8a)"><path fill="#ffffff" d="M 171.878906 220.183594 L 203.277344 220.183594 L 203.277344 251.582031 L 171.878906 251.582031 Z M 171.878906 220.183594 " fill-opacity="1" fill-rule="nonzero"/></g></g><g clip-path="url(#4099706bea)"><g clip-path="url(#942b66f48b)"><path fill="#000000" d="M 255.707031 298.578125 L 305.460938 298.578125 L 305.460938 348.332031 L 255.707031 348.332031 Z M 255.707031 298.578125 " fill-opacity="1" fill-rule="nonzero"/></g></g><g clip-path="url(#bda5c7267d)"><g clip-path="url(#14a0498286)"><path fill="#ffffff" d="M 264.882812 307.648438 L 296.28125 307.648438 L 296.28125 339.046875 L 264.882812 339.046875 Z M 264.882812 307.648438 " fill-opacity="1" fill-rule="nonzero"/></g></g><g clip-path="url(#2b28430e89)"><g clip-path="url(#282fe93248)"><path fill="#000000" d="M 255.707031 112.644531 L 305.460938 112.644531 L 305.460938 162.398438 L 255.707031 162.398438 Z M 255.707031 112.644531 " fill-opacity="1" fill-rule="nonzero"/></g></g><g clip-path="url(#e9916f1ca4)"><g clip-path="url(#a14acb8c75)"><path fill="#ffffff" d="M 264.882812 121.71875 L 296.28125 121.71875 L 296.28125 153.113281 L 264.882812 153.113281 Z M 264.882812 121.71875 " fill-opacity="1" fill-rule="nonzero"/></g></g><path stroke-linecap="butt" transform="matrix(-0.550727, -0.509116, 0.509116, -0.550727, 252.905407, 117.553792)" fill="none" stroke-linejoin="miter" d="M -0.000228275 5.50267 L 78.530738 5.501004 " stroke="#000000" stroke-width="11" stroke-opacity="1" stroke-miterlimit="4"/><path stroke-linecap="butt" transform="matrix(-0.551157, 0.508651, -0.508651, -0.551157, 165.494715, 77.537251)" fill="none" stroke-linejoin="miter" d="M 0.00352299 5.499761 L 78.75821 5.499912 " stroke="#000000" stroke-width="11" stroke-opacity="1" stroke-miterlimit="4"/><path stroke-linecap="butt" transform="matrix(0.00120023, 0.749999, -0.749999, 0.00120023, 98.577288, 162.397825)" fill="none" stroke-linejoin="miter" d="M 0.00243298 5.498896 L 64.950433 5.498665 " stroke="#000000" stroke-width="11" stroke-opacity="1" stroke-miterlimit="4"/><path stroke-linecap="butt" transform="matrix(0.542618, 0.51775, -0.51775, 0.542618, 122.298848, 256.743439)" fill="none" stroke-linejoin="miter" d="M 0.000661694 5.497016 L 77.240104 5.499657 " stroke="#000000" stroke-width="11" stroke-opacity="1" stroke-miterlimit="4"/><path stroke-linecap="butt" transform="matrix(0.75, 0.000000000000000739, -0.000000000000000739, 0.75, 212.456256, 231.864198)" fill="none" stroke-linejoin="miter" d="M 0.00103347 5.498778 L 57.667704 5.498778 " stroke="#000000" stroke-width="11" stroke-opacity="1" stroke-miterlimit="4"/><path stroke-linecap="butt" transform="matrix(0, 0.75, -0.75, 0, 284.702652, 260.872308)" fill="none" stroke-linejoin="miter" d="M -0.00161856 5.49937 L 50.279635 5.49937 " stroke="#000000" stroke-width="11" stroke-opacity="1" stroke-miterlimit="4"/><path stroke-linecap="butt" transform="matrix(-0.549997, 0.509905, -0.509905, -0.549997, 258.506179, 262.079836)" fill="none" stroke-linejoin="miter" d="M -0.00154072 5.49887 L 81.068133 5.502304 " stroke="#000000" stroke-width="11" stroke-opacity="1" stroke-miterlimit="4"/></svg>