<svg width="100" height="1129" viewBox="0 0 100 1129" fill="none" xmlns="http://www.w3.org/2000/svg">
<mask id="path-1-inside-1_172_2" fill="white">
<path fill-rule="evenodd" clip-rule="evenodd" d="M23.0755 20.0381C32.072 19.5389 40.0809 23.9826 44.7125 30.8632L44.7075 30.8632C47.9009 35.6071 51.6077 39.9775 55.9272 43.7094L67.2322 43.7094C67.6562 43.7094 67.9999 44.0532 67.9999 44.4772C67.9999 44.9012 67.6562 45.245 67.2322 45.245L55.9626 45.245C51.722 49.0009 48.0017 53.3074 44.8705 58.0347C40.4957 64.6434 32.9904 68.9586 24.4531 68.9586C10.6967 68.9586 -0.408185 57.5849 0.0115188 43.7149C0.396658 31.1153 10.5041 20.74 23.0755 20.0381Z"/>
</mask>
<path fill-rule="evenodd" clip-rule="evenodd" d="M23.0755 20.0381C32.072 19.5389 40.0809 23.9826 44.7125 30.8632L44.7075 30.8632C47.9009 35.6071 51.6077 39.9775 55.9272 43.7094L67.2322 43.7094C67.6562 43.7094 67.9999 44.0532 67.9999 44.4772C67.9999 44.9012 67.6562 45.245 67.2322 45.245L55.9626 45.245C51.722 49.0009 48.0017 53.3074 44.8705 58.0347C40.4957 64.6434 32.9904 68.9586 24.4531 68.9586C10.6967 68.9586 -0.408185 57.5849 0.0115188 43.7149C0.396658 31.1153 10.5041 20.74 23.0755 20.0381Z" fill="white" fill-opacity="0.1"/>
<path d="M44.7125 30.8632L45.3494 30.4345L46.1548 31.631L44.7125 31.631L44.7125 30.8632ZM23.0755 20.0381L23.0327 19.2716L23.0329 19.2716L23.0755 20.0381ZM44.7075 30.8632L44.0706 31.292L43.2652 30.0955L44.7075 30.0955L44.7075 30.8632ZM55.9272 43.7094L55.9272 44.4772L55.6415 44.4772L55.4253 44.2904L55.9272 43.7094ZM67.2322 45.245L67.2322 44.4772L67.2322 45.245ZM55.9626 45.245L55.4536 44.6702L55.6715 44.4772L55.9626 44.4772L55.9626 45.245ZM44.8705 58.0347L44.2303 57.6109L44.2304 57.6107L44.8705 58.0347ZM0.0115188 43.7149L-0.755884 43.6917L-0.755877 43.6915L0.0115188 43.7149ZM44.0756 31.2919C39.5857 24.6218 31.8279 20.3214 23.118 20.8047L23.0329 19.2716C32.3161 18.7564 40.5761 23.3434 45.3494 30.4345L44.0756 31.2919ZM44.7075 30.0955L44.7125 30.0955L44.7125 31.631L44.7075 31.631L44.7075 30.0955ZM55.4253 44.2904C51.0459 40.5068 47.2953 36.0824 44.0706 31.292L45.3444 30.4345C48.5064 35.1317 52.1694 39.4483 56.4291 43.1285L55.4253 44.2904ZM67.2322 44.4772L55.9272 44.4772L55.9272 42.9417L67.2322 42.9417L67.2322 44.4772ZM67.2322 44.4772L67.2322 42.9417C68.0802 42.9417 68.7677 43.6292 68.7677 44.4772L67.2322 44.4772ZM67.2322 44.4772L67.2322 44.4772L68.7677 44.4772C68.7677 45.3252 68.0802 46.0127 67.2322 46.0127L67.2322 44.4772ZM55.9626 44.4772L67.2322 44.4772L67.2322 46.0127L55.9626 46.0127L55.9626 44.4772ZM44.2304 57.6107C47.3976 52.829 51.1617 48.4715 55.4536 44.6702L56.4716 45.8197C52.2823 49.5302 48.6057 53.7858 45.5105 58.4586L44.2304 57.6107ZM24.4531 68.1909C32.7252 68.1909 39.9934 64.0112 44.2303 57.6109L45.5107 58.4585C40.9979 65.2756 33.2555 69.7264 24.4531 69.7264L24.4531 68.1909ZM0.778922 43.7381C0.372331 57.1747 11.1294 68.1909 24.4531 68.1909L24.4531 69.7264C10.264 69.7264 -1.1887 57.995 -0.755884 43.6917L0.778922 43.7381ZM23.1183 20.8047C10.9453 21.4844 1.1519 31.5363 0.778914 43.7384L-0.755877 43.6915C-0.358587 30.6944 10.0629 19.9957 23.0327 19.2716L23.1183 20.8047Z" fill="url(#paint0_linear_172_2)" mask="url(#path-1-inside-1_172_2)"/>
<path d="M17.6046 34.7273H19.3375V39.7557C19.3352 40.2268 19.2227 40.6387 19.0002 40.9915C18.7776 41.3419 18.4699 41.6141 18.0769 41.8082C17.6863 42.0024 17.2341 42.0994 16.7203 42.0994C16.2658 42.0994 15.8527 42.0201 15.481 41.8615C15.1117 41.7029 14.8169 41.4567 14.5968 41.1229C14.379 40.7891 14.2712 40.3617 14.2736 39.8409H16.0243C16.0314 40.0279 16.0669 40.1877 16.1309 40.3203C16.1971 40.4505 16.2883 40.5488 16.4043 40.6151C16.5203 40.6813 16.6588 40.7145 16.8198 40.7145C16.9879 40.7145 17.1299 40.679 17.2459 40.608C17.3619 40.5346 17.4495 40.4268 17.5087 40.2848C17.5703 40.1428 17.6022 39.9664 17.6046 39.7557V34.7273ZM22.0142 42H20.125L22.5788 34.7273H24.919L27.3729 42H25.4837L23.7756 36.5597H23.7188L22.0142 42ZM21.7621 39.1378H25.7109V40.473H21.7621V39.1378ZM34.3455 34.7273V42H32.854L29.9599 37.8026H29.9137V42H28.1559V34.7273H29.6687L32.5309 38.9176H32.5913V34.7273H34.3455ZM11.7794 54V52.7358L14.4321 50.4134C14.6309 50.2334 14.8002 50.0689 14.9399 49.9197C15.0796 49.7682 15.1861 49.6167 15.2595 49.4652C15.3329 49.3113 15.3696 49.1444 15.3696 48.9645C15.3696 48.7633 15.3258 48.5916 15.2382 48.4496C15.1506 48.3052 15.0299 48.1939 14.876 48.1158C14.7221 48.0376 14.5457 47.9986 14.3469 47.9986C14.1456 47.9986 13.9693 48.04 13.8177 48.1229C13.6662 48.2034 13.5479 48.3205 13.4626 48.4744C13.3798 48.6283 13.3383 48.8153 13.3383 49.0355H11.6729C11.6729 48.5407 11.7841 48.1134 12.0067 47.7536C12.2292 47.3937 12.5417 47.1167 12.9442 46.9226C13.349 46.7261 13.8189 46.6278 14.354 46.6278C14.9056 46.6278 15.385 46.7202 15.7922 46.9048C16.1994 47.0895 16.5142 47.3475 16.7368 47.679C16.9617 48.008 17.0741 48.3904 17.0741 48.826C17.0741 49.103 17.0185 49.3776 16.9072 49.6499C16.796 49.9221 16.5959 50.2228 16.3071 50.5518C16.0206 50.8809 15.6134 51.2751 15.0855 51.7344L14.2155 52.5369V52.5831H17.1629V54H11.7794ZM21.1642 54.1776C20.5297 54.1776 19.9828 54.0272 19.5235 53.7266C19.0642 53.4235 18.7103 52.9891 18.4617 52.4233C18.2132 51.8551 18.0901 51.1721 18.0924 50.3743C18.0948 49.5765 18.2191 48.8994 18.4653 48.343C18.7139 47.7843 19.0666 47.3594 19.5235 47.0682C19.9828 46.7746 20.5297 46.6278 21.1642 46.6278C21.7986 46.6278 22.3455 46.7746 22.8048 47.0682C23.2664 47.3594 23.6215 47.7843 23.8701 48.343C24.1187 48.9018 24.2418 49.5788 24.2394 50.3743C24.2394 51.1745 24.1151 51.8587 23.8666 52.4268C23.618 52.995 23.2641 53.4295 22.8048 53.7301C22.3479 54.0284 21.801 54.1776 21.1642 54.1776ZM21.1642 52.7393C21.5429 52.7393 21.8495 52.5464 22.0839 52.1605C22.3183 51.7723 22.4343 51.1768 22.4319 50.3743C22.4319 49.8487 22.3786 49.4155 22.2721 49.0746C22.1656 48.7313 22.0176 48.4756 21.8282 48.3075C21.6388 48.1394 21.4175 48.0554 21.1642 48.0554C20.7877 48.0554 20.4835 48.246 20.2515 48.6271C20.0195 49.0059 19.9023 49.5883 19.8999 50.3743C19.8976 50.907 19.9485 51.3485 20.0526 51.6989C20.1592 52.0492 20.3083 52.3108 20.5001 52.4837C20.6919 52.6541 20.9132 52.7393 21.1642 52.7393ZM25.2462 54V52.7358L27.8989 50.4134C28.0977 50.2334 28.267 50.0689 28.4067 49.9197C28.5464 49.7682 28.6529 49.6167 28.7263 49.4652C28.7997 49.3113 28.8364 49.1444 28.8364 48.9645C28.8364 48.7633 28.7926 48.5916 28.705 48.4496C28.6174 48.3052 28.4967 48.1939 28.3428 48.1158C28.1889 48.0376 28.0125 47.9986 27.8137 47.9986C27.6124 47.9986 27.436 48.04 27.2845 48.1229C27.133 48.2034 27.0146 48.3205 26.9294 48.4744C26.8466 48.6283 26.8051 48.8153 26.8051 49.0355H25.1396C25.1396 48.5407 25.2509 48.1134 25.4735 47.7536C25.696 47.3937 26.0085 47.1167 26.411 46.9226C26.8158 46.7261 27.2857 46.6278 27.8208 46.6278C28.3724 46.6278 28.8518 46.7202 29.259 46.9048C29.6662 47.0895 29.981 47.3475 30.2036 47.679C30.4285 48.008 30.5409 48.3904 30.5409 48.826C30.5409 49.103 30.4853 49.3776 30.374 49.6499C30.2628 49.9221 30.0627 50.2228 29.7739 50.5518C29.4874 50.8809 29.0802 51.2751 28.5523 51.7344L27.6823 52.5369V52.5831H30.6297V54H25.2462ZM34.3895 54.0994C33.8355 54.0994 33.3443 54.0047 32.9157 53.8153C32.4896 53.6236 32.1534 53.3596 31.9072 53.0234C31.661 52.6873 31.5355 52.3002 31.5308 51.8622H33.2993C33.3064 52.0208 33.3573 52.1617 33.452 52.2848C33.5467 52.4055 33.6757 52.5002 33.839 52.5689C34.0024 52.6375 34.1882 52.6719 34.3966 52.6719C34.6049 52.6719 34.7884 52.6352 34.947 52.5618C35.108 52.486 35.2335 52.383 35.3234 52.2528C35.4134 52.1203 35.4572 51.9687 35.4548 51.7983C35.4572 51.6278 35.4086 51.4763 35.3092 51.3438C35.2098 51.2112 35.0689 51.1082 34.8866 51.0348C34.7067 50.9614 34.4936 50.9247 34.2474 50.9247H33.5407V49.6747H34.2474C34.4629 49.6747 34.6523 49.6392 34.8156 49.5682C34.9813 49.4972 35.1104 49.3977 35.2027 49.2699C35.295 49.1397 35.34 48.9905 35.3376 48.8224C35.34 48.6591 35.3009 48.5159 35.2204 48.3928C35.1423 48.2673 35.0322 48.1702 34.8902 48.1016C34.7505 48.0329 34.5883 47.9986 34.4037 47.9986C34.2095 47.9986 34.0332 48.0329 33.8746 48.1016C33.7183 48.1702 33.594 48.2673 33.5017 48.3928C33.4094 48.5182 33.3608 48.6638 33.3561 48.8295H31.6764C31.6811 48.3963 31.8019 48.0152 32.0386 47.6861C32.2754 47.3546 32.5973 47.0954 33.0045 46.9084C33.4141 46.7214 33.8805 46.6278 34.4037 46.6278C34.9245 46.6278 35.3826 46.719 35.778 46.9013C36.1733 47.0836 36.4811 47.3321 36.7013 47.647C36.9214 47.9595 37.0315 48.3134 37.0315 48.7088C37.0339 49.1184 36.9001 49.4557 36.6302 49.7209C36.3627 49.986 36.0183 50.1494 35.5969 50.2109V50.2678C36.1603 50.334 36.5853 50.5163 36.8717 50.8146C37.1605 51.1129 37.3038 51.4858 37.3014 51.9332C37.3014 52.3546 37.1771 52.7287 36.9285 53.0554C36.6823 53.3797 36.339 53.6354 35.8987 53.8224C35.4607 54.0071 34.9577 54.0994 34.3895 54.0994Z" fill="white"/>
<mask id="path-4-inside-2_172_2" fill="white">
<path fill-rule="evenodd" clip-rule="evenodd" d="M23.0755 200.038C32.072 199.539 40.0809 203.983 44.7125 210.863L44.7075 210.863C47.9009 215.607 51.6077 219.978 55.9272 223.709L67.2322 223.709C67.6562 223.709 67.9999 224.053 67.9999 224.477C67.9999 224.901 67.6562 225.245 67.2322 225.245L55.9626 225.245C51.722 229.001 48.0017 233.307 44.8705 238.035C40.4957 244.643 32.9904 248.959 24.4531 248.959C10.6967 248.959 -0.408185 237.585 0.0115188 223.715C0.396658 211.115 10.5041 200.74 23.0755 200.038Z"/>
</mask>
<path fill-rule="evenodd" clip-rule="evenodd" d="M23.0755 200.038C32.072 199.539 40.0809 203.983 44.7125 210.863L44.7075 210.863C47.9009 215.607 51.6077 219.978 55.9272 223.709L67.2322 223.709C67.6562 223.709 67.9999 224.053 67.9999 224.477C67.9999 224.901 67.6562 225.245 67.2322 225.245L55.9626 225.245C51.722 229.001 48.0017 233.307 44.8705 238.035C40.4957 244.643 32.9904 248.959 24.4531 248.959C10.6967 248.959 -0.408185 237.585 0.0115188 223.715C0.396658 211.115 10.5041 200.74 23.0755 200.038Z" fill="white" fill-opacity="0.1"/>
<path d="M44.7125 210.863L45.3494 210.435L46.1548 211.631L44.7125 211.631L44.7125 210.863ZM23.0755 200.038L23.0327 199.272L23.0329 199.272L23.0755 200.038ZM44.7075 210.863L44.0706 211.292L43.2652 210.095L44.7075 210.095L44.7075 210.863ZM55.9272 223.709L55.9272 224.477L55.6415 224.477L55.4253 224.29L55.9272 223.709ZM67.2322 225.245L67.2322 224.477L67.2322 225.245ZM55.9626 225.245L55.4536 224.67L55.6715 224.477L55.9626 224.477L55.9626 225.245ZM44.8705 238.035L44.2303 237.611L44.2304 237.611L44.8705 238.035ZM0.0115188 223.715L-0.755884 223.692L-0.755877 223.691L0.0115188 223.715ZM44.0756 211.292C39.5857 204.622 31.8279 200.321 23.118 200.805L23.0329 199.272C32.3161 198.756 40.5761 203.343 45.3494 210.435L44.0756 211.292ZM44.7075 210.095L44.7125 210.095L44.7125 211.631L44.7075 211.631L44.7075 210.095ZM55.4253 224.29C51.0459 220.507 47.2953 216.082 44.0706 211.292L45.3444 210.434C48.5064 215.132 52.1694 219.448 56.4291 223.128L55.4253 224.29ZM67.2322 224.477L55.9272 224.477L55.9272 222.942L67.2322 222.942L67.2322 224.477ZM67.2322 224.477L67.2322 222.942C68.0802 222.942 68.7677 223.629 68.7677 224.477L67.2322 224.477ZM67.2322 224.477L67.2322 224.477L68.7677 224.477C68.7677 225.325 68.0802 226.013 67.2322 226.013L67.2322 224.477ZM55.9626 224.477L67.2322 224.477L67.2322 226.013L55.9626 226.013L55.9626 224.477ZM44.2304 237.611C47.3976 232.829 51.1617 228.471 55.4536 224.67L56.4716 225.82C52.2823 229.53 48.6057 233.786 45.5105 238.459L44.2304 237.611ZM24.4531 248.191C32.7252 248.191 39.9934 244.011 44.2303 237.611L45.5107 238.458C40.9979 245.276 33.2555 249.726 24.4531 249.726L24.4531 248.191ZM0.778922 223.738C0.372331 237.175 11.1294 248.191 24.4531 248.191L24.4531 249.726C10.264 249.726 -1.1887 237.995 -0.755884 223.692L0.778922 223.738ZM23.1183 200.805C10.9453 201.484 1.1519 211.536 0.778914 223.738L-0.755877 223.691C-0.358587 210.694 10.0629 199.996 23.0327 199.272L23.1183 200.805Z" fill="url(#paint1_linear_172_2)" mask="url(#path-4-inside-2_172_2)"/>
<path d="M15.7194 222V214.727H20.6839V216.155H17.4772V217.646H20.3678V219.077H17.4772V222H15.7194ZM21.569 222V214.727H26.64V216.155H23.3268V217.646H26.3808V219.077H23.3268V220.572H26.64V222H21.569ZM27.7409 222V214.727H30.7735C31.318 214.727 31.7738 214.804 32.1407 214.958C32.51 215.112 32.787 215.327 32.9717 215.604C33.1587 215.881 33.2522 216.202 33.2522 216.567C33.2522 216.844 33.1942 217.091 33.0782 217.309C32.9622 217.524 32.8024 217.703 32.5988 217.845C32.3952 217.987 32.1597 218.087 31.8921 218.143V218.214C32.1857 218.229 32.4568 218.308 32.7053 218.452C32.9563 218.597 33.1575 218.798 33.309 219.056C33.4606 219.312 33.5363 219.615 33.5363 219.965C33.5363 220.356 33.4369 220.705 33.238 221.013C33.0392 221.318 32.7515 221.56 32.3751 221.737C31.9987 221.912 31.5418 222 31.0044 222H27.7409ZM29.4987 220.583H30.5853C30.9665 220.583 31.247 220.511 31.4269 220.366C31.6092 220.222 31.7004 220.021 31.7004 219.763C31.7004 219.576 31.6566 219.415 31.569 219.28C31.4814 219.143 31.3571 219.037 31.1961 218.964C31.0351 218.888 30.8422 218.85 30.6173 218.85H29.4987V220.583ZM29.4987 217.717H30.4717C30.6634 217.717 30.8339 217.685 30.983 217.621C31.1322 217.558 31.2482 217.465 31.3311 217.344C31.4163 217.224 31.4589 217.078 31.4589 216.908C31.4589 216.664 31.3725 216.472 31.1997 216.332C31.0268 216.193 30.7936 216.123 30.5001 216.123H29.4987V217.717ZM11.7794 234V232.736L14.4321 230.413C14.6309 230.233 14.8002 230.069 14.9399 229.92C15.0796 229.768 15.1861 229.617 15.2595 229.465C15.3329 229.311 15.3696 229.144 15.3696 228.964C15.3696 228.763 15.3258 228.592 15.2382 228.45C15.1506 228.305 15.0299 228.194 14.876 228.116C14.7221 228.038 14.5457 227.999 14.3469 227.999C14.1456 227.999 13.9693 228.04 13.8177 228.123C13.6662 228.203 13.5479 228.321 13.4626 228.474C13.3798 228.628 13.3383 228.815 13.3383 229.036H11.6729C11.6729 228.541 11.7841 228.113 12.0067 227.754C12.2292 227.394 12.5417 227.117 12.9442 226.923C13.349 226.726 13.8189 226.628 14.354 226.628C14.9056 226.628 15.385 226.72 15.7922 226.905C16.1994 227.089 16.5142 227.348 16.7368 227.679C16.9617 228.008 17.0741 228.39 17.0741 228.826C17.0741 229.103 17.0185 229.378 16.9072 229.65C16.796 229.922 16.5959 230.223 16.3071 230.552C16.0206 230.881 15.6134 231.275 15.0855 231.734L14.2155 232.537V232.583H17.1629V234H11.7794ZM21.1642 234.178C20.5297 234.178 19.9828 234.027 19.5235 233.727C19.0642 233.424 18.7103 232.989 18.4617 232.423C18.2132 231.855 18.0901 231.172 18.0924 230.374C18.0948 229.576 18.2191 228.899 18.4653 228.343C18.7139 227.784 19.0666 227.359 19.5235 227.068C19.9828 226.775 20.5297 226.628 21.1642 226.628C21.7986 226.628 22.3455 226.775 22.8048 227.068C23.2664 227.359 23.6215 227.784 23.8701 228.343C24.1187 228.902 24.2418 229.579 24.2394 230.374C24.2394 231.174 24.1151 231.859 23.8666 232.427C23.618 232.995 23.2641 233.429 22.8048 233.73C22.3479 234.028 21.801 234.178 21.1642 234.178ZM21.1642 232.739C21.5429 232.739 21.8495 232.546 22.0839 232.161C22.3183 231.772 22.4343 231.177 22.4319 230.374C22.4319 229.849 22.3786 229.415 22.2721 229.075C22.1656 228.731 22.0176 228.476 21.8282 228.308C21.6388 228.139 21.4175 228.055 21.1642 228.055C20.7877 228.055 20.4835 228.246 20.2515 228.627C20.0195 229.006 19.9023 229.588 19.8999 230.374C19.8976 230.907 19.9485 231.348 20.0526 231.699C20.1592 232.049 20.3083 232.311 20.5001 232.484C20.6919 232.654 20.9132 232.739 21.1642 232.739ZM25.2462 234V232.736L27.8989 230.413C28.0977 230.233 28.267 230.069 28.4067 229.92C28.5464 229.768 28.6529 229.617 28.7263 229.465C28.7997 229.311 28.8364 229.144 28.8364 228.964C28.8364 228.763 28.7926 228.592 28.705 228.45C28.6174 228.305 28.4967 228.194 28.3428 228.116C28.1889 228.038 28.0125 227.999 27.8137 227.999C27.6124 227.999 27.436 228.04 27.2845 228.123C27.133 228.203 27.0146 228.321 26.9294 228.474C26.8466 228.628 26.8051 228.815 26.8051 229.036H25.1396C25.1396 228.541 25.2509 228.113 25.4735 227.754C25.696 227.394 26.0085 227.117 26.411 226.923C26.8158 226.726 27.2857 226.628 27.8208 226.628C28.3724 226.628 28.8518 226.72 29.259 226.905C29.6662 227.089 29.981 227.348 30.2036 227.679C30.4285 228.008 30.5409 228.39 30.5409 228.826C30.5409 229.103 30.4853 229.378 30.374 229.65C30.2628 229.922 30.0627 230.223 29.7739 230.552C29.4874 230.881 29.0802 231.275 28.5523 231.734L27.6823 232.537V232.583H30.6297V234H25.2462ZM34.3895 234.099C33.8355 234.099 33.3443 234.005 32.9157 233.815C32.4896 233.624 32.1534 233.36 31.9072 233.023C31.661 232.687 31.5355 232.3 31.5308 231.862H33.2993C33.3064 232.021 33.3573 232.162 33.452 232.285C33.5467 232.406 33.6757 232.5 33.839 232.569C34.0024 232.638 34.1882 232.672 34.3966 232.672C34.6049 232.672 34.7884 232.635 34.947 232.562C35.108 232.486 35.2335 232.383 35.3234 232.253C35.4134 232.12 35.4572 231.969 35.4548 231.798C35.4572 231.628 35.4086 231.476 35.3092 231.344C35.2098 231.211 35.0689 231.108 34.8866 231.035C34.7067 230.961 34.4936 230.925 34.2474 230.925H33.5407V229.675H34.2474C34.4629 229.675 34.6523 229.639 34.8156 229.568C34.9813 229.497 35.1104 229.398 35.2027 229.27C35.295 229.14 35.34 228.991 35.3376 228.822C35.34 228.659 35.3009 228.516 35.2204 228.393C35.1423 228.267 35.0322 228.17 34.8902 228.102C34.7505 228.033 34.5883 227.999 34.4037 227.999C34.2095 227.999 34.0332 228.033 33.8746 228.102C33.7183 228.17 33.594 228.267 33.5017 228.393C33.4094 228.518 33.3608 228.664 33.3561 228.83H31.6764C31.6811 228.396 31.8019 228.015 32.0386 227.686C32.2754 227.355 32.5973 227.095 33.0045 226.908C33.4141 226.721 33.8805 226.628 34.4037 226.628C34.9245 226.628 35.3826 226.719 35.778 226.901C36.1733 227.084 36.4811 227.332 36.7013 227.647C36.9214 227.96 37.0315 228.313 37.0315 228.709C37.0339 229.118 36.9001 229.456 36.6302 229.721C36.3627 229.986 36.0183 230.149 35.5969 230.211V230.268C36.1603 230.334 36.5853 230.516 36.8717 230.815C37.1605 231.113 37.3038 231.486 37.3014 231.933C37.3014 232.355 37.1771 232.729 36.9285 233.055C36.6823 233.38 36.339 233.635 35.8987 233.822C35.4607 234.007 34.9577 234.099 34.3895 234.099Z" fill="white"/>
<mask id="path-7-inside-3_172_2" fill="white">
<path fill-rule="evenodd" clip-rule="evenodd" d="M23.0755 381.038C32.072 380.539 40.0809 384.983 44.7125 391.863L44.7075 391.863C47.9009 396.607 51.6077 400.978 55.9272 404.709L67.2322 404.709C67.6562 404.709 67.9999 405.053 67.9999 405.477C67.9999 405.901 67.6562 406.245 67.2322 406.245L55.9626 406.245C51.722 410.001 48.0017 414.307 44.8705 419.035C40.4957 425.643 32.9904 429.959 24.4531 429.959C10.6967 429.959 -0.408182 418.585 0.011521 404.715C0.396661 392.115 10.5041 381.74 23.0755 381.038Z"/>
</mask>
<path fill-rule="evenodd" clip-rule="evenodd" d="M23.0755 381.038C32.072 380.539 40.0809 384.983 44.7125 391.863L44.7075 391.863C47.9009 396.607 51.6077 400.978 55.9272 404.709L67.2322 404.709C67.6562 404.709 67.9999 405.053 67.9999 405.477C67.9999 405.901 67.6562 406.245 67.2322 406.245L55.9626 406.245C51.722 410.001 48.0017 414.307 44.8705 419.035C40.4957 425.643 32.9904 429.959 24.4531 429.959C10.6967 429.959 -0.408182 418.585 0.011521 404.715C0.396661 392.115 10.5041 381.74 23.0755 381.038Z" fill="white" fill-opacity="0.1"/>
<path d="M44.7125 391.863L45.3494 391.435L46.1548 392.631L44.7125 392.631L44.7125 391.863ZM23.0755 381.038L23.0327 380.272L23.0329 380.272L23.0755 381.038ZM44.7075 391.863L44.0706 392.292L43.2652 391.095L44.7075 391.095L44.7075 391.863ZM55.9272 404.709L55.9272 405.477L55.6415 405.477L55.4253 405.29L55.9272 404.709ZM67.2322 406.245L67.2322 405.477L67.2322 406.245ZM55.9626 406.245L55.4536 405.67L55.6715 405.477L55.9626 405.477L55.9626 406.245ZM44.8705 419.035L44.2303 418.611L44.2304 418.611L44.8705 419.035ZM0.011521 404.715L-0.755882 404.692L-0.755875 404.691L0.011521 404.715ZM44.0756 392.292C39.5857 385.622 31.8279 381.321 23.118 381.805L23.0329 380.272C32.3161 379.756 40.5761 384.343 45.3494 391.435L44.0756 392.292ZM44.7075 391.095L44.7125 391.095L44.7125 392.631L44.7075 392.631L44.7075 391.095ZM55.4253 405.29C51.0459 401.507 47.2953 397.082 44.0706 392.292L45.3444 391.434C48.5064 396.132 52.1694 400.448 56.4291 404.128L55.4253 405.29ZM67.2322 405.477L55.9272 405.477L55.9272 403.942L67.2322 403.942L67.2322 405.477ZM67.2322 405.477L67.2322 403.942C68.0802 403.942 68.7677 404.629 68.7677 405.477L67.2322 405.477ZM67.2322 405.477L67.2322 405.477L68.7677 405.477C68.7677 406.325 68.0802 407.013 67.2322 407.013L67.2322 405.477ZM55.9626 405.477L67.2322 405.477L67.2322 407.013L55.9626 407.013L55.9626 405.477ZM44.2304 418.611C47.3976 413.829 51.1617 409.472 55.4536 405.67L56.4717 406.82C52.2823 410.53 48.6057 414.786 45.5105 419.459L44.2304 418.611ZM24.4531 429.191C32.7252 429.191 39.9934 425.011 44.2303 418.611L45.5107 419.458C40.9979 426.276 33.2555 430.726 24.4531 430.726L24.4531 429.191ZM0.778924 404.738C0.372333 418.175 11.1294 429.191 24.4531 429.191L24.4531 430.726C10.264 430.726 -1.1887 418.995 -0.755882 404.692L0.778924 404.738ZM23.1183 381.805C10.9453 382.484 1.15191 392.536 0.778917 404.738L-0.755875 404.691C-0.358585 391.694 10.0629 380.996 23.0327 380.272L23.1183 381.805Z" fill="url(#paint2_linear_172_2)" mask="url(#path-7-inside-3_172_2)"/>
<path d="M13.2682 395.727H15.445L17.2916 400.23H17.3769L19.2235 395.727H21.4003V403H19.6887V398.533H19.6283L17.8811 402.954H16.7874L15.0402 398.508H14.9798V403H13.2682V395.727ZM24.0699 403H22.1807L24.6345 395.727H26.9747L29.4285 403H27.5393L25.8312 397.56H25.7744L24.0699 403ZM23.8177 400.138H27.7666V401.473H23.8177V400.138ZM30.2116 403V395.727H33.2158C33.7603 395.727 34.2303 395.826 34.6256 396.022C35.0233 396.216 35.3299 396.496 35.5454 396.86C35.7608 397.222 35.8685 397.652 35.8685 398.149C35.8685 398.653 35.7584 399.082 35.5383 399.435C35.3181 399.785 35.0056 400.053 34.6008 400.237C34.1959 400.42 33.7165 400.511 33.1626 400.511H31.2627V399.126H32.8358C33.101 399.126 33.3224 399.091 33.4999 399.023C33.6798 398.952 33.816 398.845 33.9083 398.703C34.0006 398.559 34.0468 398.374 34.0468 398.149C34.0468 397.924 34.0006 397.738 33.9083 397.592C33.816 397.442 33.6798 397.331 33.4999 397.258C33.32 397.182 33.0986 397.144 32.8358 397.144H31.9694V403H30.2116ZM34.306 399.676L36.1171 403H34.1995L32.4239 399.676H34.306ZM11.7794 415V413.736L14.4321 411.413C14.6309 411.233 14.8002 411.069 14.9399 410.92C15.0796 410.768 15.1861 410.617 15.2595 410.465C15.3329 410.311 15.3696 410.144 15.3696 409.964C15.3696 409.763 15.3258 409.592 15.2382 409.45C15.1506 409.305 15.0299 409.194 14.876 409.116C14.7221 409.038 14.5457 408.999 14.3469 408.999C14.1456 408.999 13.9693 409.04 13.8177 409.123C13.6662 409.203 13.5479 409.321 13.4626 409.474C13.3798 409.628 13.3383 409.815 13.3383 410.036H11.6729C11.6729 409.541 11.7841 409.113 12.0067 408.754C12.2292 408.394 12.5417 408.117 12.9442 407.923C13.349 407.726 13.8189 407.628 14.354 407.628C14.9056 407.628 15.385 407.72 15.7922 407.905C16.1994 408.089 16.5142 408.348 16.7368 408.679C16.9617 409.008 17.0741 409.39 17.0741 409.826C17.0741 410.103 17.0185 410.378 16.9072 410.65C16.796 410.922 16.5959 411.223 16.3071 411.552C16.0206 411.881 15.6134 412.275 15.0855 412.734L14.2155 413.537V413.583H17.1629V415H11.7794ZM21.1642 415.178C20.5297 415.178 19.9828 415.027 19.5235 414.727C19.0642 414.424 18.7103 413.989 18.4617 413.423C18.2132 412.855 18.0901 412.172 18.0924 411.374C18.0948 410.576 18.2191 409.899 18.4653 409.343C18.7139 408.784 19.0666 408.359 19.5235 408.068C19.9828 407.775 20.5297 407.628 21.1642 407.628C21.7986 407.628 22.3455 407.775 22.8048 408.068C23.2664 408.359 23.6215 408.784 23.8701 409.343C24.1187 409.902 24.2418 410.579 24.2394 411.374C24.2394 412.174 24.1151 412.859 23.8666 413.427C23.618 413.995 23.2641 414.429 22.8048 414.73C22.3479 415.028 21.801 415.178 21.1642 415.178ZM21.1642 413.739C21.5429 413.739 21.8495 413.546 22.0839 413.161C22.3183 412.772 22.4343 412.177 22.4319 411.374C22.4319 410.849 22.3786 410.415 22.2721 410.075C22.1656 409.731 22.0176 409.476 21.8282 409.308C21.6388 409.139 21.4175 409.055 21.1642 409.055C20.7877 409.055 20.4835 409.246 20.2515 409.627C20.0195 410.006 19.9023 410.588 19.8999 411.374C19.8976 411.907 19.9485 412.348 20.0526 412.699C20.1592 413.049 20.3083 413.311 20.5001 413.484C20.6919 413.654 20.9132 413.739 21.1642 413.739ZM25.2462 415V413.736L27.8989 411.413C28.0977 411.233 28.267 411.069 28.4067 410.92C28.5464 410.768 28.6529 410.617 28.7263 410.465C28.7997 410.311 28.8364 410.144 28.8364 409.964C28.8364 409.763 28.7926 409.592 28.705 409.45C28.6174 409.305 28.4967 409.194 28.3428 409.116C28.1889 409.038 28.0125 408.999 27.8137 408.999C27.6124 408.999 27.436 409.04 27.2845 409.123C27.133 409.203 27.0146 409.321 26.9294 409.474C26.8466 409.628 26.8051 409.815 26.8051 410.036H25.1396C25.1396 409.541 25.2509 409.113 25.4735 408.754C25.696 408.394 26.0085 408.117 26.411 407.923C26.8158 407.726 27.2857 407.628 27.8208 407.628C28.3724 407.628 28.8518 407.72 29.259 407.905C29.6662 408.089 29.981 408.348 30.2036 408.679C30.4285 409.008 30.5409 409.39 30.5409 409.826C30.5409 410.103 30.4853 410.378 30.374 410.65C30.2628 410.922 30.0627 411.223 29.7739 411.552C29.4874 411.881 29.0802 412.275 28.5523 412.734L27.6823 413.537V413.583H30.6297V415H25.2462ZM34.3895 415.099C33.8355 415.099 33.3443 415.005 32.9157 414.815C32.4896 414.624 32.1534 414.36 31.9072 414.023C31.661 413.687 31.5355 413.3 31.5308 412.862H33.2993C33.3064 413.021 33.3573 413.162 33.452 413.285C33.5467 413.406 33.6757 413.5 33.839 413.569C34.0024 413.638 34.1882 413.672 34.3966 413.672C34.6049 413.672 34.7884 413.635 34.947 413.562C35.108 413.486 35.2335 413.383 35.3234 413.253C35.4134 413.12 35.4572 412.969 35.4548 412.798C35.4572 412.628 35.4086 412.476 35.3092 412.344C35.2098 412.211 35.0689 412.108 34.8866 412.035C34.7067 411.961 34.4936 411.925 34.2474 411.925H33.5407V410.675H34.2474C34.4629 410.675 34.6523 410.639 34.8156 410.568C34.9813 410.497 35.1104 410.398 35.2027 410.27C35.295 410.14 35.34 409.991 35.3376 409.822C35.34 409.659 35.3009 409.516 35.2204 409.393C35.1423 409.267 35.0322 409.17 34.8902 409.102C34.7505 409.033 34.5883 408.999 34.4037 408.999C34.2095 408.999 34.0332 409.033 33.8746 409.102C33.7183 409.17 33.594 409.267 33.5017 409.393C33.4094 409.518 33.3608 409.664 33.3561 409.83H31.6764C31.6811 409.396 31.8019 409.015 32.0386 408.686C32.2754 408.355 32.5973 408.095 33.0045 407.908C33.4141 407.721 33.8805 407.628 34.4037 407.628C34.9245 407.628 35.3826 407.719 35.778 407.901C36.1733 408.084 36.4811 408.332 36.7013 408.647C36.9214 408.96 37.0315 409.313 37.0315 409.709C37.0339 410.118 36.9001 410.456 36.6302 410.721C36.3627 410.986 36.0183 411.149 35.5969 411.211V411.268C36.1603 411.334 36.5853 411.516 36.8717 411.815C37.1605 412.113 37.3038 412.486 37.3014 412.933C37.3014 413.355 37.1771 413.729 36.9285 414.055C36.6823 414.38 36.339 414.635 35.8987 414.822C35.4607 415.007 34.9577 415.099 34.3895 415.099Z" fill="white"/>
<mask id="path-10-inside-4_172_2" fill="white">
<path fill-rule="evenodd" clip-rule="evenodd" d="M23.0755 562.038C32.072 561.539 40.0809 565.983 44.7125 572.863L44.7075 572.863C47.9009 577.607 51.6077 581.978 55.9272 585.709L67.2322 585.709C67.6562 585.709 67.9999 586.053 67.9999 586.477C67.9999 586.901 67.6562 587.245 67.2322 587.245L55.9626 587.245C51.722 591.001 48.0017 595.307 44.8705 600.035C40.4957 606.643 32.9904 610.959 24.4531 610.959C10.6967 610.959 -0.408182 599.585 0.011521 585.715C0.396661 573.115 10.5041 562.74 23.0755 562.038Z"/>
</mask>
<path fill-rule="evenodd" clip-rule="evenodd" d="M23.0755 562.038C32.072 561.539 40.0809 565.983 44.7125 572.863L44.7075 572.863C47.9009 577.607 51.6077 581.978 55.9272 585.709L67.2322 585.709C67.6562 585.709 67.9999 586.053 67.9999 586.477C67.9999 586.901 67.6562 587.245 67.2322 587.245L55.9626 587.245C51.722 591.001 48.0017 595.307 44.8705 600.035C40.4957 606.643 32.9904 610.959 24.4531 610.959C10.6967 610.959 -0.408182 599.585 0.011521 585.715C0.396661 573.115 10.5041 562.74 23.0755 562.038Z" fill="white" fill-opacity="0.1"/>
<path d="M44.7125 572.863L45.3494 572.435L46.1548 573.631L44.7125 573.631L44.7125 572.863ZM23.0755 562.038L23.0327 561.272L23.0329 561.272L23.0755 562.038ZM44.7075 572.863L44.0706 573.292L43.2652 572.095L44.7075 572.095L44.7075 572.863ZM55.9272 585.709L55.9272 586.477L55.6415 586.477L55.4253 586.29L55.9272 585.709ZM55.9626 587.245L55.4536 586.67L55.6715 586.477L55.9626 586.477L55.9626 587.245ZM44.8705 600.035L44.2303 599.611L44.2304 599.611L44.8705 600.035ZM0.011521 585.715L-0.755882 585.692L-0.755875 585.691L0.011521 585.715ZM44.0756 573.292C39.5857 566.622 31.8279 562.321 23.118 562.805L23.0329 561.272C32.3161 560.756 40.5761 565.343 45.3494 572.435L44.0756 573.292ZM44.7075 572.095L44.7125 572.095L44.7125 573.631L44.7075 573.631L44.7075 572.095ZM55.4253 586.29C51.0459 582.507 47.2953 578.082 44.0706 573.292L45.3444 572.434C48.5064 577.132 52.1694 581.448 56.4291 585.128L55.4253 586.29ZM67.2322 586.477L55.9272 586.477L55.9272 584.942L67.2322 584.942L67.2322 586.477ZM67.2322 586.477L67.2322 584.942C68.0802 584.942 68.7677 585.629 68.7677 586.477L67.2322 586.477ZM67.2322 586.477L67.2322 586.477L68.7677 586.477C68.7677 587.325 68.0802 588.013 67.2322 588.013L67.2322 586.477ZM55.9626 586.477L67.2322 586.477L67.2322 588.013L55.9626 588.013L55.9626 586.477ZM44.2304 599.611C47.3976 594.829 51.1617 590.472 55.4536 586.67L56.4717 587.82C52.2823 591.53 48.6057 595.786 45.5105 600.459L44.2304 599.611ZM24.4531 610.191C32.7252 610.191 39.9934 606.011 44.2303 599.611L45.5107 600.458C40.9979 607.276 33.2555 611.726 24.4531 611.726L24.4531 610.191ZM0.778924 585.738C0.372333 599.175 11.1294 610.191 24.4531 610.191L24.4531 611.726C10.264 611.726 -1.1887 599.995 -0.755882 585.692L0.778924 585.738ZM23.1183 562.805C10.9453 563.484 1.15191 573.536 0.778917 585.738L-0.755875 585.691C-0.358585 572.694 10.0629 561.996 23.0327 561.272L23.1183 562.805Z" fill="url(#paint3_linear_172_2)" mask="url(#path-10-inside-4_172_2)"/>
<path d="M16.1939 584H14.3047L16.7585 576.727H19.0987L21.5526 584H19.6634L17.9553 578.56H17.8984L16.1939 584ZM15.9418 581.138H19.8906V582.473H15.9418V581.138ZM22.3356 584V576.727H25.3398C25.8844 576.727 26.3543 576.834 26.7496 577.047C27.1474 577.258 27.454 577.552 27.6694 577.931C27.8848 578.308 27.9925 578.746 27.9925 579.245C27.9925 579.747 27.8825 580.186 27.6623 580.562C27.4445 580.937 27.1332 581.227 26.7283 581.433C26.3235 581.638 25.8429 581.741 25.2866 581.741H23.4329V580.357H24.9599C25.225 580.357 25.4464 580.31 25.6239 580.218C25.8039 580.126 25.94 579.997 26.0323 579.831C26.1246 579.663 26.1708 579.468 26.1708 579.245C26.1708 579.02 26.1246 578.826 26.0323 578.663C25.94 578.497 25.8039 578.369 25.6239 578.279C25.444 578.189 25.2227 578.144 24.9599 578.144H24.0934V584H22.3356ZM28.859 584V576.727H31.8633C32.4078 576.727 32.8777 576.826 33.2731 577.022C33.6708 577.216 33.9774 577.496 34.1928 577.86C34.4083 578.222 34.516 578.652 34.516 579.149C34.516 579.653 34.4059 580.082 34.1857 580.435C33.9656 580.785 33.6531 581.053 33.2482 581.237C32.8434 581.42 32.364 581.511 31.81 581.511H29.9102V580.126H31.4833C31.7485 580.126 31.9698 580.091 32.1474 580.023C32.3273 579.952 32.4634 579.845 32.5558 579.703C32.6481 579.559 32.6942 579.374 32.6942 579.149C32.6942 578.924 32.6481 578.738 32.5558 578.592C32.4634 578.442 32.3273 578.331 32.1474 578.258C31.9674 578.182 31.7461 578.144 31.4833 578.144H30.6168V584H28.859ZM32.9535 580.676L34.7646 584H32.8469L31.0714 580.676H32.9535ZM11.7794 596V594.736L14.4321 592.413C14.6309 592.233 14.8002 592.069 14.9399 591.92C15.0796 591.768 15.1861 591.617 15.2595 591.465C15.3329 591.311 15.3696 591.144 15.3696 590.964C15.3696 590.763 15.3258 590.592 15.2382 590.45C15.1506 590.305 15.0299 590.194 14.876 590.116C14.7221 590.038 14.5457 589.999 14.3469 589.999C14.1456 589.999 13.9693 590.04 13.8177 590.123C13.6662 590.203 13.5479 590.321 13.4626 590.474C13.3798 590.628 13.3383 590.815 13.3383 591.036H11.6729C11.6729 590.541 11.7841 590.113 12.0067 589.754C12.2292 589.394 12.5417 589.117 12.9442 588.923C13.349 588.726 13.8189 588.628 14.354 588.628C14.9056 588.628 15.385 588.72 15.7922 588.905C16.1994 589.089 16.5142 589.348 16.7368 589.679C16.9617 590.008 17.0741 590.39 17.0741 590.826C17.0741 591.103 17.0185 591.378 16.9072 591.65C16.796 591.922 16.5959 592.223 16.3071 592.552C16.0206 592.881 15.6134 593.275 15.0855 593.734L14.2155 594.537V594.583H17.1629V596H11.7794ZM21.1642 596.178C20.5297 596.178 19.9828 596.027 19.5235 595.727C19.0642 595.424 18.7103 594.989 18.4617 594.423C18.2132 593.855 18.0901 593.172 18.0924 592.374C18.0948 591.576 18.2191 590.899 18.4653 590.343C18.7139 589.784 19.0666 589.359 19.5235 589.068C19.9828 588.775 20.5297 588.628 21.1642 588.628C21.7986 588.628 22.3455 588.775 22.8048 589.068C23.2664 589.359 23.6215 589.784 23.8701 590.343C24.1187 590.902 24.2418 591.579 24.2394 592.374C24.2394 593.174 24.1151 593.859 23.8666 594.427C23.618 594.995 23.2641 595.429 22.8048 595.73C22.3479 596.028 21.801 596.178 21.1642 596.178ZM21.1642 594.739C21.5429 594.739 21.8495 594.546 22.0839 594.161C22.3183 593.772 22.4343 593.177 22.4319 592.374C22.4319 591.849 22.3786 591.415 22.2721 591.075C22.1656 590.731 22.0176 590.476 21.8282 590.308C21.6388 590.139 21.4175 590.055 21.1642 590.055C20.7877 590.055 20.4835 590.246 20.2515 590.627C20.0195 591.006 19.9023 591.588 19.8999 592.374C19.8976 592.907 19.9485 593.348 20.0526 593.699C20.1592 594.049 20.3083 594.311 20.5001 594.484C20.6919 594.654 20.9132 594.739 21.1642 594.739ZM25.2462 596V594.736L27.8989 592.413C28.0977 592.233 28.267 592.069 28.4067 591.92C28.5464 591.768 28.6529 591.617 28.7263 591.465C28.7997 591.311 28.8364 591.144 28.8364 590.964C28.8364 590.763 28.7926 590.592 28.705 590.45C28.6174 590.305 28.4967 590.194 28.3428 590.116C28.1889 590.038 28.0125 589.999 27.8137 589.999C27.6124 589.999 27.436 590.04 27.2845 590.123C27.133 590.203 27.0146 590.321 26.9294 590.474C26.8466 590.628 26.8051 590.815 26.8051 591.036H25.1396C25.1396 590.541 25.2509 590.113 25.4735 589.754C25.696 589.394 26.0085 589.117 26.411 588.923C26.8158 588.726 27.2857 588.628 27.8208 588.628C28.3724 588.628 28.8518 588.72 29.259 588.905C29.6662 589.089 29.981 589.348 30.2036 589.679C30.4285 590.008 30.5409 590.39 30.5409 590.826C30.5409 591.103 30.4853 591.378 30.374 591.65C30.2628 591.922 30.0627 592.223 29.7739 592.552C29.4874 592.881 29.0802 593.275 28.5523 593.734L27.6823 594.537V594.583H30.6297V596H25.2462ZM34.3895 596.099C33.8355 596.099 33.3443 596.005 32.9157 595.815C32.4896 595.624 32.1534 595.36 31.9072 595.023C31.661 594.687 31.5355 594.3 31.5308 593.862H33.2993C33.3064 594.021 33.3573 594.162 33.452 594.285C33.5467 594.406 33.6757 594.5 33.839 594.569C34.0024 594.638 34.1882 594.672 34.3966 594.672C34.6049 594.672 34.7884 594.635 34.947 594.562C35.108 594.486 35.2335 594.383 35.3234 594.253C35.4134 594.12 35.4572 593.969 35.4548 593.798C35.4572 593.628 35.4086 593.476 35.3092 593.344C35.2098 593.211 35.0689 593.108 34.8866 593.035C34.7067 592.961 34.4936 592.925 34.2474 592.925H33.5407V591.675H34.2474C34.4629 591.675 34.6523 591.639 34.8156 591.568C34.9813 591.497 35.1104 591.398 35.2027 591.27C35.295 591.14 35.34 590.991 35.3376 590.822C35.34 590.659 35.3009 590.516 35.2204 590.393C35.1423 590.267 35.0322 590.17 34.8902 590.102C34.7505 590.033 34.5883 589.999 34.4037 589.999C34.2095 589.999 34.0332 590.033 33.8746 590.102C33.7183 590.17 33.594 590.267 33.5017 590.393C33.4094 590.518 33.3608 590.664 33.3561 590.83H31.6764C31.6811 590.396 31.8019 590.015 32.0386 589.686C32.2754 589.355 32.5973 589.095 33.0045 588.908C33.4141 588.721 33.8805 588.628 34.4037 588.628C34.9245 588.628 35.3826 588.719 35.778 588.901C36.1733 589.084 36.4811 589.332 36.7013 589.647C36.9214 589.96 37.0315 590.313 37.0315 590.709C37.0339 591.118 36.9001 591.456 36.6302 591.721C36.3627 591.986 36.0183 592.149 35.5969 592.211V592.268C36.1603 592.334 36.5853 592.516 36.8717 592.815C37.1605 593.113 37.3038 593.486 37.3014 593.933C37.3014 594.355 37.1771 594.729 36.9285 595.055C36.6823 595.38 36.339 595.635 35.8987 595.822C35.4607 596.007 34.9577 596.099 34.3895 596.099Z" fill="white"/>
<mask id="path-13-inside-5_172_2" fill="white">
<path fill-rule="evenodd" clip-rule="evenodd" d="M23.0755 743.038C32.072 742.539 40.0809 746.983 44.7125 753.863L44.7075 753.863C47.9009 758.607 51.6077 762.978 55.9272 766.709L67.2322 766.709C67.6562 766.709 67.9999 767.053 67.9999 767.477C67.9999 767.901 67.6562 768.245 67.2322 768.245L55.9626 768.245C51.722 772.001 48.0017 776.307 44.8705 781.035C40.4957 787.643 32.9904 791.959 24.4531 791.959C10.6967 791.959 -0.408182 780.585 0.011521 766.715C0.396661 754.115 10.5041 743.74 23.0755 743.038Z"/>
</mask>
<path fill-rule="evenodd" clip-rule="evenodd" d="M23.0755 743.038C32.072 742.539 40.0809 746.983 44.7125 753.863L44.7075 753.863C47.9009 758.607 51.6077 762.978 55.9272 766.709L67.2322 766.709C67.6562 766.709 67.9999 767.053 67.9999 767.477C67.9999 767.901 67.6562 768.245 67.2322 768.245L55.9626 768.245C51.722 772.001 48.0017 776.307 44.8705 781.035C40.4957 787.643 32.9904 791.959 24.4531 791.959C10.6967 791.959 -0.408182 780.585 0.011521 766.715C0.396661 754.115 10.5041 743.74 23.0755 743.038Z" fill="white" fill-opacity="0.1"/>
<path d="M44.7125 753.863L45.3494 753.435L46.1548 754.631L44.7125 754.631L44.7125 753.863ZM23.0755 743.038L23.0327 742.272L23.0329 742.272L23.0755 743.038ZM44.7075 753.863L44.0706 754.292L43.2652 753.095L44.7075 753.095L44.7075 753.863ZM55.9272 766.709L55.9272 767.477L55.6415 767.477L55.4253 767.29L55.9272 766.709ZM55.9626 768.245L55.4536 767.67L55.6715 767.477L55.9626 767.477L55.9626 768.245ZM44.8705 781.035L44.2303 780.611L44.2304 780.611L44.8705 781.035ZM0.011521 766.715L-0.755882 766.692L-0.755875 766.691L0.011521 766.715ZM44.0756 754.292C39.5857 747.622 31.8279 743.321 23.118 743.805L23.0329 742.272C32.3161 741.756 40.5761 746.343 45.3494 753.435L44.0756 754.292ZM44.7075 753.095L44.7125 753.095L44.7125 754.631L44.7075 754.631L44.7075 753.095ZM55.4253 767.29C51.0459 763.507 47.2953 759.082 44.0706 754.292L45.3444 753.434C48.5064 758.132 52.1694 762.448 56.4291 766.128L55.4253 767.29ZM67.2322 767.477L55.9272 767.477L55.9272 765.942L67.2322 765.942L67.2322 767.477ZM67.2322 767.477L67.2322 765.942C68.0802 765.942 68.7677 766.629 68.7677 767.477L67.2322 767.477ZM67.2322 767.477L67.2322 767.477L68.7677 767.477C68.7677 768.325 68.0802 769.013 67.2322 769.013L67.2322 767.477ZM55.9626 767.477L67.2322 767.477L67.2322 769.013L55.9626 769.013L55.9626 767.477ZM44.2304 780.611C47.3976 775.829 51.1617 771.472 55.4536 767.67L56.4717 768.82C52.2823 772.53 48.6057 776.786 45.5105 781.459L44.2304 780.611ZM24.4531 791.191C32.7252 791.191 39.9934 787.011 44.2303 780.611L45.5107 781.458C40.9979 788.276 33.2555 792.726 24.4531 792.726L24.4531 791.191ZM0.778924 766.738C0.372333 780.175 11.1294 791.191 24.4531 791.191L24.4531 792.726C10.264 792.726 -1.1887 780.995 -0.755882 766.692L0.778924 766.738ZM23.1183 743.805C10.9453 744.484 1.15191 754.536 0.778917 766.738L-0.755875 766.691C-0.358585 753.694 10.0629 742.996 23.0327 742.272L23.1183 743.805Z" fill="url(#paint4_linear_172_2)" mask="url(#path-13-inside-5_172_2)"/>
<path d="M13.2291 757.727H15.406L17.2526 762.23H17.3378L19.1844 757.727H21.3612V765H19.6496V760.533H19.5892L17.8421 764.954H16.7483L15.0012 760.508H14.9408V765H13.2291V757.727ZM24.0308 765H22.1416L24.5954 757.727H26.9356L29.3895 765H27.5003L25.7922 759.56H25.7354L24.0308 765ZM23.7787 762.138H27.7275V763.473H23.7787V762.138ZM29.0681 757.727H31.0319L32.5695 760.771H32.6334L34.1711 757.727H36.1349L33.4751 762.571V765H31.7279V762.571L29.0681 757.727ZM11.7794 777V775.736L14.4321 773.413C14.6309 773.233 14.8002 773.069 14.9399 772.92C15.0796 772.768 15.1861 772.617 15.2595 772.465C15.3329 772.311 15.3696 772.144 15.3696 771.964C15.3696 771.763 15.3258 771.592 15.2382 771.45C15.1506 771.305 15.0299 771.194 14.876 771.116C14.7221 771.038 14.5457 770.999 14.3469 770.999C14.1456 770.999 13.9693 771.04 13.8177 771.123C13.6662 771.203 13.5479 771.321 13.4626 771.474C13.3798 771.628 13.3383 771.815 13.3383 772.036H11.6729C11.6729 771.541 11.7841 771.113 12.0067 770.754C12.2292 770.394 12.5417 770.117 12.9442 769.923C13.349 769.726 13.8189 769.628 14.354 769.628C14.9056 769.628 15.385 769.72 15.7922 769.905C16.1994 770.089 16.5142 770.348 16.7368 770.679C16.9617 771.008 17.0741 771.39 17.0741 771.826C17.0741 772.103 17.0185 772.378 16.9072 772.65C16.796 772.922 16.5959 773.223 16.3071 773.552C16.0206 773.881 15.6134 774.275 15.0855 774.734L14.2155 775.537V775.583H17.1629V777H11.7794ZM21.1642 777.178C20.5297 777.178 19.9828 777.027 19.5235 776.727C19.0642 776.424 18.7103 775.989 18.4617 775.423C18.2132 774.855 18.0901 774.172 18.0924 773.374C18.0948 772.576 18.2191 771.899 18.4653 771.343C18.7139 770.784 19.0666 770.359 19.5235 770.068C19.9828 769.775 20.5297 769.628 21.1642 769.628C21.7986 769.628 22.3455 769.775 22.8048 770.068C23.2664 770.359 23.6215 770.784 23.8701 771.343C24.1187 771.902 24.2418 772.579 24.2394 773.374C24.2394 774.174 24.1151 774.859 23.8666 775.427C23.618 775.995 23.2641 776.429 22.8048 776.73C22.3479 777.028 21.801 777.178 21.1642 777.178ZM21.1642 775.739C21.5429 775.739 21.8495 775.546 22.0839 775.161C22.3183 774.772 22.4343 774.177 22.4319 773.374C22.4319 772.849 22.3786 772.415 22.2721 772.075C22.1656 771.731 22.0176 771.476 21.8282 771.308C21.6388 771.139 21.4175 771.055 21.1642 771.055C20.7877 771.055 20.4835 771.246 20.2515 771.627C20.0195 772.006 19.9023 772.588 19.8999 773.374C19.8976 773.907 19.9485 774.348 20.0526 774.699C20.1592 775.049 20.3083 775.311 20.5001 775.484C20.6919 775.654 20.9132 775.739 21.1642 775.739ZM25.2462 777V775.736L27.8989 773.413C28.0977 773.233 28.267 773.069 28.4067 772.92C28.5464 772.768 28.6529 772.617 28.7263 772.465C28.7997 772.311 28.8364 772.144 28.8364 771.964C28.8364 771.763 28.7926 771.592 28.705 771.45C28.6174 771.305 28.4967 771.194 28.3428 771.116C28.1889 771.038 28.0125 770.999 27.8137 770.999C27.6124 770.999 27.436 771.04 27.2845 771.123C27.133 771.203 27.0146 771.321 26.9294 771.474C26.8466 771.628 26.8051 771.815 26.8051 772.036H25.1396C25.1396 771.541 25.2509 771.113 25.4735 770.754C25.696 770.394 26.0085 770.117 26.411 769.923C26.8158 769.726 27.2857 769.628 27.8208 769.628C28.3724 769.628 28.8518 769.72 29.259 769.905C29.6662 770.089 29.981 770.348 30.2036 770.679C30.4285 771.008 30.5409 771.39 30.5409 771.826C30.5409 772.103 30.4853 772.378 30.374 772.65C30.2628 772.922 30.0627 773.223 29.7739 773.552C29.4874 773.881 29.0802 774.275 28.5523 774.734L27.6823 775.537V775.583H30.6297V777H25.2462ZM34.3895 777.099C33.8355 777.099 33.3443 777.005 32.9157 776.815C32.4896 776.624 32.1534 776.36 31.9072 776.023C31.661 775.687 31.5355 775.3 31.5308 774.862H33.2993C33.3064 775.021 33.3573 775.162 33.452 775.285C33.5467 775.406 33.6757 775.5 33.839 775.569C34.0024 775.638 34.1882 775.672 34.3966 775.672C34.6049 775.672 34.7884 775.635 34.947 775.562C35.108 775.486 35.2335 775.383 35.3234 775.253C35.4134 775.12 35.4572 774.969 35.4548 774.798C35.4572 774.628 35.4086 774.476 35.3092 774.344C35.2098 774.211 35.0689 774.108 34.8866 774.035C34.7067 773.961 34.4936 773.925 34.2474 773.925H33.5407V772.675H34.2474C34.4629 772.675 34.6523 772.639 34.8156 772.568C34.9813 772.497 35.1104 772.398 35.2027 772.27C35.295 772.14 35.34 771.991 35.3376 771.822C35.34 771.659 35.3009 771.516 35.2204 771.393C35.1423 771.267 35.0322 771.17 34.8902 771.102C34.7505 771.033 34.5883 770.999 34.4037 770.999C34.2095 770.999 34.0332 771.033 33.8746 771.102C33.7183 771.17 33.594 771.267 33.5017 771.393C33.4094 771.518 33.3608 771.664 33.3561 771.83H31.6764C31.6811 771.396 31.8019 771.015 32.0386 770.686C32.2754 770.355 32.5973 770.095 33.0045 769.908C33.4141 769.721 33.8805 769.628 34.4037 769.628C34.9245 769.628 35.3826 769.719 35.778 769.901C36.1733 770.084 36.4811 770.332 36.7013 770.647C36.9214 770.96 37.0315 771.313 37.0315 771.709C37.0339 772.118 36.9001 772.456 36.6302 772.721C36.3627 772.986 36.0183 773.149 35.5969 773.211V773.268C36.1603 773.334 36.5853 773.516 36.8717 773.815C37.1605 774.113 37.3038 774.486 37.3014 774.933C37.3014 775.355 37.1771 775.729 36.9285 776.055C36.6823 776.38 36.339 776.635 35.8987 776.822C35.4607 777.007 34.9577 777.099 34.3895 777.099Z" fill="white"/>
<mask id="path-16-inside-6_172_2" fill="white">
<path fill-rule="evenodd" clip-rule="evenodd" d="M23.0755 924.038C32.072 923.539 40.0809 927.983 44.7125 934.863L44.7075 934.863C47.9009 939.607 51.6077 943.978 55.9272 947.709L67.2322 947.709C67.6562 947.709 67.9999 948.053 67.9999 948.477C67.9999 948.901 67.6562 949.245 67.2322 949.245L55.9626 949.245C51.722 953.001 48.0017 957.307 44.8705 962.035C40.4957 968.643 32.9904 972.959 24.4531 972.959C10.6967 972.959 -0.408182 961.585 0.011521 947.715C0.396661 935.115 10.5041 924.74 23.0755 924.038Z"/>
</mask>
<path fill-rule="evenodd" clip-rule="evenodd" d="M23.0755 924.038C32.072 923.539 40.0809 927.983 44.7125 934.863L44.7075 934.863C47.9009 939.607 51.6077 943.978 55.9272 947.709L67.2322 947.709C67.6562 947.709 67.9999 948.053 67.9999 948.477C67.9999 948.901 67.6562 949.245 67.2322 949.245L55.9626 949.245C51.722 953.001 48.0017 957.307 44.8705 962.035C40.4957 968.643 32.9904 972.959 24.4531 972.959C10.6967 972.959 -0.408182 961.585 0.011521 947.715C0.396661 935.115 10.5041 924.74 23.0755 924.038Z" fill="white" fill-opacity="0.1"/>
<path d="M44.7125 934.863L45.3494 934.435L46.1548 935.631L44.7125 935.631L44.7125 934.863ZM23.0755 924.038L23.0327 923.272L23.0329 923.272L23.0755 924.038ZM44.7075 934.863L44.0706 935.292L43.2652 934.095L44.7075 934.095L44.7075 934.863ZM55.9272 947.709L55.9272 948.477L55.6415 948.477L55.4253 948.29L55.9272 947.709ZM55.9626 949.245L55.4536 948.67L55.6715 948.477L55.9626 948.477L55.9626 949.245ZM44.8705 962.035L44.2303 961.611L44.2304 961.611L44.8705 962.035ZM0.011521 947.715L-0.755882 947.692L-0.755875 947.691L0.011521 947.715ZM44.0756 935.292C39.5857 928.622 31.8279 924.321 23.118 924.805L23.0329 923.272C32.3161 922.756 40.5761 927.343 45.3494 934.435L44.0756 935.292ZM44.7075 934.095L44.7125 934.095L44.7125 935.631L44.7075 935.631L44.7075 934.095ZM55.4253 948.29C51.0459 944.507 47.2953 940.082 44.0706 935.292L45.3444 934.434C48.5064 939.132 52.1694 943.448 56.4291 947.128L55.4253 948.29ZM67.2322 948.477L55.9272 948.477L55.9272 946.942L67.2322 946.942L67.2322 948.477ZM67.2322 948.477L67.2322 946.942C68.0802 946.942 68.7677 947.629 68.7677 948.477L67.2322 948.477ZM67.2322 948.477L67.2322 948.477L68.7677 948.477C68.7677 949.325 68.0802 950.013 67.2322 950.013L67.2322 948.477ZM55.9626 948.477L67.2322 948.477L67.2322 950.013L55.9626 950.013L55.9626 948.477ZM44.2304 961.611C47.3976 956.829 51.1617 952.472 55.4536 948.67L56.4717 949.82C52.2823 953.53 48.6057 957.786 45.5105 962.459L44.2304 961.611ZM24.4531 972.191C32.7252 972.191 39.9934 968.011 44.2303 961.611L45.5107 962.458C40.9979 969.276 33.2555 973.726 24.4531 973.726L24.4531 972.191ZM0.778924 947.738C0.372333 961.175 11.1294 972.191 24.4531 972.191L24.4531 973.726C10.264 973.726 -1.1887 961.995 -0.755882 947.692L0.778924 947.738ZM23.1183 924.805C10.9453 925.484 1.15191 935.536 0.778917 947.738L-0.755875 947.691C-0.358585 934.694 10.0629 923.996 23.0327 923.272L23.1183 924.805Z" fill="url(#paint5_linear_172_2)" mask="url(#path-16-inside-6_172_2)"/>
<path d="M17.8341 938.727H19.567V943.756C19.5647 944.227 19.4522 944.639 19.2297 944.991C19.0071 945.342 18.6994 945.614 18.3064 945.808C17.9157 946.002 17.4636 946.099 16.9498 946.099C16.4953 946.099 16.0822 946.02 15.7105 945.862C15.3412 945.703 15.0464 945.457 14.8263 945.123C14.6085 944.789 14.5007 944.362 14.5031 943.841H16.2538C16.2609 944.028 16.2964 944.188 16.3604 944.32C16.4266 944.451 16.5178 944.549 16.6338 944.615C16.7498 944.681 16.8883 944.714 17.0493 944.714C17.2174 944.714 17.3594 944.679 17.4754 944.608C17.5914 944.535 17.679 944.427 17.7382 944.285C17.7997 944.143 17.8317 943.966 17.8341 943.756V938.727ZM25.0704 938.727H26.8247V943.418C26.8247 943.96 26.6956 944.433 26.4376 944.835C26.1795 945.235 25.8197 945.545 25.358 945.766C24.8964 945.983 24.3602 946.092 23.7494 946.092C23.1315 946.092 22.5917 945.983 22.1301 945.766C21.6684 945.545 21.3097 945.235 21.0541 944.835C20.7984 944.433 20.6705 943.96 20.6705 943.418V938.727H22.4284V943.266C22.4284 943.517 22.4828 943.74 22.5917 943.937C22.703 944.133 22.858 944.287 23.0569 944.398C23.2558 944.51 23.4866 944.565 23.7494 944.565C24.0122 944.565 24.2418 944.51 24.4383 944.398C24.6372 944.287 24.7922 944.133 24.9035 943.937C25.0148 943.74 25.0704 943.517 25.0704 943.266V938.727ZM34.116 938.727V946H32.6246L29.7304 941.803H29.6842V946H27.9264V938.727H29.4392L32.3014 942.918H32.3618V938.727H34.116ZM11.7794 958V956.736L14.4321 954.413C14.6309 954.233 14.8002 954.069 14.9399 953.92C15.0796 953.768 15.1861 953.617 15.2595 953.465C15.3329 953.311 15.3696 953.144 15.3696 952.964C15.3696 952.763 15.3258 952.592 15.2382 952.45C15.1506 952.305 15.0299 952.194 14.876 952.116C14.7221 952.038 14.5457 951.999 14.3469 951.999C14.1456 951.999 13.9693 952.04 13.8177 952.123C13.6662 952.203 13.5479 952.321 13.4626 952.474C13.3798 952.628 13.3383 952.815 13.3383 953.036H11.6729C11.6729 952.541 11.7841 952.113 12.0067 951.754C12.2292 951.394 12.5417 951.117 12.9442 950.923C13.349 950.726 13.8189 950.628 14.354 950.628C14.9056 950.628 15.385 950.72 15.7922 950.905C16.1994 951.089 16.5142 951.348 16.7368 951.679C16.9617 952.008 17.0741 952.39 17.0741 952.826C17.0741 953.103 17.0185 953.378 16.9072 953.65C16.796 953.922 16.5959 954.223 16.3071 954.552C16.0206 954.881 15.6134 955.275 15.0855 955.734L14.2155 956.537V956.583H17.1629V958H11.7794ZM21.1642 958.178C20.5297 958.178 19.9828 958.027 19.5235 957.727C19.0642 957.424 18.7103 956.989 18.4617 956.423C18.2132 955.855 18.0901 955.172 18.0924 954.374C18.0948 953.576 18.2191 952.899 18.4653 952.343C18.7139 951.784 19.0666 951.359 19.5235 951.068C19.9828 950.775 20.5297 950.628 21.1642 950.628C21.7986 950.628 22.3455 950.775 22.8048 951.068C23.2664 951.359 23.6215 951.784 23.8701 952.343C24.1187 952.902 24.2418 953.579 24.2394 954.374C24.2394 955.174 24.1151 955.859 23.8666 956.427C23.618 956.995 23.2641 957.429 22.8048 957.73C22.3479 958.028 21.801 958.178 21.1642 958.178ZM21.1642 956.739C21.5429 956.739 21.8495 956.546 22.0839 956.161C22.3183 955.772 22.4343 955.177 22.4319 954.374C22.4319 953.849 22.3786 953.415 22.2721 953.075C22.1656 952.731 22.0176 952.476 21.8282 952.308C21.6388 952.139 21.4175 952.055 21.1642 952.055C20.7877 952.055 20.4835 952.246 20.2515 952.627C20.0195 953.006 19.9023 953.588 19.8999 954.374C19.8976 954.907 19.9485 955.348 20.0526 955.699C20.1592 956.049 20.3083 956.311 20.5001 956.484C20.6919 956.654 20.9132 956.739 21.1642 956.739ZM25.2462 958V956.736L27.8989 954.413C28.0977 954.233 28.267 954.069 28.4067 953.92C28.5464 953.768 28.6529 953.617 28.7263 953.465C28.7997 953.311 28.8364 953.144 28.8364 952.964C28.8364 952.763 28.7926 952.592 28.705 952.45C28.6174 952.305 28.4967 952.194 28.3428 952.116C28.1889 952.038 28.0125 951.999 27.8137 951.999C27.6124 951.999 27.436 952.04 27.2845 952.123C27.133 952.203 27.0146 952.321 26.9294 952.474C26.8466 952.628 26.8051 952.815 26.8051 953.036H25.1396C25.1396 952.541 25.2509 952.113 25.4735 951.754C25.696 951.394 26.0085 951.117 26.411 950.923C26.8158 950.726 27.2857 950.628 27.8208 950.628C28.3724 950.628 28.8518 950.72 29.259 950.905C29.6662 951.089 29.981 951.348 30.2036 951.679C30.4285 952.008 30.5409 952.39 30.5409 952.826C30.5409 953.103 30.4853 953.378 30.374 953.65C30.2628 953.922 30.0627 954.223 29.7739 954.552C29.4874 954.881 29.0802 955.275 28.5523 955.734L27.6823 956.537V956.583H30.6297V958H25.2462ZM34.3895 958.099C33.8355 958.099 33.3443 958.005 32.9157 957.815C32.4896 957.624 32.1534 957.36 31.9072 957.023C31.661 956.687 31.5355 956.3 31.5308 955.862H33.2993C33.3064 956.021 33.3573 956.162 33.452 956.285C33.5467 956.406 33.6757 956.5 33.839 956.569C34.0024 956.638 34.1882 956.672 34.3966 956.672C34.6049 956.672 34.7884 956.635 34.947 956.562C35.108 956.486 35.2335 956.383 35.3234 956.253C35.4134 956.12 35.4572 955.969 35.4548 955.798C35.4572 955.628 35.4086 955.476 35.3092 955.344C35.2098 955.211 35.0689 955.108 34.8866 955.035C34.7067 954.961 34.4936 954.925 34.2474 954.925H33.5407V953.675H34.2474C34.4629 953.675 34.6523 953.639 34.8156 953.568C34.9813 953.497 35.1104 953.398 35.2027 953.27C35.295 953.14 35.34 952.991 35.3376 952.822C35.34 952.659 35.3009 952.516 35.2204 952.393C35.1423 952.267 35.0322 952.17 34.8902 952.102C34.7505 952.033 34.5883 951.999 34.4037 951.999C34.2095 951.999 34.0332 952.033 33.8746 952.102C33.7183 952.17 33.594 952.267 33.5017 952.393C33.4094 952.518 33.3608 952.664 33.3561 952.83H31.6764C31.6811 952.396 31.8019 952.015 32.0386 951.686C32.2754 951.355 32.5973 951.095 33.0045 950.908C33.4141 950.721 33.8805 950.628 34.4037 950.628C34.9245 950.628 35.3826 950.719 35.778 950.901C36.1733 951.084 36.4811 951.332 36.7013 951.647C36.9214 951.96 37.0315 952.313 37.0315 952.709C37.0339 953.118 36.9001 953.456 36.6302 953.721C36.3627 953.986 36.0183 954.149 35.5969 954.211V954.268C36.1603 954.334 36.5853 954.516 36.8717 954.815C37.1605 955.113 37.3038 955.486 37.3014 955.933C37.3014 956.355 37.1771 956.729 36.9285 957.055C36.6823 957.38 36.339 957.635 35.8987 957.822C35.4607 958.007 34.9577 958.099 34.3895 958.099Z" fill="white"/>
<path fill-rule="evenodd" clip-rule="evenodd" d="M96 2C96 0.895431 96.8954 0 98 0V0C99.1046 0 100 0.895398 100 1.99997V1127C100 1128.1 99.1046 1129 98 1129V1129C96.8954 1129 96 1128.1 96 1127V953.488C96 952.647 95.6468 951.844 95.0266 951.276L94.413 950.714C93.1156 949.525 93.1151 947.48 94.4119 946.291L95.0277 945.726C95.6473 945.158 96 944.356 96 943.515V772.488C96 771.647 95.6468 770.844 95.0266 770.276L94.413 769.714C93.1156 768.525 93.1151 766.48 94.4119 765.291L95.0277 764.726C95.6473 764.158 96 763.356 96 762.515V591.488C96 590.647 95.6468 589.844 95.0266 589.276L94.413 588.714C93.1156 587.525 93.1151 585.48 94.4119 584.291L95.0277 583.726C95.6473 583.158 96 582.356 96 581.515V410.488C96 409.647 95.6468 408.844 95.0266 408.276L94.413 407.714C93.1156 406.525 93.1151 404.48 94.4119 403.291L95.0277 402.726C95.6473 402.158 96 401.356 96 400.515V231.362C96 230.521 95.6468 229.718 95.0266 229.15L92.913 227.214C91.6157 226.025 91.6152 223.98 92.912 222.791L95.0277 220.85C95.6473 220.282 96 219.48 96 218.639V49.8593C96 49.0182 95.6468 48.2156 95.0266 47.6474L92.913 45.7109C91.6156 44.5222 91.6151 42.4773 92.9119 41.2879L95.0277 39.3475C95.6473 38.7793 96 37.9772 96 37.1366V2Z" fill="url(#paint6_linear_172_2)"/>
<defs>
<linearGradient id="paint0_linear_172_2" x1="-8.63204" y1="44.4793" x2="77.4453" y2="44.4793" gradientUnits="userSpaceOnUse">
<stop stop-color="#F95B27"/>
<stop offset="0.484375" stop-color="#8E478B" stop-opacity="0"/>
<stop offset="1" stop-color="#1B31F4"/>
</linearGradient>
<linearGradient id="paint1_linear_172_2" x1="-8.63204" y1="224.479" x2="77.4453" y2="224.479" gradientUnits="userSpaceOnUse">
<stop stop-color="#F95B27"/>
<stop offset="0.484375" stop-color="#8E478B" stop-opacity="0"/>
<stop offset="1" stop-color="#1B31F4"/>
</linearGradient>
<linearGradient id="paint2_linear_172_2" x1="-8.63204" y1="405.479" x2="77.4453" y2="405.479" gradientUnits="userSpaceOnUse">
<stop stop-color="#F95B27"/>
<stop offset="0.484375" stop-color="#8E478B" stop-opacity="0"/>
<stop offset="1" stop-color="#1B31F4"/>
</linearGradient>
<linearGradient id="paint3_linear_172_2" x1="-8.63204" y1="586.479" x2="77.4453" y2="586.479" gradientUnits="userSpaceOnUse">
<stop stop-color="#F95B27"/>
<stop offset="0.484375" stop-color="#8E478B" stop-opacity="0"/>
<stop offset="1" stop-color="#1B31F4"/>
</linearGradient>
<linearGradient id="paint4_linear_172_2" x1="-8.63204" y1="767.479" x2="77.4453" y2="767.479" gradientUnits="userSpaceOnUse">
<stop stop-color="#F95B27"/>
<stop offset="0.484375" stop-color="#8E478B" stop-opacity="0"/>
<stop offset="1" stop-color="#1B31F4"/>
</linearGradient>
<linearGradient id="paint5_linear_172_2" x1="-8.63204" y1="948.479" x2="77.4453" y2="948.479" gradientUnits="userSpaceOnUse">
<stop stop-color="#F95B27"/>
<stop offset="0.484375" stop-color="#8E478B" stop-opacity="0"/>
<stop offset="1" stop-color="#1B31F4"/>
</linearGradient>
<linearGradient id="paint6_linear_172_2" x1="95.9698" y1="-143.317" x2="95.9642" y2="1285.82" gradientUnits="userSpaceOnUse">
<stop stop-color="#F95B27"/>
<stop offset="0.484375" stop-color="#8E478B" stop-opacity="0"/>
<stop offset="1" stop-color="#1B31F4"/>
</linearGradient>
</defs>
</svg>
