<svg width="41" height="40" viewBox="0 0 41 40" fill="none" xmlns="http://www.w3.org/2000/svg">
<rect x="0.923096" width="40" height="40" rx="20" fill="#EB5934"/>
<g clip-path="url(#clip0_1_909)">
<path d="M18.4478 12H14.7733C13.7531 12 12.9231 12.83 12.9231 13.8503V17.5248C12.9231 18.545 13.7531 19.375 14.7733 19.375H18.4478C19.4681 19.375 20.2981 18.545 20.2981 17.5248V13.8503C20.2981 12.83 19.4681 12 18.4478 12ZM19.0481 17.5248C19.0481 17.8557 18.7788 18.125 18.4478 18.125H14.7733C14.4424 18.125 14.1731 17.8557 14.1731 17.5248V13.8503C14.1731 13.5193 14.4424 13.25 14.7733 13.25H18.4478C18.7788 13.25 19.0481 13.5193 19.0481 13.8503V17.5248Z" fill="#FFDCDC"/>
<path d="M27.0479 12H23.4229C22.389 12 21.5479 12.8411 21.5479 13.875V17.5C21.5479 18.5339 22.389 19.375 23.4229 19.375H27.0479C28.0817 19.375 28.9229 18.5339 28.9229 17.5V13.875C28.9229 12.8411 28.0817 12 27.0479 12ZM27.6729 17.5C27.6729 17.8446 27.3925 18.125 27.0479 18.125H23.4229C23.0782 18.125 22.7979 17.8446 22.7979 17.5V13.875C22.7979 13.5304 23.0782 13.25 23.4229 13.25H27.0479C27.3925 13.25 27.6729 13.5304 27.6729 13.875V17.5Z" fill="#FFDCDC"/>
<path d="M18.4478 20.625H14.7733C13.7531 20.625 12.9231 21.455 12.9231 22.4753V26.1497C12.9231 27.17 13.7531 28 14.7733 28H18.4478C19.4681 28 20.2981 27.17 20.2981 26.1497V22.4753C20.2981 21.455 19.4681 20.625 18.4478 20.625ZM19.0481 26.1497C19.0481 26.4807 18.7788 26.75 18.4478 26.75H14.7733C14.4424 26.75 14.1731 26.4807 14.1731 26.1497V22.4753C14.1731 22.1443 14.4424 21.875 14.7733 21.875H18.4478C18.7788 21.875 19.0481 22.1443 19.0481 22.4753V26.1497Z" fill="#FFDCDC"/>
<path d="M27.0479 20.625H23.4229C22.389 20.625 21.5479 21.4661 21.5479 22.5V26.125C21.5479 27.1589 22.389 28 23.4229 28H27.0479C28.0817 28 28.9229 27.1589 28.9229 26.125V22.5C28.9229 21.4661 28.0817 20.625 27.0479 20.625ZM27.6729 26.125C27.6729 26.4696 27.3925 26.75 27.0479 26.75H23.4229C23.0782 26.75 22.7979 26.4696 22.7979 26.125V22.5C22.7979 22.1554 23.0782 21.875 23.4229 21.875H27.0479C27.3925 21.875 27.6729 22.1554 27.6729 22.5V26.125Z" fill="#FFDCDC"/>
</g>
<defs>
<clipPath id="clip0_1_909">
<rect width="16" height="16" fill="white" transform="translate(12.9231 12)"/>
</clipPath>
</defs>
</svg>
