<svg xmlns="http://www.w3.org/2000/svg" xmlns:xlink="http://www.w3.org/1999/xlink" width="48" zoomAndPan="magnify" viewBox="0 0 36 36.000001" height="48" preserveAspectRatio="xMidYMid meet" version="1.0"><defs><clipPath id="2658af89d8"><path d="M 0.488281 0 L 35.511719 0 L 35.511719 35.027344 L 0.488281 35.027344 Z M 0.488281 0 " clip-rule="nonzero"/></clipPath><clipPath id="ddf11c87eb"><path d="M 18 0 C 8.328125 0 0.488281 7.839844 0.488281 17.511719 C 0.488281 27.1875 8.328125 35.027344 18 35.027344 C 27.671875 35.027344 35.511719 27.1875 35.511719 17.511719 C 35.511719 7.839844 27.671875 0 18 0 Z M 18 0 " clip-rule="nonzero"/></clipPath></defs><g clip-path="url(#2658af89d8)"><g clip-path="url(#ddf11c87eb)"><path fill="#ffffff" d="M 0.488281 0 L 35.511719 0 L 35.511719 35.027344 L 0.488281 35.027344 Z M 0.488281 0 " fill-opacity="1" fill-rule="nonzero"/></g></g><path fill="#000000" d="M 25.808594 16.648438 C 24.78125 13.398438 23.75 10.140625 21.292969 7.238281 C 20.949219 6.742188 20.539062 6.292969 20.09375 5.898438 C 19.625 5.488281 19.109375 5.136719 18.59375 4.871094 L 18.441406 4.792969 C 18.242188 4.6875 18.089844 4.609375 17.957031 4.5625 C 17.957031 4.5625 17.621094 4.382812 17.410156 4.515625 C 17.203125 4.648438 17.019531 5.394531 17.019531 5.394531 C 16.980469 5.585938 16.621094 7.101562 16.695312 7.972656 C 16.753906 8.648438 16.941406 9.308594 17.289062 9.878906 L 18.917969 12.007812 L 18.242188 11.195312 C 18.472656 11.488281 18.71875 11.777344 18.957031 12.0625 L 19.273438 12.472656 C 19.273438 12.472656 19.300781 12.449219 19.328125 12.449219 C 19.410156 12.449219 19.421875 12.558594 19.363281 12.585938 L 19.394531 12.625 C 19.691406 12.882812 19.941406 13.1875 20.179688 13.503906 C 20.445312 13.863281 20.714844 14.226562 21.039062 14.542969 C 21.285156 14.78125 21.535156 15.007812 21.773438 15.257812 C 21.882812 15.339844 21.984375 15.4375 22.058594 15.554688 C 22.15625 15.667969 22.261719 15.777344 22.351562 15.898438 C 22.363281 15.898438 22.371094 15.890625 22.375 15.890625 L 22.261719 15.753906 C 22.296875 15.800781 22.335938 15.847656 22.375 15.890625 C 22.40625 15.882812 22.433594 15.890625 22.453125 15.90625 C 22.746094 16.183594 22.945312 16.546875 23.203125 16.851562 C 23.394531 17.074219 23.625 17.300781 23.738281 17.582031 C 23.953125 17.875 24.167969 18.164062 24.375 18.46875 C 24.421875 18.554688 24.453125 18.640625 24.472656 18.707031 C 24.566406 18.824219 24.625 18.957031 24.695312 19.078125 C 24.714844 19.117188 24.75 19.164062 24.769531 19.203125 C 24.78125 19.171875 24.789062 19.144531 24.792969 19.109375 C 25.023438 19.480469 25.238281 19.855469 25.445312 20.246094 C 25.386719 20.238281 25.328125 20.226562 25.273438 20.214844 C 25.21875 20.207031 26.488281 20.714844 27.070312 20.941406 C 27.089844 20.914062 27.117188 20.882812 27.136719 20.859375 C 27.167969 20.828125 27.207031 20.804688 27.246094 20.789062 C 26.683594 19.4375 26.242188 18.046875 25.800781 16.648438 Z M 20.960938 14.308594 C 21.304688 14.679688 21.652344 15.070312 22 15.453125 Z M 26.039062 20.367188 C 25.570312 19.421875 21.460938 14.136719 21.085938 13.730469 C 19.941406 12.480469 18.8125 11.25 17.835938 9.867188 C 17.835938 9.859375 17.828125 9.859375 17.828125 9.851562 C 17.429688 9.304688 17.21875 8.636719 17.160156 7.9375 C 17.09375 7.128906 17.214844 6.296875 17.457031 5.554688 C 17.613281 5.105469 17.675781 4.992188 17.789062 5.03125 C 17.886719 5.0625 18.027344 5.136719 18.203125 5.230469 C 18.296875 5.277344 18.328125 5.292969 18.355469 5.308594 C 18.851562 5.5625 19.324219 5.882812 19.761719 6.269531 C 20.257812 6.707031 20.683594 7.222656 21.082031 7.746094 C 21.933594 8.863281 22.683594 10.019531 23.292969 11.28125 C 23.402344 11.5 23.484375 11.738281 23.601562 11.957031 C 23.78125 12.289062 23.886719 12.625 24.023438 12.96875 C 24.144531 13.277344 24.261719 13.578125 24.367188 13.886719 C 24.464844 14.152344 24.539062 14.449219 24.636719 14.722656 C 24.742188 15.019531 24.863281 15.308594 24.96875 15.601562 C 25.160156 16.164062 25.3125 16.738281 25.492188 17.308594 C 25.492188 17.316406 25.5 17.324219 25.5 17.328125 C 25.851562 18.425781 26.207031 19.527344 26.636719 20.617188 C 26.453125 20.5 26.242188 20.425781 26.035156 20.367188 Z M 26.039062 20.367188 " fill-opacity="1" fill-rule="nonzero"/><path fill="#000000" d="M 22.878906 16.667969 C 22.878906 16.667969 22.886719 16.6875 22.894531 16.691406 C 22.925781 16.746094 22.953125 16.796875 22.988281 16.84375 C 23.046875 16.910156 23.109375 16.980469 23.171875 17.050781 C 23.1875 17.070312 23.199219 17.082031 23.21875 17.089844 C 23.234375 17.109375 23.257812 17.121094 23.273438 17.136719 C 23.203125 17.0625 23.128906 16.976562 23.0625 16.898438 C 23.003906 16.832031 22.941406 16.746094 22.882812 16.667969 Z M 22.878906 16.667969 " fill-opacity="1" fill-rule="nonzero"/><path fill="#000000" d="M 30.066406 20.554688 C 29.941406 20.441406 29.808594 20.339844 29.652344 20.257812 C 29.632812 20.242188 29.605469 20.226562 29.578125 20.21875 C 29.570312 20.203125 29.15625 20.011719 28.800781 19.964844 C 28.746094 19.957031 28.6875 19.945312 28.632812 19.941406 L 28.609375 19.941406 C 28.527344 19.933594 28.441406 19.925781 28.355469 19.925781 C 27.878906 19.925781 27.433594 20.050781 27.085938 20.257812 C 26.933594 20.351562 26.800781 20.457031 26.6875 20.582031 C 25.367188 19.214844 24.1875 17.738281 23.003906 16.257812 C 20.5 13.113281 17.996094 9.972656 14.054688 7.8125 C 13.460938 7.410156 12.824219 7.085938 12.171875 6.847656 C 11.480469 6.59375 10.773438 6.425781 10.089844 6.355469 L 9.890625 6.335938 C 9.628906 6.304688 9.421875 6.277344 9.25 6.289062 C 8.628906 6.308594 8.523438 6.582031 8.566406 7.59375 C 8.605469 8.585938 8.84375 9.644531 9.292969 10.566406 C 9.648438 11.289062 10.132812 11.921875 10.753906 12.410156 C 10.238281 12.332031 9.722656 12.316406 9.207031 12.371094 C 9.191406 12.371094 9.113281 12.378906 9.039062 12.386719 C 8.816406 12.410156 8.648438 12.425781 8.507812 12.464844 C 7.96875 12.601562 7.921875 12.855469 8.152344 13.707031 C 8.296875 14.25 8.523438 14.8125 8.820312 15.320312 C 9.097656 15.796875 9.441406 16.242188 9.84375 16.601562 C 10.910156 17.5625 13.324219 18.222656 16.011719 18.949219 C 17.59375 19.382812 20.335938 20.125 21.875 20.679688 L 5.648438 20.679688 C 5.648438 20.679688 4.804688 20.601562 4.804688 21.625 C 4.804688 22.550781 5.535156 22.5625 5.648438 22.570312 L 5.660156 22.570312 C 5.660156 22.570312 22.859375 22.570312 22.859375 22.570312 C 22.953125 22.570312 23.039062 22.667969 23.128906 22.691406 L 22.261719 23.199219 C 21.828125 23.453125 21.867188 23.570312 22.011719 23.964844 L 22.03125 24.003906 C 22.191406 24.449219 22.324219 25.046875 22.316406 25.636719 C 22.304688 26.046875 22.230469 26.445312 22.046875 26.792969 C 22.113281 26.8125 22.191406 26.839844 22.265625 26.859375 C 22.300781 26.878906 22.347656 26.882812 22.386719 26.890625 C 22.578125 26.507812 22.65625 26.078125 22.671875 25.636719 C 22.691406 25 22.539062 24.355469 22.375 23.878906 L 22.359375 23.84375 C 22.289062 23.660156 22.273438 23.605469 22.441406 23.496094 L 23.578125 22.828125 C 23.617188 22.847656 23.664062 22.867188 23.703125 22.882812 C 23.925781 22.980469 24.148438 23.074219 24.417969 23.140625 C 24.554688 23.167969 24.703125 23.1875 24.847656 23.199219 L 23.988281 25.105469 C 23.804688 25.515625 23.835938 25.574219 24.007812 25.917969 L 24.039062 25.980469 C 24.257812 26.410156 24.375 26.792969 24.4375 27.144531 C 24.476562 27.34375 24.496094 27.773438 24.5 27.957031 L 24.859375 28.167969 C 24.851562 27.90625 24.839844 27.390625 24.785156 27.082031 C 24.714844 26.699219 24.582031 26.273438 24.355469 25.8125 L 24.324219 25.753906 C 24.210938 25.535156 24.191406 25.496094 24.308594 25.246094 L 25.222656 23.210938 C 25.355469 23.210938 25.480469 23.203125 25.621094 23.195312 C 25.777344 23.179688 25.929688 23.164062 26.089844 23.136719 L 26.660156 24.777344 C 26.683594 24.839844 26.699219 24.875 26.707031 24.914062 C 26.792969 25.175781 26.816406 25.238281 27.117188 25.414062 C 27.453125 25.605469 27.800781 25.90625 28.082031 26.265625 C 28.28125 26.511719 28.453125 26.777344 28.582031 27.054688 L 28.828125 26.742188 C 28.695312 26.492188 28.542969 26.253906 28.367188 26.042969 C 28.042969 25.652344 27.671875 25.316406 27.292969 25.105469 C 27.109375 25.007812 27.101562 24.96875 27.042969 24.8125 C 27.027344 24.765625 27.015625 24.714844 26.996094 24.660156 L 26.445312 23.054688 C 26.613281 23.015625 26.789062 22.960938 26.96875 22.902344 C 27.007812 22.882812 27.042969 22.863281 27.074219 22.839844 C 27.410156 23.082031 27.835938 23.25 28.3125 23.292969 C 28.886719 23.351562 29.4375 23.226562 29.847656 22.96875 C 30.28125 22.710938 30.574219 22.308594 30.625 21.832031 L 30.625 21.792969 C 30.652344 21.34375 30.445312 20.886719 30.070312 20.542969 Z M 9.816406 10.324219 C 9.40625 9.472656 9.179688 8.492188 9.140625 7.574219 C 9.121094 7.011719 9.140625 6.859375 9.277344 6.859375 C 9.398438 6.847656 9.582031 6.875 9.820312 6.90625 C 9.945312 6.921875 9.984375 6.921875 10.023438 6.925781 C 10.667969 6.992188 11.328125 7.148438 11.972656 7.386719 C 12.441406 7.554688 12.898438 7.777344 13.335938 8.03125 C 13.335938 8.039062 13.328125 8.039062 13.328125 8.050781 C 13.390625 8.078125 13.453125 8.109375 13.507812 8.148438 C 13.554688 8.175781 13.59375 8.207031 13.632812 8.246094 C 13.640625 8.238281 13.640625 8.226562 13.648438 8.214844 C 13.679688 8.238281 13.707031 8.261719 13.746094 8.273438 C 13.753906 8.285156 13.761719 8.285156 13.765625 8.292969 C 15.027344 8.980469 16.203125 9.8125 17.289062 10.757812 C 17.621094 11.042969 17.949219 11.332031 18.261719 11.640625 C 18.53125 11.910156 18.777344 12.203125 19.046875 12.480469 C 19.332031 12.773438 19.628906 13.0625 19.898438 13.371094 C 20.113281 13.617188 24.757812 19.316406 25.613281 20.246094 C 25.355469 20.207031 25.097656 20.207031 24.847656 20.238281 C 23.972656 19.453125 23.074219 18.757812 22.15625 18.148438 C 21.871094 17.953125 21.558594 17.785156 21.257812 17.601562 C 21.105469 17.507812 20.972656 17.402344 20.828125 17.296875 C 20.683594 17.1875 20.507812 17.117188 20.351562 17.027344 C 20.105469 16.890625 19.867188 16.757812 19.628906 16.613281 C 18.644531 16.023438 17.601562 15.546875 16.574219 15.03125 C 14.789062 14.140625 13.023438 13.253906 11.363281 12.148438 C 11.363281 12.148438 11.355469 12.144531 11.34375 12.140625 C 10.675781 11.703125 10.171875 11.058594 9.808594 10.320312 Z M 16.164062 18.417969 C 13.546875 17.703125 11.191406 17.0625 10.226562 16.191406 C 9.863281 15.871094 9.566406 15.476562 9.3125 15.046875 C 9.042969 14.578125 8.835938 14.074219 8.703125 13.570312 C 8.59375 13.15625 8.578125 13.039062 8.65625 13.015625 C 8.75 12.996094 8.902344 12.980469 9.101562 12.957031 C 9.132812 12.949219 9.171875 12.949219 9.273438 12.941406 C 9.789062 12.886719 10.300781 12.910156 10.816406 12.996094 C 11.332031 13.089844 11.847656 13.234375 12.371094 13.441406 C 13.660156 14.203125 14.988281 14.875 16.332031 15.542969 C 16.988281 15.875 17.648438 16.203125 18.3125 16.546875 L 18.304688 16.546875 C 18.484375 16.613281 18.660156 16.707031 18.820312 16.804688 C 19.273438 17.050781 19.726562 17.300781 20.175781 17.558594 C 20.527344 17.757812 20.878906 17.960938 21.21875 18.179688 C 21.433594 18.316406 21.667969 18.441406 21.867188 18.59375 C 22.089844 18.773438 22.335938 18.925781 22.574219 19.089844 C 23.121094 19.464844 23.625 19.921875 24.128906 20.351562 C 24.058594 20.367188 23.996094 20.382812 23.929688 20.398438 C 23.527344 20.484375 23.136719 20.570312 22.746094 20.558594 C 22.660156 20.558594 22.527344 20.460938 22.453125 20.429688 C 22.351562 20.398438 16.964844 18.632812 16.167969 18.414062 Z M 25.558594 22.644531 C 25.1875 22.675781 24.835938 22.65625 24.507812 22.585938 C 24.289062 22.546875 24.097656 22.453125 23.90625 22.371094 C 23.582031 22.234375 23.269531 22.09375 22.847656 22.09375 L 5.886719 22.09375 C 5.359375 22.078125 5.386719 21.632812 5.386719 21.632812 C 5.386719 21.632812 5.316406 21.125 5.886719 21.125 L 22.878906 21.125 C 23.363281 21.144531 23.582031 21.046875 24.039062 20.949219 C 24.792969 20.785156 25.539062 20.625 26.367188 21.109375 C 26.335938 21.203125 26.3125 21.300781 26.308594 21.402344 C 26.269531 21.773438 26.382812 22.125 26.605469 22.425781 C 26.242188 22.554688 25.890625 22.625 25.5625 22.644531 Z M 29.53125 22.515625 C 29.222656 22.695312 28.808594 22.800781 28.363281 22.753906 L 28.34375 22.753906 C 27.894531 22.707031 27.511719 22.53125 27.246094 22.285156 C 26.996094 22.054688 26.863281 21.769531 26.890625 21.472656 C 26.921875 21.175781 27.113281 20.917969 27.398438 20.746094 C 27.628906 20.609375 27.929688 20.515625 28.246094 20.5 C 28.214844 20.792969 28.265625 21.113281 28.421875 21.429688 C 28.605469 21.8125 28.945312 22.183594 29.445312 22.410156 C 29.5 22.433594 29.542969 22.457031 29.605469 22.480469 C 29.578125 22.488281 29.550781 22.5 29.539062 22.507812 Z M 29.53125 22.515625 " fill-opacity="1" fill-rule="nonzero"/></svg>