<?xml version="1.0" encoding="UTF-8"?><svg id="Layer_2" xmlns="http://www.w3.org/2000/svg" viewBox="0 0 76 76"><defs><style>.cls-1,.cls-2{stroke-width:0px;}.cls-2{fill:#fff;}</style></defs><g id="Layer_1-2"><circle class="cls-1" cx="38" cy="38" r="38"/><path class="cls-2" d="m52.61,35.52c-2.01-6.34-4.02-12.7-8.82-18.37-.67-.96-1.47-1.84-2.34-2.61-.91-.81-1.92-1.48-2.92-2.01l-.3-.15c-.39-.21-.69-.36-.94-.45,0,0-.66-.34-1.06-.09s-.76,1.71-.76,1.71c-.07.37-.78,3.33-.63,5.04.12,1.32.48,2.61,1.15,3.72l3.18,4.15-1.32-1.59c.45.57.93,1.14,1.39,1.69l.61.79s.06-.04.1-.04c.16,0,.18.21.07.27l.06.07c.58.49,1.06,1.09,1.53,1.71.52.7,1.05,1.41,1.68,2.02.48.46.97.91,1.44,1.39.21.16.4.36.55.58.19.22.39.43.57.67.01,0,.03-.01.04-.01l-.22-.27c.07.09.15.18.22.27.06-.01.12,0,.15.03.57.54.96,1.24,1.47,1.84.37.43.82.87,1.03,1.42.42.57.84,1.14,1.24,1.74.09.16.15.33.19.46h0c.18.22.3.48.43.72.04.07.1.16.15.24.01-.06.03-.12.04-.18h0c.45.72.87,1.45,1.27,2.22-.1-.01-.22-.03-.33-.06-.1-.01,2.37.97,3.51,1.42.04-.06.09-.12.13-.16.06-.06.13-.1.21-.13-1.09-2.64-1.95-5.35-2.82-8.08Zm-9.46-4.57c.67.73,1.35,1.48,2.02,2.23l-2.02-2.23Zm9.91,11.83c-.91-1.84-8.94-12.16-9.67-12.96-2.23-2.44-4.44-4.84-6.34-7.54,0-.01-.01-.01-.01-.03-.78-1.06-1.18-2.37-1.3-3.73-.13-1.57.1-3.21.58-4.65.3-.88.42-1.09.64-1.02.19.06.46.21.81.39.18.09.24.12.3.15.96.49,1.89,1.12,2.74,1.87.97.85,1.8,1.86,2.58,2.88,1.66,2.17,3.13,4.44,4.32,6.9.21.43.37.9.6,1.32.34.64.55,1.3.82,1.98.24.6.46,1.18.67,1.78.19.52.33,1.09.52,1.63.21.57.45,1.14.64,1.71.37,1.09.67,2.22,1.02,3.33,0,.01.01.03.01.04h0c.69,2.14,1.38,4.29,2.22,6.42-.36-.22-.76-.37-1.17-.48Z"/><path class="cls-2" d="m46.88,35.57s.01.03.03.04c.06.1.12.21.18.3.12.13.24.27.36.4.03.03.06.06.09.07.03.03.07.06.1.09-.13-.15-.28-.31-.4-.46-.12-.13-.24-.3-.36-.45Z"/><path class="cls-2" d="m60.91,43.16c-.24-.22-.51-.42-.81-.58-.04-.03-.09-.06-.15-.07-.01-.03-.82-.4-1.51-.49-.1-.01-.22-.03-.33-.04h-.04c-.16-.01-.33-.03-.49-.03-.93,0-1.8.24-2.47.64-.3.18-.55.39-.78.63-2.58-2.67-4.87-5.55-7.18-8.44-4.89-6.13-9.78-12.27-17.47-16.48-1.15-.78-2.4-1.41-3.67-1.87-1.35-.49-2.73-.82-4.06-.96l-.39-.04c-.51-.06-.91-.1-1.24-.09-1.21.04-1.42.57-1.33,2.55.07,1.93.54,4,1.42,5.8.69,1.41,1.63,2.65,2.85,3.6-1-.15-2.01-.18-3.01-.07-.03,0-.18.01-.33.03-.43.04-.76.07-1.03.15-1.05.27-1.14.76-.69,2.43.28,1.06.72,2.16,1.3,3.15.54.93,1.21,1.8,1.99,2.5,2.08,1.87,6.79,3.16,12.04,4.59,3.09.84,8.44,2.3,11.45,3.38H13.25s-1.65-.15-1.65,1.85c0,1.81,1.43,1.83,1.65,1.84h.01s33.58,0,33.58,0c.18,0,.34.19.52.24l-1.69.99c-.84.49-.76.72-.48,1.5l.03.07c.31.87.57,2.04.55,3.19-.01.79-.16,1.57-.52,2.25.13.04.28.09.42.13.07.03.16.04.24.06.37-.75.52-1.59.55-2.44.03-1.24-.25-2.5-.58-3.43l-.03-.07c-.13-.36-.16-.46.16-.67l2.22-1.3c.07.03.16.07.24.1.43.19.87.37,1.39.49.27.06.55.09.84.12l-1.68,3.72c-.36.79-.3.91.04,1.59l.06.12c.42.84.66,1.59.78,2.28.07.39.1,1.23.12,1.59l.7.4c-.01-.51-.04-1.52-.15-2.12-.13-.75-.39-1.57-.84-2.47l-.06-.12c-.22-.42-.25-.49-.03-.99l1.78-3.97c.25,0,.51-.01.78-.03.3-.03.6-.06.91-.12h0l1.11,3.21c.04.12.07.19.09.27.16.51.21.63.79.97.66.37,1.33.96,1.89,1.66.39.48.72,1,.97,1.54l.48-.61c-.25-.48-.55-.94-.9-1.36-.63-.76-1.36-1.42-2.1-1.83-.36-.19-.37-.27-.48-.57-.03-.09-.06-.19-.09-.3l-1.08-3.13c.33-.07.67-.18,1.02-.3.07-.03.15-.07.21-.12.66.46,1.48.79,2.41.88h0c1.12.12,2.19-.13,3-.63.84-.51,1.41-1.29,1.51-2.22v-.07c.06-.88-.34-1.77-1.08-2.44ZM21.38,23.18c-.81-1.66-1.24-3.57-1.32-5.37-.04-1.09,0-1.39.27-1.39.24-.01.6.03,1.06.09.24.03.31.03.39.04,1.26.13,2.55.43,3.81.9.91.33,1.81.76,2.67,1.26,0,.01-.01.01-.01.03.12.06.24.12.34.19.09.06.16.12.24.19.01-.01.01-.03.03-.06.06.04.12.09.19.12.01.01.03.01.04.03,2.46,1.35,4.75,2.97,6.87,4.81.64.55,1.29,1.12,1.9,1.72.52.52,1,1.09,1.53,1.63.55.57,1.14,1.14,1.66,1.74.42.48,9.49,11.61,11.16,13.42-.51-.07-1-.07-1.5-.01-1.71-1.53-3.46-2.88-5.25-4.08-.55-.37-1.17-.7-1.75-1.06-.3-.18-.55-.39-.84-.6-.28-.21-.63-.34-.93-.52-.48-.27-.94-.52-1.41-.81-1.92-1.15-3.96-2.08-5.97-3.09-3.48-1.74-6.93-3.46-10.17-5.62t-.03-.01c-1.3-.85-2.29-2.11-3-3.55Zm12.39,15.81c-5.11-1.39-9.7-2.65-11.59-4.35-.7-.63-1.29-1.39-1.78-2.23-.52-.91-.93-1.9-1.18-2.88-.21-.81-.24-1.03-.09-1.08.18-.04.48-.07.87-.12.06-.01.13-.01.33-.03,1-.1,2.01-.06,3.01.1,1,.18,2.01.46,3.03.87,2.52,1.48,5.11,2.79,7.72,4.09,1.29.64,2.58,1.29,3.87,1.96h-.01c.34.13.69.31,1,.51.88.48,1.77.96,2.64,1.47.69.39,1.38.78,2.04,1.21.42.27.88.51,1.27.81.43.34.91.64,1.38.97,1.06.73,2.05,1.62,3.03,2.46-.13.03-.25.06-.39.09-.78.16-1.54.33-2.31.31-.16,0-.42-.19-.57-.25-.19-.06-10.71-3.51-12.27-3.93Zm18.34,8.25c-.72.06-1.41.01-2.05-.12-.42-.07-.79-.25-1.17-.42-.63-.27-1.24-.54-2.07-.54H13.72c-1.03-.03-.98-.9-.98-.9,0,0-.14-.99.98-.99h33.16c.94.03,1.38-.16,2.26-.35,1.47-.31,2.92-.63,4.54.31-.06.18-.1.37-.12.57-.07.72.15,1.41.58,1.99-.7.25-1.39.39-2.04.43Zm7.75-.25h0c-.6.36-1.41.55-2.28.46h-.04c-.87-.09-1.62-.43-2.14-.91-.48-.45-.75-1-.69-1.59.06-.57.43-1.08.99-1.41.45-.27,1.03-.45,1.65-.48-.06.57.04,1.2.34,1.81.36.75,1.02,1.47,1.99,1.92.1.04.19.09.31.13-.06.01-.1.04-.13.06Z"/></g></svg>