<?xml version="1.0" encoding="UTF-8"?><svg id="Layer_2" xmlns="http://www.w3.org/2000/svg" viewBox="0 0 72 72"><defs><style>.cls-1,.cls-2{stroke-width:0px;}.cls-2{fill:none;}</style></defs><g id="Layer_1-2"><rect class="cls-2" width="72" height="72"/><path class="cls-1" d="m54.69,34.31c-2.42-7.63-4.84-15.29-10.61-22.11-.81-1.16-1.77-2.22-2.82-3.14-1.1-.97-2.31-1.79-3.52-2.42l-.36-.18c-.47-.25-.83-.43-1.14-.54,0,0-.79-.42-1.28-.11s-.92,2.06-.92,2.06c-.09.45-.94,4.01-.76,6.06.14,1.59.58,3.14,1.39,4.48l3.83,5-1.59-1.91c.54.69,1.12,1.37,1.68,2.04l.74.96s.07-.05.13-.05c.2,0,.22.25.09.32l.07.09c.7.6,1.28,1.32,1.84,2.06.63.85,1.26,1.7,2.02,2.44.58.56,1.17,1.1,1.73,1.68.25.2.49.43.67.7.23.27.47.52.69.81.02,0,.04-.02.05-.02l-.27-.32c.09.11.18.22.27.32.07-.02.14,0,.18.04.69.65,1.16,1.5,1.77,2.22.45.52.99,1.05,1.25,1.71.51.69,1.01,1.37,1.5,2.09.11.2.18.4.23.56h0c.22.27.36.58.52.87.05.09.13.2.18.29.02-.07.04-.14.05-.22h0c.54.87,1.05,1.75,1.53,2.67-.13-.02-.27-.04-.4-.07-.13-.02,2.85,1.17,4.22,1.71.05-.07.11-.14.16-.2.07-.07.16-.13.25-.16-1.32-3.18-2.35-6.44-3.39-9.73Zm-11.39-5.5c.81.88,1.62,1.79,2.44,2.69l-2.44-2.69Zm11.93,14.24c-1.1-2.22-10.76-14.64-11.64-15.59-2.69-2.94-5.34-5.83-7.63-9.08,0-.02-.02-.02-.02-.04-.94-1.28-1.43-2.85-1.57-4.49-.16-1.9.13-3.86.7-5.6.36-1.06.51-1.32.78-1.23.23.07.56.25.97.47.22.11.29.14.36.18,1.16.6,2.27,1.35,3.3,2.26,1.17,1.03,2.17,2.24,3.1,3.47,2,2.62,3.77,5.34,5.2,8.3.25.52.45,1.08.72,1.59.42.78.67,1.57.99,2.38.29.72.56,1.43.81,2.15.23.63.4,1.32.63,1.97.25.69.54,1.37.78,2.06.45,1.32.81,2.67,1.23,4.01,0,.02.02.04.02.05h0c.83,2.58,1.66,5.16,2.67,7.72-.43-.27-.92-.45-1.41-.58Z"/><path class="cls-1" d="m47.8,34.36s.02.04.04.05c.07.13.14.25.22.36.14.16.29.32.43.49.04.04.07.07.11.09.04.04.09.07.13.11-.16-.18-.34-.38-.49-.56-.14-.16-.29-.36-.43-.54Z"/><path class="cls-1" d="m64.69,43.49c-.29-.27-.61-.51-.97-.7-.05-.04-.11-.07-.18-.09-.02-.04-.99-.49-1.82-.6-.13-.02-.27-.04-.4-.05h-.05c-.2-.02-.4-.04-.6-.04-1.12,0-2.17.29-2.98.78-.36.22-.67.47-.94.76-3.1-3.21-5.87-6.68-8.65-10.16-5.88-7.38-11.77-14.76-21.03-19.84-1.39-.94-2.89-1.7-4.42-2.26-1.62-.6-3.28-.99-4.89-1.16l-.47-.05c-.61-.07-1.1-.13-1.5-.11-1.46.05-1.71.69-1.61,3.07.09,2.33.65,4.82,1.71,6.98.83,1.7,1.97,3.19,3.43,4.33-1.21-.18-2.42-.22-3.63-.09-.04,0-.22.02-.4.04-.52.05-.92.09-1.25.18-1.26.32-1.37.92-.83,2.92.34,1.28.87,2.6,1.57,3.79.65,1.12,1.46,2.17,2.4,3.01,2.51,2.26,8.18,3.81,14.49,5.52,3.72,1.01,10.16,2.76,13.78,4.06H7.33s-1.99-.18-1.99,2.22c0,2.18,1.72,2.2,1.99,2.22h.02s40.41,0,40.41,0c.22,0,.42.23.63.29l-2.04,1.19c-1.01.6-.92.87-.58,1.8l.04.09c.38,1.05.69,2.45.67,3.84-.02.96-.2,1.9-.63,2.71.16.05.34.11.51.16.09.04.2.05.29.07.45-.9.63-1.91.67-2.94.04-1.5-.31-3.01-.7-4.13l-.04-.09c-.16-.43-.2-.56.2-.81l2.67-1.57c.09.04.2.09.29.13.52.23,1.05.45,1.68.6.32.07.67.11,1.01.14l-2.02,4.48c-.43.96-.36,1.1.05,1.91l.07.14c.51,1.01.79,1.91.94,2.74.09.47.13,1.48.14,1.91l.85.49c-.02-.61-.05-1.82-.18-2.55-.16-.9-.47-1.9-1.01-2.98l-.07-.14c-.27-.51-.31-.6-.04-1.19l2.15-4.78c.31,0,.61-.02.94-.04.36-.04.72-.07,1.1-.14h0l1.34,3.86c.05.14.09.23.11.32.2.61.25.76.96,1.17.79.45,1.61,1.16,2.27,2,.47.58.87,1.21,1.17,1.86l.58-.74c-.31-.58-.67-1.14-1.08-1.64-.76-.92-1.64-1.71-2.53-2.2-.43-.23-.45-.32-.58-.69-.04-.11-.07-.23-.11-.36l-1.3-3.77c.4-.09.81-.22,1.23-.36.09-.04.18-.09.25-.14.79.56,1.79.96,2.91,1.06h0c1.35.14,2.64-.16,3.61-.76,1.01-.61,1.7-1.55,1.82-2.67v-.09c.07-1.06-.42-2.13-1.3-2.94ZM17.12,19.45c-.97-2-1.5-4.3-1.59-6.46-.05-1.32,0-1.68.32-1.68.29-.02.72.04,1.28.11.29.04.38.04.47.05,1.52.16,3.07.52,4.58,1.08,1.1.4,2.18.92,3.21,1.52,0,.02-.02.02-.02.04.14.07.29.14.42.23.11.07.2.14.29.23.02-.02.02-.04.04-.07.07.05.14.11.23.14.02.02.04.02.05.04,2.96,1.62,5.72,3.57,8.27,5.79.78.67,1.55,1.35,2.29,2.08.63.63,1.21,1.32,1.84,1.97.67.69,1.37,1.37,2,2.09.51.58,11.42,13.97,13.43,16.15-.61-.09-1.21-.09-1.8-.02-2.06-1.84-4.17-3.47-6.32-4.91-.67-.45-1.41-.85-2.11-1.28-.36-.22-.67-.47-1.01-.72-.34-.25-.76-.42-1.12-.63-.58-.32-1.14-.63-1.7-.97-2.31-1.39-4.76-2.51-7.18-3.72-4.19-2.09-8.34-4.17-12.24-6.77t-.04-.02c-1.57-1.03-2.76-2.54-3.61-4.28Zm14.91,19.02c-6.15-1.68-11.68-3.19-13.95-5.23-.85-.76-1.55-1.68-2.15-2.69-.63-1.1-1.12-2.29-1.43-3.47-.25-.97-.29-1.25-.11-1.3.22-.05.58-.09,1.05-.14.07-.02.16-.02.4-.04,1.21-.13,2.42-.07,3.63.13,1.21.22,2.42.56,3.65,1.05,3.03,1.79,6.15,3.36,9.3,4.93,1.55.78,3.1,1.55,4.66,2.36h-.02c.42.16.83.38,1.21.61,1.06.58,2.13,1.16,3.18,1.77.83.47,1.66.94,2.45,1.46.51.32,1.06.61,1.53.97.52.42,1.1.78,1.66,1.17,1.28.88,2.47,1.95,3.65,2.96-.16.04-.31.07-.47.11-.94.2-1.86.4-2.78.38-.2,0-.51-.23-.69-.31-.23-.07-12.89-4.22-14.76-4.73Zm22.07,9.93c-.87.07-1.7.02-2.47-.14-.51-.09-.96-.31-1.41-.51-.76-.32-1.5-.65-2.49-.65H7.89c-1.24-.03-1.18-1.08-1.18-1.08,0,0-.16-1.19,1.18-1.19h39.91c1.14.04,1.66-.19,2.73-.42,1.77-.38,3.52-.76,5.47.38-.07.22-.13.45-.14.69-.09.87.18,1.7.7,2.4-.85.31-1.68.47-2.45.52Zm9.33-.31h0c-.72.43-1.7.67-2.74.56h-.05c-1.05-.11-1.95-.52-2.58-1.1-.58-.54-.9-1.21-.83-1.91.07-.69.52-1.3,1.19-1.7.54-.32,1.25-.54,1.99-.58-.07.69.05,1.44.42,2.18.43.9,1.23,1.77,2.4,2.31.13.05.23.11.38.16-.07.02-.13.05-.16.07Z"/></g></svg>