<svg xmlns="http://www.w3.org/2000/svg" xmlns:xlink="http://www.w3.org/1999/xlink" width="500" zoomAndPan="magnify" viewBox="0 0 375 374.999991" height="500" preserveAspectRatio="xMidYMid meet" version="1.0"><defs><clipPath id="30a3076850"><path d="M 81.339844 120.132812 L 126.117188 120.132812 L 126.117188 164.910156 L 81.339844 164.910156 Z M 81.339844 120.132812 " clip-rule="nonzero"/></clipPath><clipPath id="80c3591dfb"><path d="M 103.730469 120.132812 C 91.363281 120.132812 81.339844 130.15625 81.339844 142.523438 C 81.339844 154.886719 91.363281 164.910156 103.730469 164.910156 C 116.09375 164.910156 126.117188 154.886719 126.117188 142.523438 C 126.117188 130.15625 116.09375 120.132812 103.730469 120.132812 Z M 103.730469 120.132812 " clip-rule="nonzero"/></clipPath><clipPath id="cd75c3b9a0"><path d="M 89.601562 128.296875 L 117.859375 128.296875 L 117.859375 156.554688 L 89.601562 156.554688 Z M 89.601562 128.296875 " clip-rule="nonzero"/></clipPath><clipPath id="9f59bc86ad"><path d="M 103.730469 128.296875 C 95.925781 128.296875 89.601562 134.625 89.601562 142.425781 C 89.601562 150.230469 95.925781 156.554688 103.730469 156.554688 C 111.53125 156.554688 117.859375 150.230469 117.859375 142.425781 C 117.859375 134.625 111.53125 128.296875 103.730469 128.296875 Z M 103.730469 128.296875 " clip-rule="nonzero"/></clipPath><clipPath id="d047f4d68a"><path d="M 248.882812 208.75 L 293.660156 208.75 L 293.660156 253.527344 L 248.882812 253.527344 Z M 248.882812 208.75 " clip-rule="nonzero"/></clipPath><clipPath id="94cf998540"><path d="M 271.269531 208.75 C 258.90625 208.75 248.882812 218.773438 248.882812 231.136719 C 248.882812 243.503906 258.90625 253.527344 271.269531 253.527344 C 283.636719 253.527344 293.660156 243.503906 293.660156 231.136719 C 293.660156 218.773438 283.636719 208.75 271.269531 208.75 Z M 271.269531 208.75 " clip-rule="nonzero"/></clipPath><clipPath id="8be107f4df"><path d="M 248.882812 208.75 L 293.648438 208.75 L 293.648438 253.515625 L 248.882812 253.515625 Z M 248.882812 208.75 " clip-rule="nonzero"/></clipPath><clipPath id="5a3227ae8e"><path d="M 271.265625 208.75 C 258.902344 208.75 248.882812 218.769531 248.882812 231.132812 C 248.882812 243.492188 258.902344 253.515625 271.265625 253.515625 C 283.625 253.515625 293.648438 243.492188 293.648438 231.132812 C 293.648438 218.769531 283.625 208.75 271.265625 208.75 Z M 271.265625 208.75 " clip-rule="nonzero"/></clipPath><clipPath id="e462465367"><path d="M 257.140625 216.914062 L 285.398438 216.914062 L 285.398438 245.171875 L 257.140625 245.171875 Z M 257.140625 216.914062 " clip-rule="nonzero"/></clipPath><clipPath id="e5a8074de7"><path d="M 271.269531 216.914062 C 263.46875 216.914062 257.140625 223.238281 257.140625 231.042969 C 257.140625 238.84375 263.46875 245.171875 271.269531 245.171875 C 279.074219 245.171875 285.398438 238.84375 285.398438 231.042969 C 285.398438 223.238281 279.074219 216.914062 271.269531 216.914062 Z M 271.269531 216.914062 " clip-rule="nonzero"/></clipPath><clipPath id="bfe02dd83c"><path d="M 165.183594 42.757812 L 209.960938 42.757812 L 209.960938 87.535156 L 165.183594 87.535156 Z M 165.183594 42.757812 " clip-rule="nonzero"/></clipPath><clipPath id="9fd6fa2682"><path d="M 187.570312 42.757812 C 175.207031 42.757812 165.183594 52.78125 165.183594 65.148438 C 165.183594 77.511719 175.207031 87.535156 187.570312 87.535156 C 199.9375 87.535156 209.960938 77.511719 209.960938 65.148438 C 209.960938 52.78125 199.9375 42.757812 187.570312 42.757812 Z M 187.570312 42.757812 " clip-rule="nonzero"/></clipPath><clipPath id="b3b1a873e9"><path d="M 173.441406 50.921875 L 201.699219 50.921875 L 201.699219 79.179688 L 173.441406 79.179688 Z M 173.441406 50.921875 " clip-rule="nonzero"/></clipPath><clipPath id="48593d898c"><path d="M 187.570312 50.921875 C 179.769531 50.921875 173.441406 57.25 173.441406 65.050781 C 173.441406 72.855469 179.769531 79.179688 187.570312 79.179688 C 195.375 79.179688 201.699219 72.855469 201.699219 65.050781 C 201.699219 57.25 195.375 50.921875 187.570312 50.921875 Z M 187.570312 50.921875 " clip-rule="nonzero"/></clipPath><clipPath id="411a310a50"><path d="M 163.976562 287.464844 L 208.753906 287.464844 L 208.753906 332.242188 L 163.976562 332.242188 Z M 163.976562 287.464844 " clip-rule="nonzero"/></clipPath><clipPath id="76f0c79957"><path d="M 186.367188 287.464844 C 174 287.464844 163.976562 297.488281 163.976562 309.851562 C 163.976562 322.21875 174 332.242188 186.367188 332.242188 C 198.730469 332.242188 208.753906 322.21875 208.753906 309.851562 C 208.753906 297.488281 198.730469 287.464844 186.367188 287.464844 Z M 186.367188 287.464844 " clip-rule="nonzero"/></clipPath><clipPath id="dad7b53f19"><path d="M 172.238281 295.628906 L 200.496094 295.628906 L 200.496094 323.882812 L 172.238281 323.882812 Z M 172.238281 295.628906 " clip-rule="nonzero"/></clipPath><clipPath id="eb6ca029d2"><path d="M 186.367188 295.628906 C 178.5625 295.628906 172.238281 301.953125 172.238281 309.757812 C 172.238281 317.558594 178.5625 323.882812 186.367188 323.882812 C 194.167969 323.882812 200.496094 317.558594 200.496094 309.757812 C 200.496094 301.953125 194.167969 295.628906 186.367188 295.628906 Z M 186.367188 295.628906 " clip-rule="nonzero"/></clipPath><clipPath id="085410ea61"><path d="M 81.484375 208.75 L 126.261719 208.75 L 126.261719 253.527344 L 81.484375 253.527344 Z M 81.484375 208.75 " clip-rule="nonzero"/></clipPath><clipPath id="7260fdd887"><path d="M 103.871094 208.75 C 91.507812 208.75 81.484375 218.773438 81.484375 231.136719 C 81.484375 243.503906 91.507812 253.527344 103.871094 253.527344 C 116.238281 253.527344 126.261719 243.503906 126.261719 231.136719 C 126.261719 218.773438 116.238281 208.75 103.871094 208.75 Z M 103.871094 208.75 " clip-rule="nonzero"/></clipPath><clipPath id="ac0d161fc7"><path d="M 89.742188 216.914062 L 118 216.914062 L 118 245.171875 L 89.742188 245.171875 Z M 89.742188 216.914062 " clip-rule="nonzero"/></clipPath><clipPath id="bf42afbd1f"><path d="M 103.871094 216.914062 C 96.070312 216.914062 89.742188 223.238281 89.742188 231.042969 C 89.742188 238.84375 96.070312 245.171875 103.871094 245.171875 C 111.675781 245.171875 118 238.84375 118 231.042969 C 118 223.238281 111.675781 216.914062 103.871094 216.914062 Z M 103.871094 216.914062 " clip-rule="nonzero"/></clipPath><clipPath id="644a479ad0"><path d="M 165.183594 208.75 L 209.960938 208.75 L 209.960938 253.527344 L 165.183594 253.527344 Z M 165.183594 208.75 " clip-rule="nonzero"/></clipPath><clipPath id="da9fd7eea3"><path d="M 187.570312 208.75 C 175.207031 208.75 165.183594 218.773438 165.183594 231.136719 C 165.183594 243.503906 175.207031 253.527344 187.570312 253.527344 C 199.9375 253.527344 209.960938 243.503906 209.960938 231.136719 C 209.960938 218.773438 199.9375 208.75 187.570312 208.75 Z M 187.570312 208.75 " clip-rule="nonzero"/></clipPath><clipPath id="98d1e5b74a"><path d="M 173.441406 216.914062 L 201.699219 216.914062 L 201.699219 245.171875 L 173.441406 245.171875 Z M 173.441406 216.914062 " clip-rule="nonzero"/></clipPath><clipPath id="5cbaa8e62f"><path d="M 187.570312 216.914062 C 179.769531 216.914062 173.441406 223.238281 173.441406 231.042969 C 173.441406 238.84375 179.769531 245.171875 187.570312 245.171875 C 195.375 245.171875 201.699219 238.84375 201.699219 231.042969 C 201.699219 223.238281 195.375 216.914062 187.570312 216.914062 Z M 187.570312 216.914062 " clip-rule="nonzero"/></clipPath><clipPath id="ea2955b7f8"><path d="M 248.882812 287.464844 L 293.660156 287.464844 L 293.660156 332.242188 L 248.882812 332.242188 Z M 248.882812 287.464844 " clip-rule="nonzero"/></clipPath><clipPath id="da0b986c11"><path d="M 271.269531 287.464844 C 258.90625 287.464844 248.882812 297.488281 248.882812 309.851562 C 248.882812 322.21875 258.90625 332.242188 271.269531 332.242188 C 283.636719 332.242188 293.660156 322.21875 293.660156 309.851562 C 293.660156 297.488281 283.636719 287.464844 271.269531 287.464844 Z M 271.269531 287.464844 " clip-rule="nonzero"/></clipPath><clipPath id="49c729801e"><path d="M 257.140625 295.628906 L 285.398438 295.628906 L 285.398438 323.882812 L 257.140625 323.882812 Z M 257.140625 295.628906 " clip-rule="nonzero"/></clipPath><clipPath id="efd7f93ff5"><path d="M 271.269531 295.628906 C 263.46875 295.628906 257.140625 301.953125 257.140625 309.757812 C 257.140625 317.558594 263.46875 323.882812 271.269531 323.882812 C 279.074219 323.882812 285.398438 317.558594 285.398438 309.757812 C 285.398438 301.953125 279.074219 295.628906 271.269531 295.628906 Z M 271.269531 295.628906 " clip-rule="nonzero"/></clipPath><clipPath id="f4e30dab2e"><path d="M 248.882812 120.132812 L 293.660156 120.132812 L 293.660156 164.910156 L 248.882812 164.910156 Z M 248.882812 120.132812 " clip-rule="nonzero"/></clipPath><clipPath id="0eb907b455"><path d="M 271.269531 120.132812 C 258.90625 120.132812 248.882812 130.15625 248.882812 142.523438 C 248.882812 154.886719 258.90625 164.910156 271.269531 164.910156 C 283.636719 164.910156 293.660156 154.886719 293.660156 142.523438 C 293.660156 130.15625 283.636719 120.132812 271.269531 120.132812 Z M 271.269531 120.132812 " clip-rule="nonzero"/></clipPath><clipPath id="d2daaa04e9"><path d="M 257.140625 128.296875 L 285.398438 128.296875 L 285.398438 156.554688 L 257.140625 156.554688 Z M 257.140625 128.296875 " clip-rule="nonzero"/></clipPath><clipPath id="fc10b3099b"><path d="M 271.269531 128.296875 C 263.46875 128.296875 257.140625 134.625 257.140625 142.425781 C 257.140625 150.230469 263.46875 156.554688 271.269531 156.554688 C 279.074219 156.554688 285.398438 150.230469 285.398438 142.425781 C 285.398438 134.625 279.074219 128.296875 271.269531 128.296875 Z M 271.269531 128.296875 " clip-rule="nonzero"/></clipPath></defs><rect x="-37.5" width="450" fill="#ffffff" y="-37.499999" height="449.999989" fill-opacity="1"/><rect x="-37.5" width="450" fill="#ffffff" y="-37.499999" height="449.999989" fill-opacity="1"/><g clip-path="url(#30a3076850)"><g clip-path="url(#80c3591dfb)"><path fill="#000000" d="M 81.339844 120.132812 L 126.117188 120.132812 L 126.117188 164.910156 L 81.339844 164.910156 Z M 81.339844 120.132812 " fill-opacity="1" fill-rule="nonzero"/></g></g><g clip-path="url(#cd75c3b9a0)"><g clip-path="url(#9f59bc86ad)"><path fill="#ffffff" d="M 89.601562 128.296875 L 117.859375 128.296875 L 117.859375 156.554688 L 89.601562 156.554688 Z M 89.601562 128.296875 " fill-opacity="1" fill-rule="nonzero"/></g></g><g clip-path="url(#d047f4d68a)"><g clip-path="url(#94cf998540)"><path fill="#f68026" d="M 248.882812 208.75 L 293.660156 208.75 L 293.660156 253.527344 L 248.882812 253.527344 Z M 248.882812 208.75 " fill-opacity="1" fill-rule="nonzero"/></g></g><g clip-path="url(#8be107f4df)"><g clip-path="url(#5a3227ae8e)"><path stroke-linecap="butt" transform="matrix(1.33192, 0, 0, 1.33192, 248.881805, 208.749346)" fill="none" stroke-linejoin="miter" d="M 16.805685 0.000490801 C 7.523382 0.000490801 0.00075646 7.523116 0.00075646 16.80542 C 0.00075646 26.08479 7.523382 33.610348 16.805685 33.610348 C 26.085056 33.610348 33.610614 26.08479 33.610614 16.80542 C 33.610614 7.523116 26.085056 0.000490801 16.805685 0.000490801 Z M 16.805685 0.000490801 " stroke="#000000" stroke-width="9.009553" stroke-opacity="1" stroke-miterlimit="4"/></g></g><g clip-path="url(#e462465367)"><g clip-path="url(#e5a8074de7)"><path fill="#f68026" d="M 257.140625 216.914062 L 285.398438 216.914062 L 285.398438 245.171875 L 257.140625 245.171875 Z M 257.140625 216.914062 " fill-opacity="1" fill-rule="nonzero"/></g></g><g clip-path="url(#bfe02dd83c)"><g clip-path="url(#9fd6fa2682)"><path fill="#000000" d="M 165.183594 42.757812 L 209.960938 42.757812 L 209.960938 87.535156 L 165.183594 87.535156 Z M 165.183594 42.757812 " fill-opacity="1" fill-rule="nonzero"/></g></g><g clip-path="url(#b3b1a873e9)"><g clip-path="url(#48593d898c)"><path fill="#ffffff" d="M 173.441406 50.921875 L 201.699219 50.921875 L 201.699219 79.179688 L 173.441406 79.179688 Z M 173.441406 50.921875 " fill-opacity="1" fill-rule="nonzero"/></g></g><g clip-path="url(#411a310a50)"><g clip-path="url(#76f0c79957)"><path fill="#000000" d="M 163.976562 287.464844 L 208.753906 287.464844 L 208.753906 332.242188 L 163.976562 332.242188 Z M 163.976562 287.464844 " fill-opacity="1" fill-rule="nonzero"/></g></g><g clip-path="url(#dad7b53f19)"><g clip-path="url(#eb6ca029d2)"><path fill="#ffffff" d="M 172.238281 295.628906 L 200.496094 295.628906 L 200.496094 323.882812 L 172.238281 323.882812 Z M 172.238281 295.628906 " fill-opacity="1" fill-rule="nonzero"/></g></g><g clip-path="url(#085410ea61)"><g clip-path="url(#7260fdd887)"><path fill="#000000" d="M 81.484375 208.75 L 126.261719 208.75 L 126.261719 253.527344 L 81.484375 253.527344 Z M 81.484375 208.75 " fill-opacity="1" fill-rule="nonzero"/></g></g><g clip-path="url(#ac0d161fc7)"><g clip-path="url(#bf42afbd1f)"><path fill="#ffffff" d="M 89.742188 216.914062 L 118 216.914062 L 118 245.171875 L 89.742188 245.171875 Z M 89.742188 216.914062 " fill-opacity="1" fill-rule="nonzero"/></g></g><g clip-path="url(#644a479ad0)"><g clip-path="url(#da9fd7eea3)"><path fill="#000000" d="M 165.183594 208.75 L 209.960938 208.75 L 209.960938 253.527344 L 165.183594 253.527344 Z M 165.183594 208.75 " fill-opacity="1" fill-rule="nonzero"/></g></g><g clip-path="url(#98d1e5b74a)"><g clip-path="url(#5cbaa8e62f)"><path fill="#ffffff" d="M 173.441406 216.914062 L 201.699219 216.914062 L 201.699219 245.171875 L 173.441406 245.171875 Z M 173.441406 216.914062 " fill-opacity="1" fill-rule="nonzero"/></g></g><g clip-path="url(#ea2955b7f8)"><g clip-path="url(#da0b986c11)"><path fill="#000000" d="M 248.882812 287.464844 L 293.660156 287.464844 L 293.660156 332.242188 L 248.882812 332.242188 Z M 248.882812 287.464844 " fill-opacity="1" fill-rule="nonzero"/></g></g><g clip-path="url(#49c729801e)"><g clip-path="url(#efd7f93ff5)"><path fill="#ffffff" d="M 257.140625 295.628906 L 285.398438 295.628906 L 285.398438 323.882812 L 257.140625 323.882812 Z M 257.140625 295.628906 " fill-opacity="1" fill-rule="nonzero"/></g></g><g clip-path="url(#f4e30dab2e)"><g clip-path="url(#0eb907b455)"><path fill="#000000" d="M 248.882812 120.132812 L 293.660156 120.132812 L 293.660156 164.910156 L 248.882812 164.910156 Z M 248.882812 120.132812 " fill-opacity="1" fill-rule="nonzero"/></g></g><g clip-path="url(#d2daaa04e9)"><g clip-path="url(#fc10b3099b)"><path fill="#ffffff" d="M 257.140625 128.296875 L 285.398438 128.296875 L 285.398438 156.554688 L 257.140625 156.554688 Z M 257.140625 128.296875 " fill-opacity="1" fill-rule="nonzero"/></g></g><path stroke-linecap="butt" transform="matrix(-0.550727, -0.509116, 0.509116, -0.550727, 246.33444, 124.57905)" fill="none" stroke-linejoin="miter" d="M 0.00217296 5.00016 L 70.675215 4.999577 " stroke="#000000" stroke-width="10" stroke-opacity="1" stroke-miterlimit="4"/><path stroke-linecap="butt" transform="matrix(-0.551157, 0.508651, -0.508651, -0.551157, 167.7245, 88.565766)" fill="none" stroke-linejoin="miter" d="M 0.00026837 5.002768 L 70.878191 4.998164 " stroke="#000000" stroke-width="10" stroke-opacity="1" stroke-miterlimit="4"/><path stroke-linecap="butt" transform="matrix(0.00120023, 0.749999, -0.749999, 0.00120023, 107.510637, 164.910356)" fill="none" stroke-linejoin="miter" d="M 0.0021506 4.998568 L 58.450143 4.998353 " stroke="#000000" stroke-width="10" stroke-opacity="1" stroke-miterlimit="4"/><path stroke-linecap="butt" transform="matrix(0.542618, 0.51775, -0.51775, 0.542618, 128.847565, 249.79015)" fill="none" stroke-linejoin="miter" d="M -0.00035227 5.001563 L 69.510455 4.999777 " stroke="#000000" stroke-width="10" stroke-opacity="1" stroke-miterlimit="4"/><path stroke-linecap="butt" transform="matrix(0.75, 0, 0, 0.75, 209.959371, 227.387812)" fill="none" stroke-linejoin="miter" d="M 0.00208905 4.998542 L 51.897926 4.998542 " stroke="#000000" stroke-width="10" stroke-opacity="1" stroke-miterlimit="4"/><path stroke-linecap="butt" transform="matrix(0, 0.75, -0.75, 0, 275.020239, 253.526321)" fill="none" stroke-linejoin="miter" d="M 0.00136373 5.000944 L 45.251367 5.000944 " stroke="#000000" stroke-width="10" stroke-opacity="1" stroke-miterlimit="4"/><path stroke-linecap="butt" transform="matrix(-0.549997, 0.509905, -0.509905, -0.549997, 251.428231, 254.645491)" fill="none" stroke-linejoin="miter" d="M -0.00107826 5.000771 L 72.956607 4.997787 " stroke="#000000" stroke-width="10" stroke-opacity="1" stroke-miterlimit="4"/></svg>